SplineFontDB: 3.2
FontName: ArchitunMedium
FullName: Architun Medium
FamilyName: Architun
Weight: Medium
Copyright: Copyright (c) 2022, Sayhone
UComments: "2022-8-16: Created with FontForge (http://fontforge.org)"
Version: 001.000
ItalicAngle: 0
UnderlinePosition: -100
UnderlineWidth: 50
Ascent: 800
Descent: 200
InvalidEm: 0
LayerCount: 2
Layer: 0 0 "Back" 1
Layer: 1 0 "Fore" 0
XUID: [1021 501 -1863293109 2110]
StyleMap: 0x0000
FSType: 0
OS2Version: 0
OS2_WeightWidthSlopeOnly: 0
OS2_UseTypoMetrics: 1
CreationTime: 1660707410
ModificationTime: 1665794643
PfmFamily: 33
TTFWeight: 500
TTFWidth: 5
LineGap: 90
VLineGap: 0
OS2TypoAscent: 0
OS2TypoAOffset: 1
OS2TypoDescent: 0
OS2TypoDOffset: 1
OS2TypoLinegap: 90
OS2WinAscent: 0
OS2WinAOffset: 1
OS2WinDescent: 0
OS2WinDOffset: 1
HheadAscent: 0
HheadAOffset: 1
HheadDescent: 0
HheadDOffset: 1
OS2Vendor: 'PfEd'
Lookup: 1 0 0 "'dnom' Denominators lookup 0" { "'dnom' Denominators lookup 0 subtable"  } ['dnom' ('DFLT' <'dflt' > ) ]
Lookup: 1 0 0 "'numr' Numerators lookup 0" { "'numr' Numerators lookup 0 subtable"  } ['numr' ('DFLT' <'dflt' > ) ]
Lookup: 1 0 0 "'ss01' Style Set 1 in Latin lookup 0" { "'ss01' Style Set 1 in Latin lookup 0-1"  } ['ss01' ('DFLT' <'dflt' > 'latn' <'dflt' > ) ]
Lookup: 1 0 0 "'ss02' Style Set 2 in Latin lookup 1" { "'ss02' Style Set 2 in Latin lookup 1-1"  } ['ss02' ('DFLT' <'dflt' > 'latn' <'dflt' > ) ]
Lookup: 1 0 0 "'ss03' Style Set 3 in Latin lookup 2" { "'ss03' Style Set 3 in Latin lookup 2-1"  } ['ss03' ('DFLT' <'dflt' > 'latn' <'dflt' > ) ]
Lookup: 1 0 0 "'ss04' Style Set 4 in Latin lookup 3" { "'ss04' Style Set 4 in Latin lookup 3-1"  } ['ss04' ('DFLT' <'dflt' > 'latn' <'dflt' > ) ]
Lookup: 1 0 0 "'ss05' Style Set 5 in Latin lookup 4" { "'ss05' Style Set 5 in Latin lookup 4-1"  } ['ss05' ('DFLT' <'dflt' > 'latn' <'dflt' > ) ]
Lookup: 1 0 0 "'ss06' Style Set 6 in Latin lookup 5" { "'ss06' Style Set 6 in Latin lookup 5-1"  } ['ss06' ('DFLT' <'dflt' > 'latn' <'dflt' > ) ]

StartChar: H
Encoding: 72 72 0
Width: 541
Flags: HMW
AnchorPoint: "Anchor-2" 292.01 0 basechar 0
AnchorPoint: "Anchor-4" 304.01 527 basechar 0
AnchorPoint: "Anchor-0" 304.01 644 basechar 0
LayerCount: 2
Fore
SplineSet
96.7216796875 586 m 0
 114.72265625 630 149.555664062 663.166015625 176.721679688 636 c 0
 197.721679688 615 190.721679688 436 190.721679688 362 c 0
 190.721679688 288 181.721679688 133.602539062 181.721679688 120 c 0
 181.721679688 92 177.862304688 52.5390625 168.721679688 37 c 0
 158.721679688 20 144.721679688 0 116.721679688 0 c 0
 96.2783203125 0 86.7216796875 21 86.7216796875 36 c 0
 86.7216796875 148.040039062 84.560546875 238.249023438 86.130859375 312 c 0
 87.7919921875 389.982421875 88.2587890625 565.314453125 96.7216796875 586 c 0
53.7216796875 332 m 0
 133.47265625 409.258789062 229.721679688 437 317.721679688 437 c 0
 405.721679688 437 481.721679688 400 496.721679688 383 c 0
 511.721679688 366 504.721679688 306 477.721679688 300 c 0
 450.721679688 294 435.721679688 325 316.721679688 328 c 0
 197.721679688 331 135.734375 233.510742188 65.7216796875 235 c 0
 18.7216796875 236 21.7216796875 301 53.7216796875 332 c 0
410.721679688 608 m 0
 424.721679688 640 469.555664062 652.166015625 496.721679688 625 c 0
 517.721679688 604 510.721679688 436 510.721679688 362 c 0
 510.721679688 288 501.721679688 147.602539062 501.721679688 134 c 0
 501.721679688 106 499.33203125 68.8310546875 487.721679688 34 c 0
 481.721679688 16 467.709960938 0.6982421875 447.721679688 0 c 0
 427.924804688 -0.69140625 407.721679688 21 406.721679688 54 c 0
 403.721679688 102 406.124023438 233.993164062 406.130859375 312 c 0
 406.130859375 390 401.756835938 587.508789062 410.721679688 608 c 0
EndSplineSet
Validated: 524325
EndChar

StartChar: A
Encoding: 65 65 1
Width: 494
Flags: HMW
AnchorPoint: "Anchor-2" 264.17 1 basechar 0
AnchorPoint: "Anchor-3" 426.17 20 basechar 0
AnchorPoint: "Anchor-0" 250.17 642 basechar 0
LayerCount: 2
Fore
SplineSet
21.2255859375 234 m 0
 100.9765625 311.258789062 155.225585938 345 251.225585938 345 c 0
 353.225585938 345 392.225585938 303 407.225585938 286 c 0
 422.225585938 269 437.225585938 208 410.225585938 202 c 0
 383.225585938 196 405.263671875 230 286.225585938 230 c 0
 82.2255859375 230 86.2255859375 137 33.2255859375 137 c 0
 -13.78515625 137 -10.7744140625 203 21.2255859375 234 c 0
175.225585938 603 m 0
 191.225585938 631 220.225585938 644.850585938 260.225585938 635 c 0
 300.260742188 625.140625 324.225585938 565 368.225585938 449 c 0
 412.225585938 333 486.225585938 122 494.225585938 76 c 0
 502.225585938 30 497.225585938 12 476.225585938 0 c 0
 452.86328125 -13.349609375 425.225585938 -6 401.225585938 34 c 0
 377.225585938 74 318.225585938 285 290.225585938 363 c 0
 262.225585938 441 238.225585938 503 238.225585938 503 c 1
 228.8203125 457.2578125 175.225585938 228 159.225585938 172 c 0
 143.225585938 116 138.225585938 79 122.225585938 39 c 0
 106.225585938 -1 73.2255859375 -24 51.2255859375 -20 c 0
 29.2255859375 -16 16.419921875 11.1591796875 29.2255859375 74 c 0
 47.9951171875 166.104492188 151.997070312 562.349609375 175.225585938 603 c 0
EndSplineSet
Validated: 524325
Substitution2: "'ss10' Style Set 10 lookup 12-1" A.ss10
EndChar

StartChar: I
Encoding: 73 73 2
Width: 497
Flags: HMW
AnchorPoint: "Anchor-2" 255.011 4 basechar 0
AnchorPoint: "Anchor-3" 255.011 35 basechar 0
AnchorPoint: "Anchor-0" 255.011 654 basechar 0
LayerCount: 2
Fore
SplineSet
30.0087890625 559 m 0
 31.0087890625 615 115.00390625 634.071289062 254.008789062 644 c 0
 408.008789062 655 470.008789062 643 467.008789062 586 c 0
 463.592773438 521.08984375 370.008789062 533 246.008789062 522 c 0
 162.124023438 514.55859375 128.008789062 510 96.0087890625 510 c 0
 58.34765625 510 29.4375 526.989257812 30.0087890625 559 c 0
30.0087890625 39 m 0
 31.0087890625 95 115.00390625 124.071289062 254.008789062 134 c 0
 408.008789062 145 470.008789062 133 467.008789062 76 c 0
 463.592773438 11.08984375 370.008789062 23 246.008789062 12 c 0
 162.124023438 4.55859375 128.008789062 0 96.0087890625 0 c 0
 58.34765625 0 29.4375 6.9892578125 30.0087890625 39 c 0
299.817382812 581 m 4
 307.817382812 559 308.817382812 554 308.817382812 492 c 4
 308.817382812 430 307.817382812 430 307.817382812 322 c 4
 307.817382812 213.92578125 304.817382812 85 294.817382812 72 c 4
 284.817382812 59 274.817382812 50 249.817382812 50 c 4
 224.817382812 50 200.817382812 56 198.817382812 104 c 4
 196.817382812 152 193.817382812 573 199.817382812 591 c 4
 205.817382812 609 218.817382812 621 240.817382812 621 c 4
 262.817382812 621 289.725585938 608.751953125 299.817382812 581 c 4
EndSplineSet
Validated: 524325
EndChar

StartChar: R
Encoding: 82 82 3
Width: 443
Flags: HMW
AnchorPoint: "Anchor-2" 232.01 0 basechar 0
AnchorPoint: "Anchor-0" 234.01 674 basechar 0
LayerCount: 2
Fore
SplineSet
307.057617188 344 m 0
 366.057617188 317 409.461914062 270.333984375 417.107421875 160.485351562 c 0
 423.057617188 75 408.685546875 19.7236328125 376.071289062 -0.923828125 c 0
 349.1796875 -17.9482421875 309.638671875 -0.47265625 317.1953125 70.62109375 c 0
 326.057617188 154 308.057617188 248 245.057617188 267 c 0
 182.057617188 286 193.057617188 316 218.057617188 334 c 0
 253.547851562 359.552734375 278.51953125 357.059570312 307.057617188 344 c 0
60.0576171875 499 m 0
 64.0576171875 545 73.3642578125 622.346679688 136.057617188 591 c 0
 162.057617188 578 154.934570312 450.609375 153.009765625 331 c 0
 151.071289062 210.490234375 150.065429688 78.052734375 148.057617188 64 c 0
 144.057617188 36 126.057617188 4 100.057617188 0 c 0
 74.0576171875 -4 52.0576171875 19 52.0576171875 53 c 0
 52.0576171875 101.041992188 50.46875 268.987304688 52.0576171875 327 c 0
 54.0576171875 400 56.0576171875 453 60.0576171875 499 c 0
-9.9423828125 524 m 4
 -3.56653080955 595.318845216 140.057616972 657.3455644 236.057617188 658 c 4
 327.055502785 658.620335998 412.057617188 604 412.057617188 493 c 4
 412.057617188 428.96875 370.057617188 360 304.057617188 308 c 4
 245.61328125 261.953125 134.197265625 222 100.197265625 247 c 4
 66.197265625 272 106.057617188 312 128.057617188 322 c 4
 150.057617188 332 158.057617188 328 210.057617188 361 c 4
 262.057617188 394 296.057617188 426 296.057617188 473 c 4
 296.057617188 532 259.057617188 552 214.057617188 552 c 4
 141.057617188 552 90.197265625 471 64.197265625 470 c 4
 38.197265625 469 -14.4814522631 473.226990931 -9.9423828125 524 c 4
EndSplineSet
Validated: 524325
EndChar

StartChar: C
Encoding: 67 67 4
Width: 483
Flags: HMW
AnchorPoint: "Anchor-0" 305 654 basechar 0
AnchorPoint: "Anchor-2" 226 -11 basechar 0
LayerCount: 2
Fore
SplineSet
352.432617188 430 m 0
 356.432617188 502 338.771484375 552.224609375 293.432617188 550 c 0
 259.463867188 548.333007812 218.076171875 523 182.432617188 452 c 0
 156.795898438 400.93359375 138.076171875 358 132.432617188 259 c 0
 124.34375 117.103515625 179.432617188 96 243.432617188 92 c 4
 307.432617188 88 348.356445312 116.413085938 380.241210938 144 c 4
 435.766601562 192.041015625 472.938476562 148.329101562 429.241210938 80 c 4
 388.719726562 16.6357421875 319.432617188 -16 225.432617188 -10 c 4
 131.432617188 -4 21.5068359375 59.33984375 25.4326171875 242 c 0
 28.076171875 365 62.076171875 453 111.432617188 525 c 0
 173.225585938 615.142578125 243.303710938 648 305.432617188 648 c 0
 389.432617188 648 439.432617188 588 441.432617188 494 c 0
 443.432617188 400 397.541992188 379.728515625 379.432617188 380 c 0
 350.221679688 380.438476562 351.126953125 406.499023438 352.432617188 430 c 0
EndSplineSet
Validated: 33
Substitution2: "'ss01' Style Set 1 in Latin lookup 0-1" C.ss01
EndChar

StartChar: N
Encoding: 78 78 5
Width: 488
Flags: HMW
AnchorPoint: "Anchor-2" 233.011 2 basechar 0
AnchorPoint: "Anchor-0" 242.011 641 basechar 0
LayerCount: 2
Fore
SplineSet
82.248046875 635 m 1
 123.248046875 638 160.248046875 597 254.248046875 405 c 0
 281.72265625 348.8828125 348.248046875 195 348.248046875 195 c 1
 348.248046875 195 354.248046875 559 354.248046875 599 c 0
 354.248046875 639 392.817382812 661.419921875 425.248046875 624 c 0
 464.248046875 579 457.365234375 473.997070312 458.248046875 350 c 0
 460.248046875 69 434.248046875 0 380.248046875 0 c 0
 326.248046875 0 283.248046875 92 251.248046875 162 c 0
 187.094726562 302.3359375 137.248046875 407 137.248046875 407 c 1
 137.248046875 407 140.248046875 321 129.248046875 150 c 0
 122.221679688 40.767578125 103.248046875 0 73.248046875 0 c 0
 43.248046875 0 27.8251953125 29.8837890625 30.248046875 160 c 0
 37.248046875 536 25.248046875 626 82.248046875 635 c 1
EndSplineSet
Validated: 524321
EndChar

StartChar: U
Encoding: 85 85 6
Width: 502
Flags: HMW
AnchorPoint: "Anchor-2" 225.671 -17 basechar 0
AnchorPoint: "Anchor-3" 233.671 0 basechar 0
AnchorPoint: "Anchor-0" 262.671 658 basechar 0
LayerCount: 2
Fore
SplineSet
56.443359375 591 m 0
 58.44921875 624.674804688 89.443359375 636 106.443359375 636 c 0
 117.844726562 636 163.581054688 631.811523438 158.443359375 562 c 0
 146.971679688 406.122070312 137.258789062 315.229492188 127.93359375 230 c 0
 116.942382812 129.541992188 163.5703125 90.4462890625 225.443359375 98 c 4
 331.93359375 111 365.443359375 173 365.443359375 416 c 4
 365.443359375 512 363.443359375 544 361.443359375 566 c 4
 354.922851562 637.732421875 386.443359375 644 410.443359375 644 c 4
 434.443359375 644 466.443359375 628 472.443359375 514 c 4
 479.493164062 380.05078125 474.443359375 224 427.443359375 117 c 4
 392.547851562 37.556640625 319.93359375 0 226.443359375 -10 c 4
 81.271484375 -25.5283203125 10.6005859375 110.731445312 27.443359375 236 c 0
 43.15234375 352.830078125 47.6455078125 443.249023438 56.443359375 591 c 0
EndSplineSet
Validated: 524321
Substitution2: "'ss05' Style Set 5 in Latin lookup 4-1" U.ss05
EndChar

StartChar: T
Encoding: 84 84 7
Width: 497
Flags: HMW
AnchorPoint: "Anchor-4" 232.01 396 basechar 0
AnchorPoint: "Anchor-2" 220.01 -1 basechar 0
AnchorPoint: "Anchor-0" 254.01 644 basechar 0
LayerCount: 2
Fore
SplineSet
279.556640625 577 m 0
 287.556640625 555 288.556640625 530 288.556640625 468 c 0
 288.556640625 406 287.556640625 420 287.556640625 312 c 0
 287.556640625 203.92578125 287.0078125 105 273.0078125 55 c 0
 264.481445312 24.548828125 245.0078125 0 220.0078125 0 c 0
 195.0078125 0 179.0078125 18 178.556640625 50 c 0
 177.87890625 98.037109375 188.556640625 569 194.556640625 587 c 0
 200.556640625 605 218.556640625 617 240.556640625 617 c 0
 262.556640625 617 269.46484375 604.751953125 279.556640625 577 c 0
30.0078125 524 m 0
 31.0078125 580 115.002929688 629.071289062 254.0078125 639 c 0
 408.0078125 650 470.0078125 638 467.0078125 581 c 0
 463.591796875 516.08984375 370.0078125 538 246.0078125 527 c 0
 162.123046875 519.55859375 128.293945312 492.458984375 96.0078125 485 c 0
 59.3134765625 476.522460938 29.4365234375 491.989257812 30.0078125 524 c 0
EndSplineSet
Validated: 524325
EndChar

StartChar: G
Encoding: 71 71 8
Width: 499
Flags: HMW
AnchorPoint: "Anchor-2" 226 -19 basechar 0
AnchorPoint: "Anchor-0" 305 654 basechar 0
LayerCount: 2
Fore
SplineSet
314.11328125 549 m 0
 272.11328125 552 217.758789062 523.209960938 182.432617188 452 c 0
 157.0390625 400.8125 138.076171875 358 132.432617188 259 c 0
 124.34375 117.103515625 179.432617188 96 243.432617188 92 c 0
 282.274414062 89.572265625 335.11328125 105 360.11328125 148 c 0
 368.217773438 161.939453125 369.776367188 243.616210938 369.11328125 292 c 1
 369.11328125 292 346.17578125 286.298828125 318.11328125 287 c 0
 278.11328125 288 272.298828125 312.09375 275.11328125 333 c 0
 282.11328125 385 366.11328125 411 411.11328125 410 c 0
 456.11328125 409 465.11328125 391 468.11328125 300 c 0
 471.11328125 209 469.11328125 136 442.432617188 89 c 0
 404.081054688 21.44140625 319.432617188 -16 225.432617188 -10 c 0
 131.432617188 -4 21.5068359375 59.33984375 25.4326171875 242 c 0
 28.076171875 365 62.076171875 453 111.432617188 525 c 0
 173.225585938 615.142578125 239.984375 654 302.11328125 654 c 0
 386.11328125 654 421.11328125 616 427.11328125 584 c 0
 433.11328125 552 414.11328125 526 378.11328125 526 c 0
 345.052734375 526 349.0390625 546.504882812 314.11328125 549 c 0
EndSplineSet
Validated: 524321
Substitution2: "'ss12' Style Set 12 lookup 15-1" G.ss12
Substitution2: "'ss09' Style Set 9 in Latin lookup 8-1" G.ss09
EndChar

StartChar: C.ss01
Encoding: 65536 -1 9
Width: 483
Flags: HW
AnchorPoint: "Anchor-0" 305 654 basechar 0
AnchorPoint: "Anchor-2" 226 -11 basechar 0
LayerCount: 2
Fore
SplineSet
293.432617188 550 m 0
 259.515604039 547.491801729 218.076465719 522.999852483 182.432617188 452 c 0
 156.795898438 400.93359375 138.076171875 358 132.432617188 259 c 0
 124.34375 117.103515625 179.432617188 96 243.432617188 92 c 0
 307.432617188 88 348.356445312 116.413085938 380.241210938 144 c 0
 435.766601562 192.041015625 472.938476562 148.329101562 429.241210938 80 c 0
 388.719726562 16.6357421875 319.432617188 -16 225.432617188 -10 c 0
 131.432617188 -4 21.5068359375 59.33984375 25.4326171875 242 c 0
 28.076171875 365 62.076171875 453 111.432617188 525 c 0
 173.225807772 615.142426057 243.303710938 648 305.432617188 648 c 0
 389.432617188 648 424.432617188 610 430.432617188 578 c 0
 436.432617188 546 417.432617188 520 381.432617188 520 c 0
 348.372070312 520 334 553 293.432617188 550 c 0
EndSplineSet
Validated: 524321
EndChar

StartChar: D
Encoding: 68 68 10
Width: 469
Flags: HMW
AnchorPoint: "Anchor-2" 212.835 -20 basechar 0
AnchorPoint: "Anchor-4" 96.835 325 basechar 0
AnchorPoint: "Anchor-0" 234.835 664 basechar 0
LayerCount: 2
Fore
SplineSet
60.052734375 499 m 0
 64.052734375 545 73.359375 622.346679688 136.052734375 591 c 0
 162.052734375 578 154.9296875 530.609375 153.004882812 411 c 0
 151.06640625 290.490234375 150.060546875 78.052734375 148.052734375 64 c 0
 144.052734375 36 126.052734375 4 100.052734375 0 c 0
 74.052734375 -4 52.052734375 19 52.052734375 53 c 0
 52.052734375 101.041992188 50.4638671875 268.987304688 52.052734375 327 c 0
 54.052734375 400 56.052734375 453 60.052734375 499 c 0
445.701171875 381 m 0
 445.701171875 274.092773438 409.105218737 175.154107541 353.701171875 103 c 0
 310.701171875 47 216.37890625 -10.23828125 146.692382812 -10 c 0
 107.924804688 -9.8671875 85.8125 -3.4931640625 71.6923828125 8 c 0
 32.109375 40.220703125 96.6767578125 88.599609375 122.692382812 89 c 0
 187.692382812 90 239.134765625 129.546875 262.834960938 161 c 0
 299.878166577 210.160969436 335.701171875 307.44921875 335.701171875 383 c 0
 335.701171875 509 299.052734375 552 224.052734375 552 c 0
 125 552 84 463 69.8349609375 463 c 0
 43.815737275 463 -12.2601345316 473.023041773 -9.947265625 524 c 0
 -6 611 140.05273416 657.347743465 236.052734375 658 c 0
 357.049941608 658.822096031 445.701171875 563 445.701171875 381 c 0
EndSplineSet
Validated: 524325
EndChar

StartChar: S
Encoding: 83 83 11
Width: 507
Flags: HMW
AnchorPoint: "Anchor-2" 240 -20 basechar 0
AnchorPoint: "Anchor-0" 241 660 basechar 0
LayerCount: 2
Fore
SplineSet
254.330078125 555 m 0
 187.330078125 555 130.330078125 501 130.330078125 450 c 0
 130.330078125 419.74609375 148.208984375 403 174.330078125 403 c 0
 241.330078125 403 256.330078125 425 334.330078125 425 c 0
 422.330078125 425 474.330078125 352.10546875 474.330078125 266 c 0
 474.330078125 164 452.645507812 0.109375 208.330078125 -10 c 0
 63.330078125 -16 46.330078125 99 46.330078125 136 c 0
 46.330078125 160.819335938 66.822265625 184 97.830078125 184 c 0
 124.830078125 184 149.330078125 172 151.330078125 142 c 0
 153.607421875 107.841796875 164.33203125 92.7275390625 222.330078125 94 c 0
 332.533203125 96.4169921875 370.330078125 162 370.330078125 240 c 0
 370.330078125 288 345.330078125 329 305.330078125 329 c 0
 241.29296875 329 210.330078125 300 142.330078125 300 c 0
 74.330078125 300 25.330078125 357 25.330078125 427 c 0
 25.330078125 597 212.330078125 655 278.330078125 655 c 0
 344.330078125 655 399.830078125 617 401.830078125 534 c 0
 402.942382812 487.83984375 388.330078125 465 352.330078125 465 c 0
 336.330078125 465 301.830078125 476 300.830078125 502 c 0
 299.2109375 544.1015625 287.390625 555 254.330078125 555 c 0
EndSplineSet
Validated: 33
Substitution2: "'ss04' Style Set 4 in Latin lookup 3-1" S.ss04
EndChar

StartChar: P
Encoding: 80 80 12
Width: 443
Flags: HMW
AnchorPoint: "Anchor-2" 219.01 0 basechar 0
AnchorPoint: "Anchor-0" 236.01 664 basechar 0
LayerCount: 2
Fore
SplineSet
60.0537109375 499 m 4
 64.0537109375 545 73.3603515625 622.346679688 136.053710938 591 c 4
 162.053710938 578 154.930664062 450.609375 153.005859375 331 c 4
 151.067382812 210.490234375 150.061523438 78.052734375 148.053710938 64 c 4
 144.053710938 36 126.053710938 4 100.053710938 0 c 4
 74.0537109375 -4 52.0537109375 19 52.0537109375 53 c 4
 52.0537109375 101.041992188 50.46484375 268.987304688 52.0537109375 327 c 4
 54.0537109375 400 56.0537109375 453 60.0537109375 499 c 4
-9.9462890625 524 m 4
 -7 612 140.053710723 657.798265926 236.053710938 658 c 4
 327.053510016 658.191226668 412.053710938 594 412.053710938 483 c 4
 412.053710938 358.96875 346.053710938 283 279.784179688 238.44140625 c 4
 218.0390625 196.924804688 130 166.329101562 97.021484375 192.662109375 c 4
 64.0439453125 218.995117188 81.7021484375 260.32421875 104.08203125 269.44140625 c 4
 126.462890625 278.55859375 134.297851562 274.243164062 187.569335938 305.147460938 c 4
 240.840820312 336.052734375 296.053710938 376 296.053710938 463 c 4
 296.053710938 522 259.053710938 552 214.053710938 552 c 4
 141.053710938 552 94.51171875 473 68.51171875 472 c 4
 42.51171875 471 -11.6538250654 472.999176567 -9.9462890625 524 c 4
EndSplineSet
Validated: 524325
EndChar

StartChar: L
Encoding: 76 76 13
Width: 426
Flags: HMW
AnchorPoint: "Anchor-4" 292 329 basechar 0
AnchorPoint: "Anchor-1" 334 583 basechar 0
AnchorPoint: "Anchor-2" 229 -20 basechar 0
AnchorPoint: "Anchor-0" 115 644 basechar 0
LayerCount: 2
Fore
SplineSet
58.177734375 590 m 0
 67.212890625 648 161.142578125 651.1171875 161.142578125 583 c 0
 161.142578125 538 144.177734375 419 139.142578125 287 c 0
 137.40234375 241.38671875 137.142578125 204.299804688 137.142578125 166 c 0
 137.142578125 110 157.436523438 84.7548828125 199.142578125 86 c 0
 221.125976562 86.65625 255.066571104 90.6263424018 287 95.490234375 c 0
 319.397460938 100.424804688 350.103515625 108.206054688 365.177734375 105 c 0
 389.15625 99.900390625 400.30078125 81.5087890625 399.961914062 60 c 0
 399.645507812 39.9365234375 390.022460938 24.8974609375 362.142578125 13 c 0
 316.765625 -6.3642578125 275.142578125 -14 229.142578125 -18 c 0
 113.578669894 -28.0490354983 33.412109375 6.005859375 31.142578125 136 c 0
 29.388065322 236.494929976 52.771484375 555.29296875 58.177734375 590 c 0
EndSplineSet
Validated: 524321
EndChar

StartChar: O
Encoding: 79 79 14
Width: 516
Flags: HMW
AnchorPoint: "Anchor-2" 244 -17 basechar 0
AnchorPoint: "Anchor-3" 244 0 basechar 0
AnchorPoint: "Anchor-0" 288 644 basechar 0
LayerCount: 2
Fore
SplineSet
271.326171875 530.650390625 m 0
 189.838867188 517.919921875 133.836914062 424.674804688 131.846679688 271.823242188 c 0
 130.109375 138.416992188 175.732421875 85.2744140625 254.40625 97.3603515625 c 0
 324.544921875 108.135742188 384.852539062 202.46875 383.086914062 375.931640625 c 0
 381.916992188 490.76953125 340.448242188 541.44921875 271.326171875 530.650390625 c 0
267.470703125 638 m 0
 362.549804688 646.8984375 491.470703125 601 491.470703125 389 c 0
 491.470703125 122.796875 382.413085938 0.662109375 244.470703125 -10 c 0
 96.91796875 -21.4052734375 21.6240234375 87.9970703125 25.470703125 286 c 0
 29.7041015625 503.874023438 163.9296875 628.309570312 267.470703125 638 c 0
EndSplineSet
Validated: 33
EndChar

StartChar: B
Encoding: 66 66 15
Width: 454
Flags: HMW
AnchorPoint: "Anchor-2" 215.839 -20 basechar 0
LayerCount: 2
Fore
SplineSet
380.838867188 75 m 0
 313.100585938 -0.94921875 236.3828125 -10.23828125 166.696289062 -10 c 0
 127.928710938 -9.8671875 85.81640625 -3.4931640625 71.6962890625 8 c 0
 32.11328125 40.220703125 96.6806640625 88.599609375 122.696289062 89 c 0
 187.696289062 90 269.366210938 86.0234375 309.696289062 151 c 0
 327.696289062 180 340.053710938 237.911132812 295.880859375 277.022460938 c 0
 260.69140625 308.1796875 223.280273438 304.577148438 163.696289062 289 c 0
 137.375976562 282.119140625 126.696289062 274 108.696289062 270 c 0
 85.1064453125 264.7578125 63.875 275.970703125 67.6962890625 318 c 0
 71.517578125 360.028320312 111.916992188 372.532226562 185.135742188 385.763671875 c 0
 267.8203125 400.706054688 296.879882812 392.263671875 362.696289062 346 c 0
 407.618164062 314.423828125 427.838867188 270 427.838867188 206 c 0
 427.838867188 167.267578125 413.838867188 112 380.838867188 75 c 0
60.056640625 499 m 0
 64.056640625 545 73.36328125 622.346679688 136.056640625 591 c 0
 162.056640625 578 154.93359375 530.609375 153.008789062 411 c 0
 151.0703125 290.490234375 150.064453125 78.052734375 148.056640625 64 c 0
 144.056640625 36 126.056640625 4 100.056640625 0 c 0
 74.056640625 -4 52.056640625 19 52.056640625 53 c 0
 52.056640625 101.041992188 50.4677734375 268.987304688 52.056640625 327 c 0
 54.056640625 400 56.056640625 453 60.056640625 499 c 0
-9.943359375 524 m 0
 -9 611 140.056640412 657.236802957 236.056640625 658 c 0
 327.05376507 658.723424335 412.056640625 604 412.056640625 493 c 0
 412.056640625 408.96875 364.961914062 377.171875 327.696289062 353 c 0
 290.696289062 329 158.056640625 300 124.056640625 325 c 0
 90.056640625 350 93.6962890625 361 115.696289062 371 c 0
 137.696289062 381 168.838867188 339 220.838867188 372 c 0
 272.838867188 405 296.056640625 426 296.056640625 473 c 0
 296.056640625 532 259.056640625 552 214.056640625 552 c 0
 141.056640625 552 91.8388671875 463 65.8388671875 462 c 0
 39.8388671875 461 -10.4964275911 472.99405669 -9.943359375 524 c 0
EndSplineSet
Validated: 524325
EndChar

StartChar: E
Encoding: 69 69 16
Width: 429
Flags: HMW
AnchorPoint: "Anchor-2" 221.562 -8 basechar 0
AnchorPoint: "Anchor-3" 347.562 0 basechar 0
AnchorPoint: "Anchor-0" 228.562 651 basechar 0
LayerCount: 2
Fore
SplineSet
221.399414062 364 m 0
 266.943359375 370.461914062 295.399414062 376 330.399414062 363 c 0
 368.385742188 348.890625 368.91796875 296.362304688 341.399414062 280 c 0
 304.399414062 258 280.415039062 258.817382812 210.258789062 248.86328125 c 0
 164.71484375 242.401367188 127.997070312 228.528320312 79.2998046875 236.44140625 c 0
 21.8447265625 245.778320312 25.8818359375 304.2109375 55.9130859375 320.084960938 c 0
 100.513671875 343.66015625 151.243164062 354.045898438 221.399414062 364 c 0
148.908203125 437.416992188 m 0
 145.849609375 392.509765625 143.965820312 361.99609375 142.828125 289.873046875 c 0
 142.108398438 244.232421875 140.760742188 196.955078125 142.828125 158.7109375 c 0
 145.850585938 102.79296875 158.444335938 88.8173828125 200.364257812 91 c 0
 296.399414062 96 322.614257812 112.278320312 370.364257812 96 c 0
 414.364257812 81 418.131835938 18.4365234375 360.364257812 0 c 0
 313.364257812 -15 266.364257812 -16 220.364257812 -16 c 0
 104.364257812 -16 46.8046875 13.322265625 39.1416015625 113.047851562 c 0
 34.1171875 178.438476562 21.17578125 393.428710938 39.490234375 498.571289062 c 0
 56.16796875 594.314453125 104.690429688 617.840820312 219.540039062 634.13671875 c 0
 265.083984375 640.598632812 301.801757812 644.471679688 350.499023438 636.55859375 c 0
 407.954101562 627.221679688 403.916992188 568.7890625 373.885742188 552.915039062 c 0
 329.28515625 529.33984375 278.399414062 530 208.399414062 519 c 0
 166.931640625 512.483398438 153 497.484375 148.908203125 437.416992188 c 0
EndSplineSet
Validated: 524325
EndChar

StartChar: F
Encoding: 70 70 17
Width: 425
Flags: HMW
AnchorPoint: "Anchor-0" 224.01 651 basechar 0
LayerCount: 2
Fore
SplineSet
219.58984375 330 m 0
 265.133789062 336.461914062 293.58984375 346 328.58984375 333 c 0
 366.576171875 318.890625 367.108398438 266.362304688 339.58984375 250 c 0
 302.58984375 228 278.60546875 224.817382812 208.44921875 214.86328125 c 0
 162.905273438 208.401367188 126.1875 198.528320312 77.490234375 206.44140625 c 0
 20.03515625 215.778320312 24.072265625 274.2109375 54.103515625 290.084960938 c 0
 98.7041015625 313.66015625 149.43359375 320.045898438 219.58984375 330 c 0
140.58984375 155 m 0
 140.58984375 84.4130859375 141.58984375 47 137.443359375 32.0478515625 c 0
 131.09375 9.1533203125 114.443359375 0.0478515625 89.443359375 0.0478515625 c 0
 64.443359375 0.0478515625 41.41015625 6.09765625 38.443359375 54.0478515625 c 0
 36.58984375 84 20.888671875 394.631835938 37.6806640625 498.571289062 c 0
 53.1796875 594.512695312 97.880859375 617.840820312 212.73046875 634.13671875 c 0
 258.274414062 640.598632812 299.9921875 642.471679688 348.689453125 634.55859375 c 0
 406.14453125 625.221679688 402.107421875 566.7890625 372.076171875 550.915039062 c 0
 327.475585938 527.33984375 271.58984375 530 201.58984375 519 c 0
 160.122070312 512.483398438 151.190429688 497.484375 147.098632812 437.416992188 c 0
 144.040039062 392.509765625 142.15625 361.99609375 141.018554688 289.873046875 c 0
 140.298828125 244.232421875 140.58984375 190 140.58984375 155 c 0
EndSplineSet
Validated: 524325
EndChar

StartChar: J
Encoding: 74 74 18
Width: 421
Flags: HMW
AnchorPoint: "Anchor-0" 214.01 654 basechar 0
LayerCount: 2
Fore
SplineSet
39.146484375 559 m 0
 40.146484375 615 144.001953125 633.26953125 283.146484375 641 c 0
 337.146484375 644 414.77734375 643.0625 416.146484375 586 c 4
 417.682617188 522 299.146484375 522 275.146484375 519 c 0
 191.583007812 508.5546875 137.146484375 510 105.146484375 510 c 0
 67.4853515625 510 38.5751953125 526.989257812 39.146484375 559 c 0
371.50390625 492.618164062 m 0
 382.240234375 305.940429688 395.912109375 176.557617188 361.682617188 101 c 0
 325.204101562 20.478515625 279.505859375 -4.9599609375 207.09375 -10 c 0
 102.813476562 -17.2587890625 37.09375 38 31.09375 70 c 0
 25.09375 102 44.09375 128 80.09375 128 c 0
 113.154296875 128 132.314453125 101.6015625 205.09375 105 c 0
 251.728515625 107.177734375 267.502929688 123.737304688 270.6328125 203.267578125 c 0
 276.682617188 357 253.70703125 598.197265625 257.291015625 610.6328125 c 0
 262.495117188 628.685546875 274.9609375 640.801757812 296.953125 641 c 0
 318.9453125 641.198242188 346.384765625 629.192382812 357.697265625 601.532226562 c 0
 366.665039062 579.60546875 367.940429688 554.573242188 371.50390625 492.618164062 c 0
EndSplineSet
Validated: 524325
EndChar

StartChar: K
Encoding: 75 75 19
Width: 475
Flags: HMW
AnchorPoint: "Anchor-2" 230.01 0 basechar 0
AnchorPoint: "Anchor-0" 234.01 644 basechar 0
LayerCount: 2
Fore
SplineSet
66.009765625 196 m 0
 52.009765625 227 56.59765625 238.711914062 83.6767578125 253.729492188 c 0
 223.009765625 331 325.092773438 523.302734375 346.009765625 567 c 0
 367.859375 612.646484375 405.009765625 630 436.009765625 612 c 0
 463.479492188 596.049804688 462.282226562 559.422851562 443.009765625 516 c 0
 426.764648438 479.3984375 277.009765625 246 174.009765625 201 c 0
 136.021484375 184.403320312 83.3603515625 157.58203125 66.009765625 196 c 0
229.009765625 358 m 0
 268.009765625 376 297.275390625 353.428710938 303.009765625 323 c 0
 308.400390625 294.396484375 407.969726562 129.427734375 436.009765625 92 c 0
 466.3515625 51.4990234375 451.009765625 15 423.009765625 0 c 0
 395.009765625 -15 364.017578125 5.0068359375 333.009765625 41 c 0
 307.947265625 70.091796875 227.063476562 222.328125 219.009765625 259 c 0
 212.047851562 290.696289062 190.735351562 340.334960938 229.009765625 358 c 0
133.544921875 597 m 4
 141.544921875 575 142.544921875 550 142.544921875 488 c 4
 142.544921875 426 141.544921875 430 141.544921875 322 c 4
 141.544921875 213.92578125 138.544921875 35 128.544921875 22 c 4
 118.544921875 9 108.544921875 0 83.544921875 0 c 4
 58.544921875 0 34.544921875 6 32.544921875 54 c 4
 30.544921875 102 27.544921875 589 33.544921875 607 c 4
 39.544921875 625 52.544921875 637 74.544921875 637 c 4
 96.544921875 637 123.453125 624.751953125 133.544921875 597 c 4
EndSplineSet
Validated: 524325
Substitution2: "'ss07' Style Set 7 in Latin lookup 6-1" K.ss07
Substitution2: "'ss06' Style Set 6 in Latin lookup 5-1" K.ss06
EndChar

StartChar: M
Encoding: 77 77 20
Width: 545
Flags: HMW
AnchorPoint: "Anchor-2" 279.67 0 basechar 0
AnchorPoint: "Anchor-0" 280.67 644 basechar 0
LayerCount: 2
Fore
SplineSet
279.385742188 371.92578125 m 1
 310.775390625 453.26953125 347.98828125 646.319335938 415.415039062 630.268554688 c 0
 472.065429688 616.783203125 503.78515625 538.03125 533.09765625 164.478515625 c 0
 543.278320312 34.7392578125 524.711914062 2.90625 494.853515625 0 c 0
 464.994140625 -2.9072265625 433.341796875 34.783203125 425.579101562 143.96484375 c 0
 413.869140625 308.654296875 392.296875 408.779296875 391.748046875 408.93359375 c 1
 391.748046875 408.93359375 347.853515625 202 279.853515625 202 c 0
 211.853515625 202 162.086914062 398.2578125 162.086914062 398.2578125 c 1
 162.6484375 397.272460938 146.369140625 312.26171875 121.034179688 132.01953125 c 0
 105.798828125 23.626953125 77.6220703125 -13.7216796875 47.853515625 -10 c 0
 18.0849609375 -6.279296875 1.8662109375 25.9013671875 14.1162109375 155.461914062 c 0
 50.1123046875 536.157226562 88.1591796875 615.348632812 144.4765625 617.86328125 c 0
 211.15625 620.840820312 247.159179688 450.666015625 279.385742188 371.92578125 c 1
EndSplineSet
Validated: 524325
EndChar

StartChar: Q
Encoding: 81 81 21
Width: 516
Flags: HMW
LayerCount: 2
Fore
SplineSet
294.400390625 57 m 4
 268.072265625 94.720703125 227.5 166.067382812 223.297851562 203.166015625 c 4
 218.737304688 243.430664062 265.3671875 267.62109375 292.390625 250.454101562 c 4
 328.725585938 227.372070312 361.610351562 157.146484375 402.165039062 99.041015625 c 4
 428.4921875 61.3203125 451.934570312 44.876953125 479.427734375 3.9130859375 c 4
 511.866210938 -44.419921875 466.440429688 -81.39453125 434.330078125 -70.3125 c 4
 386.643554688 -53.8525390625 334.956054688 -1.10546875 294.400390625 57 c 4
271.326171875 530.650390625 m 0
 189.838867188 517.919921875 133.836914062 424.674804688 131.846679688 271.823242188 c 0
 130.109375 138.416992188 175.732421875 85.2744140625 254.40625 97.3603515625 c 0
 324.544921875 108.135742188 384.852539062 202.46875 383.086914062 375.931640625 c 0
 381.916992188 490.76953125 340.448242188 541.44921875 271.326171875 530.650390625 c 0
267.470703125 638 m 0
 362.549804688 646.8984375 491.470703125 601 491.470703125 389 c 0
 491.470703125 122.796875 382.413085938 0.662109375 244.470703125 -10 c 0
 96.91796875 -21.4052734375 21.6240234375 87.9970703125 25.470703125 286 c 0
 29.7041015625 503.874023438 163.9296875 628.309570312 267.470703125 638 c 0
EndSplineSet
Validated: 37
EndChar

StartChar: V
Encoding: 86 86 22
Width: 469
Flags: HMW
AnchorPoint: "Anchor-2" 232.17 0 basechar 0
AnchorPoint: "Anchor-0" 237.17 644 basechar 0
LayerCount: 2
Fore
SplineSet
290.109375 29.05859375 m 0
 274.109375 1.05859375 245.109375 -12.7919921875 205.109375 -2.94140625 c 0
 165.07421875 6.91796875 151.109375 67.05859375 107.109375 183.05859375 c 0
 63.109375 299.05859375 9.109375 510.05859375 1.109375 556.05859375 c 0
 -6.890625 602.05859375 -1.890625 620.05859375 19.109375 632.05859375 c 0
 42.4716796875 645.408203125 70.109375 638.05859375 94.109375 598.05859375 c 0
 118.109375 558.05859375 173.538085938 354 195.109375 269.05859375 c 0
 215.5078125 188.735351562 232.538085938 125 232.538085938 125 c 1
 242.966796875 181.94140625 313.538085938 408 332.109375 460.05859375 c 0
 351.677734375 514.913085938 361.538085938 547 377.538085938 587 c 0
 393.538085938 627 417.538085938 637 439.538085938 633 c 0
 461.538085938 629 478.538085938 606 470.538085938 552 c 0
 454.432617188 443.287109375 313.337890625 69.708984375 290.109375 29.05859375 c 0
EndSplineSet
Validated: 524321
EndChar

StartChar: W
Encoding: 87 87 23
Width: 542
Flags: HMW
AnchorPoint: "Anchor-2" 264.67 0 basechar 0
AnchorPoint: "Anchor-0" 269.67 644 basechar 0
LayerCount: 2
Fore
SplineSet
265.359375 288.662109375 m 1
 241.168945312 148 205.169921875 0.0390625 139.330078125 0.3193359375 c 0
 71.91015625 0.6064453125 36.6416015625 92.556640625 11.6474609375 466.109375 c 0
 2.9599609375 595.95703125 30.033203125 627.681640625 59.8916015625 630.587890625 c 0
 89.7509765625 633.495117188 119.459960938 595.649414062 129.166015625 486.623046875 c 0
 143.59375 324.56640625 153.354492188 221.4609375 152.997070312 221.654296875 c 1
 152.997070312 221.654296875 169.168945312 320 172.169921875 364 c 0
 177.829101562 446.977539062 207.064453125 518.587890625 264.891601562 518.587890625 c 0
 320.514648438 518.587890625 348.819335938 438.301757812 358.169921875 356 c 0
 363.168945312 312 382.658203125 222.330078125 382.658203125 222.330078125 c 1
 382.0078125 222.330078125 392.834960938 320.252929688 413.7109375 488.568359375 c 0
 427.18359375 597.194335938 457.123046875 634.309570312 486.891601562 630.587890625 c 0
 516.66015625 626.8671875 539.83203125 594.938476562 530.62890625 465.125976562 c 0
 504.241210938 92.8974609375 445.235351562 1.8603515625 380.169921875 0 c 0
 313.451171875 -1.9072265625 279.168945312 158 265.359375 288.662109375 c 1
EndSplineSet
Validated: 524325
EndChar

StartChar: X
Encoding: 88 88 24
Width: 432
Flags: HMW
AnchorPoint: "Anchor-0" 227.17 644 basechar 0
LayerCount: 2
Fore
SplineSet
421.541992188 538.05859375 m 0
 398.541992188 492.05859375 297.770507812 343.19140625 257.122070312 270.971679688 c 0
 214.13671875 194.600585938 123.6484375 53.26171875 92.3056640625 18.712890625 c 0
 60.962890625 -15.8349609375 32.421875 -17.6513671875 12.11328125 0 c 0
 -6.1416015625 15.8671875 -7.533203125 34.49609375 9.2880859375 78.0517578125 c 0
 26.109375 121.606445312 119.526367188 274.15234375 184.955078125 379.5625 c 0
 249.958984375 484.288085938 338.541992188 665.05859375 403.541992188 642.05859375 c 0
 432.213867188 631.913085938 449.548828125 594.073242188 421.541992188 538.05859375 c 0
421.541992188 104 m 0
 449.548828125 47.9853515625 432.213867188 10.1455078125 403.541992188 0 c 0
 338.541992188 -23 239.958984375 141.770507812 174.955078125 246.49609375 c 0
 109.526367188 351.90625 25.2412109375 512.857421875 14.2177734375 558.227539062 c 0
 3.1943359375 603.598632812 6.9931640625 621.889648438 27.1533203125 635.251953125 c 0
 49.58203125 650.1171875 77.6455078125 644.610351562 104.237304688 606.28515625 c 0
 130.830078125 567.958984375 204.13671875 431.458007812 247.122070312 355.086914062 c 0
 287.770507812 282.8671875 398.541992188 150 421.541992188 104 c 0
EndSplineSet
Validated: 524325
EndChar

StartChar: Y
Encoding: 89 89 25
Width: 453
Flags: HMW
AnchorPoint: "Anchor-2" 36.1699 -37 basechar 0
AnchorPoint: "Anchor-0" 240.17 639 basechar 0
LayerCount: 2
Fore
SplineSet
243.078125 324.936523438 m 0
 258.131835938 298.72265625 253.241210938 261.677734375 233.720703125 247.396484375 c 0
 212.00390625 231.509765625 174.690429688 247.059570312 155.37890625 272.764648438 c 0
 76.32421875 377.990234375 26.646484375 473.818359375 7.3125 529 c 0
 -11.548828125 582.833984375 -2.6875 618 29.3125 631 c 0
 58.8564453125 643.001953125 93.5986328125 636.401367188 113.3125 585 c 0
 131.01953125 538.83203125 181.998046875 431.297851562 243.078125 324.936523438 c 0
408 461 m 0
 383.580078125 417.581054688 362.311864551 383.000391751 295.096679688 273.971679688 c 0
 226.848632812 163.267578125 127.368164062 42.4931640625 89.427734375 14.4736328125 c 0
 51.48828125 -13.5458984375 23.0625 -10.0498046875 6.75 10.978515625 c 0
 -7.9111328125 29.880859375 -5.42928601201 48.3682503936 20.099609375 87.8876953125 c 0
 45.6279296875 127.40625 205.232421875 327.5390625 263 436 c 0
 293.653320312 493.552734375 383 683 444 640 c 0
 488.983358183 608.290419641 440.223632812 518.293945312 408 461 c 0
EndSplineSet
Validated: 524325
EndChar

StartChar: Z
Encoding: 90 90 26
Width: 480
Flags: HMW
AnchorPoint: "Anchor-2" 238 0 basechar 0
AnchorPoint: "Anchor-0" 245 654 basechar 0
LayerCount: 2
Fore
SplineSet
22.0771484375 39 m 0
 23.0771484375 95 107.072265625 124.071289062 246.077148438 134 c 0
 400.077148438 145 462.077148438 133 459.077148438 76 c 0
 455.661132812 11.08984375 362.077148438 23 238.077148438 12 c 0
 154.192382812 4.55859375 120.077148438 0 88.0771484375 0 c 0
 50.416015625 0 21.505859375 6.9892578125 22.0771484375 39 c 0
22.0771484375 559 m 0
 23.0771484375 615 107.072265625 634.071289062 246.077148438 644 c 0
 400.077148438 655 462.077148438 643 459.077148438 586 c 0
 455.661132812 521.08984375 362.077148438 533 238.077148438 522 c 0
 154.192382812 514.55859375 120.077148438 510 88.0771484375 510 c 0
 50.416015625 510 21.505859375 526.989257812 22.0771484375 559 c 0
450.630859375 538.05859375 m 0
 426.610351562 492.05859375 332.538085938 343.19140625 290.288085938 270.971679688 c 0
 245.610351562 194.600585938 141.98828125 69.26171875 109.87890625 34.712890625 c 0
 77.7705078125 0.1650390625 49.1884765625 -1.6513671875 29.271484375 16 c 0
 11.369140625 31.8671875 10.390625 50.49609375 28.177734375 94.0517578125 c 0
 45.9638671875 137.606445312 152.765625 274.15234375 220.530273438 379.5625 c 0
 287.85546875 484.288085938 366.586914062 657 431.077148438 634 c 0
 459.524414062 623.854492188 479.880859375 594.073242188 450.630859375 538.05859375 c 0
EndSplineSet
Validated: 37
EndChar

StartChar: zero
Encoding: 48 48 27
Width: 495
Flags: HMW
LayerCount: 2
Fore
SplineSet
261.3046875 528.379882812 m 0
 189.696289062 517.470703125 138.815429688 441.362304688 136.825195312 274.220703125 c 0
 135.295898438 145.793945312 175.591796875 88.9697265625 244.384765625 99.2734375 c 0
 304.474609375 108.2734375 359.831054688 207.456054688 358.065429688 374.440429688 c 0
 356.895507812 484.98828125 320.37890625 537.379882812 261.3046875 528.379882812 c 0
257.44921875 638 m 0
 342.517578125 645.20703125 471.44921875 601 471.44921875 389 c 0
 471.44921875 122.796875 362.37890625 -1 234.44921875 -10 c 0
 96.7890625 -19.6845703125 21.9248046875 87.9912109375 25.44921875 286 c 0
 29.6826171875 523.874023438 163.784179688 630.064453125 257.44921875 638 c 0
EndSplineSet
Validated: 524321
Substitution2: "'dnom' Denominators lookup 0 subtable" zero.dnom
Substitution2: "'numr' Numerators lookup 0 subtable" zero.numr
EndChar

StartChar: one
Encoding: 49 49 28
Width: 258
Flags: HMW
LayerCount: 2
Fore
SplineSet
118 513 m 4
 106.727539062 510 95.13671875 507.377929688 67 508 c 4
 26.9970703125 508.884765625 21.185546875 533.09375 24 554 c 0
 31 606 115 642 160 641 c 0
 205 640 224.739257812 622 227.739257812 531 c 0
 227.94140625 519.846679688 228 507.006835938 228 492 c 0
 228 430 227 430 227 322 c 0
 227 213.92578125 224 35 214 22 c 0
 204 9 194 0 169 0 c 0
 144 0 120 6 118 54 c 0
 116 102 113 593 119 611 c 1
 118.9921875 610.991210938 154.556640625 595.3125 155 586 c 0
 156 565 148.727539062 526 118 513 c 4
EndSplineSet
Validated: 37
Substitution2: "'dnom' Denominators lookup 0 subtable" one.dnom
Substitution2: "'numr' Numerators lookup 0 subtable" one.numr
EndChar

StartChar: two
Encoding: 50 50 29
Width: 466
Flags: HMW
LayerCount: 2
Fore
SplineSet
25.337890625 27 m 0
 26.337890625 83 110.333007812 112.071289062 249.337890625 122 c 0
 403.337890625 133 445.337890625 121 442.337890625 64 c 0
 438.921875 -0.91015625 365.337890625 11 241.337890625 0 c 0
 157.453125 -7.44140625 123.337890625 -12 91.337890625 -12 c 0
 53.6767578125 -12 24.7666015625 -5.0107421875 25.337890625 27 c 0
111.874023438 7 m 0
 67.8740234375 -31 -11.9013671875 8.2412109375 57.8740234375 78 c 0
 172.114257812 192.212890625 310.874023438 348.490234375 310.874023438 463 c 0
 310.874023438 505.305664062 293.52734375 541.495117188 229.681640625 535.509765625 c 0
 165.681640625 529.509765625 147.681640625 475.509765625 119.681640625 453.509765625 c 0
 91.681640625 431.509765625 30.1318359375 443.159179688 50.681640625 518.509765625 c 0
 65.681640625 573.509765625 153.681640625 643.509765625 247.681640625 647.509765625 c 0
 341.788085938 651.514648438 427.681640625 608.215820312 427.681640625 465.509765625 c 0
 427.681640625 295 291.189453125 161.864257812 111.874023438 7 c 0
EndSplineSet
Validated: 37
Substitution2: "'dnom' Denominators lookup 0 subtable" two.dnom
Substitution2: "'numr' Numerators lookup 0 subtable" two.numr
EndChar

StartChar: h
Encoding: 104 104 31
Width: 430
Flags: HMW
AnchorPoint: "Anchor-2" 227 0 basechar 0
AnchorPoint: "Anchor-4" 89 577 basechar 0
AnchorPoint: "Anchor-0" 80 690 basechar 0
LayerCount: 2
Fore
SplineSet
131.798828125 651.239257812 m 0
 138.125 628.381835938 138.916015625 602.407226562 138.916015625 537.98828125 c 0
 138.916015625 473.5703125 138.125 293.5703125 138.125 181.356445312 c 0
 138.125 69.068359375 150 58 138.497070312 24.4208984375 c 0
 133.201856452 8.96322557961 117.497070312 0 87.4970703125 0 c 0
 67.4970703125 0 33.2978515625 6.884765625 31.697265625 59.4931640625 c 0
 30.09765625 112.100585938 28.3203125 642.928710938 33.0654296875 661.630859375 c 0
 37.810546875 680.333007812 62.91796875 692.799804688 80.3154296875 692.799804688 c 0
 97.7119140625 692.799804688 123.818359375 680.07421875 131.798828125 651.239257812 c 0
242.497070312 519 m 0
 307.018554688 529.54296875 345.497070312 505.470703125 376.905273438 441.87109375 c 0
 418.303710938 358.041992188 408.544921875 211.4296875 402.905273438 104.270507812 c 0
 398.104492188 13.0703125 362.504882812 0.2705078125 343.3046875 0.2705078125 c 0
 324.104492188 0.2705078125 288.887695312 5.28515625 294.104492188 62.6708984375 c 0
 295.705078125 80.2705078125 297.3046875 115.87109375 297.3046875 192.670898438 c 0
 297.3046875 357.0703125 292.6953125 419.977539062 235.3046875 407.0703125 c 0
 178.412109375 394.275390625 133.3046875 337.0703125 133.3046875 182.670898438 c 0
 133.3046875 105.87109375 136.225585938 80.3408203125 136.504882812 62.6708984375 c 0
 137.497070312 0 106.504882812 0.2705078125 87.3046875 0.2705078125 c 0
 68.1044921875 0.2705078125 42.50390625 13.0703125 37.7041015625 104.270507812 c 0
 32.064453125 211.4296875 43.0986328125 323.170898438 84.4970703125 407 c 0
 115.905273438 470.599609375 178.979492188 508.62109375 242.497070312 519 c 0
EndSplineSet
Validated: 524325
EndChar

StartChar: three
Encoding: 51 51 32
Width: 484
Flags: HMW
LayerCount: 2
Fore
SplineSet
47.2939453125 569 m 0
 48.2939453125 625 112.2890625 634.071289062 251.293945312 644 c 0
 405.293945312 655 457.293945312 643 454.293945312 586 c 0
 450.877929688 521.08984375 367.293945312 543 243.293945312 532 c 0
 159.409179688 524.55859375 145.293945312 520 113.293945312 520 c 0
 75.6328125 520 46.72265625 536.989257812 47.2939453125 569 c 0
445.84765625 538.05859375 m 0
 421.827148438 492.05859375 388.530273438 450.682617188 346.830078125 410 c 0
 305.830078125 370 275.775390625 351.3203125 238.830078125 322 c 0
 201.884765625 292.6796875 192.264648438 290.908203125 175.234375 311.357421875 c 0
 159.924804688 329.740234375 153.953125 354.150390625 185.904296875 388.684570312 c 0
 227.830078125 434 272.830078125 482 300.830078125 524 c 0
 369.890625 627.58984375 361.803710938 657 426.293945312 634 c 0
 454.741210938 623.854492188 475.09765625 594.073242188 445.84765625 538.05859375 c 0
175.234375 311.357421875 m 0
 167.48046875 325.07421875 212.572265625 353.283203125 224.830078125 360 c 0
 370.830078125 440 453.330078125 348.10546875 453.330078125 252 c 0
 453.330078125 137 404.830078125 0 187.330078125 -10 c 0
 42.359375 -16.6650390625 25.330078125 89 25.330078125 126 c 0
 25.330078125 150.819335938 45.822265625 174 76.830078125 174 c 0
 103.830078125 174 118.330078125 162 120.330078125 132 c 0
 122.607421875 97.841796875 173.340820312 92.7294921875 191.330078125 94 c 0
 301.323242188 101.771484375 341.330078125 162 341.330078125 240 c 0
 341.330078125 282.42578125 315.146484375 303.047851562 273.830078125 302 c 0
 240.823242188 301.163085938 191.830078125 282 175.234375 311.357421875 c 0
EndSplineSet
Validated: 37
Substitution2: "'dnom' Denominators lookup 0 subtable" three.dnom
Substitution2: "'numr' Numerators lookup 0 subtable" three.numr
Substitution2: "'ss08' Style Set 8 in Latin lookup 7-1" three.ss08
EndChar

StartChar: four
Encoding: 52 52 33
Width: 514
Flags: HMW
LayerCount: 2
Fore
SplineSet
22 254 m 0
 51.4400528395 362.66972998 103.095229608 548.21266473 109.969726562 599.669921875 c 0
 116.146659771 645.905747215 148.356445312 658.279296875 174.286132812 651.094726562 c 0
 197.595703125 644.63671875 206.873046875 628.421875 210.44921875 581.869140625 c 0
 214.026367188 535.31640625 169.472112625 347.307278388 117.927734375 219.19921875 c 0
 105.926757812 189.372070312 70.04296875 168.057617188 45.732421875 179.58984375 c 0
 23.8798828125 189.95703125 14.0955910996 224.823082909 22 254 c 0
386.272460938 491 m 0
 394.272460938 469 395.272460938 444 395.272460938 382 c 0
 395.272460938 320 394.272460938 337 394.272460938 322 c 0
 394.272460938 213.92578125 391.272460938 35 381.272460938 22 c 0
 371.272460938 9 361.272460938 0 336.272460938 0 c 0
 311.272460938 0 287.272460938 6 285.272460938 54 c 0
 283.272460938 102 280.272460938 483 286.272460938 501 c 0
 292.272460938 519 305.272460938 531 327.272460938 531 c 0
 349.272460938 531 376.180664062 518.751953125 386.272460938 491 c 0
26.4521484375 214 m 4
 27.4521484375 270 131.447265625 319.071289062 270.452148438 329 c 4
 424.452148438 340 486.452148438 328 483.452148438 271 c 4
 480.036132812 206.08984375 386.452148438 228 262.452148438 217 c 4
 178.567382812 209.55859375 124.73828125 182.458984375 92.4521484375 175 c 4
 55.7578125 166.522460938 25.880859375 181.989257812 26.4521484375 214 c 4
EndSplineSet
Validated: 37
Substitution2: "'dnom' Denominators lookup 0 subtable" four.dnom
Substitution2: "'numr' Numerators lookup 0 subtable" four.numr
EndChar

StartChar: five
Encoding: 53 53 34
Width: 478
Flags: HMW
LayerCount: 2
Fore
SplineSet
83.830078125 584 m 0
 89.830078125 639 121.830078125 638 281.282226562 653 c 0
 385.40234375 662.794921875 457.282226562 652 454.282226562 595 c 0
 450.866210938 530.08984375 347.806640625 547.565429688 273.282226562 541 c 0
 193.830078125 534 170.830078125 528 153.282226562 529 c 0
 115.682617188 531.142578125 80.3583984375 552.172851562 83.830078125 584 c 0
35.09765625 384.41015625 m 0
 64.5380859375 493.080078125 73.92578125 528.212890625 80.7998046875 579.669921875 c 0
 86.9765625 625.905273438 119.186523438 638.278320312 145.116210938 631.094726562 c 0
 168.42578125 624.63671875 190.572265625 616.609375 187.830078125 570 c 0
 184.830078125 519 182.5703125 477.717773438 131.025390625 349.609375 c 0
 119.024414062 319.782226562 83.140625 298.467773438 58.830078125 310 c 0
 36.9775390625 320.3671875 27.193359375 355.233398438 35.09765625 384.41015625 c 0
45.234375 322.357421875 m 0
 37.48046875 336.07421875 72.572265625 379.283203125 84.830078125 386 c 0
 230.830078125 466 453.330078125 438.10546875 453.330078125 272 c 0
 453.330078125 157 404.830078125 0 187.330078125 -10 c 0
 42.359375 -16.6650390625 25.330078125 89 25.330078125 126 c 0
 25.330078125 150.819335938 45.822265625 174 76.830078125 174 c 0
 103.830078125 174 118.330078125 162 120.330078125 132 c 0
 122.607421875 97.841796875 173.340820312 92.7294921875 191.330078125 94 c 0
 301.323242188 101.771484375 341.330078125 182 341.330078125 260 c 0
 341.330078125 372.42578125 185.146484375 314.047851562 143.830078125 313 c 0
 110.823242188 312.163085938 61.830078125 293 45.234375 322.357421875 c 0
EndSplineSet
Validated: 37
Substitution2: "'dnom' Denominators lookup 0 subtable" five.dnom
Substitution2: "'numr' Numerators lookup 0 subtable" five.numr
EndChar

StartChar: six
Encoding: 54 54 35
Width: 492
Flags: HMW
LayerCount: 2
Fore
SplineSet
196.540039062 569.357421875 m 0
 220 594 301.457682356 670.666275963 337 627 c 0
 372 584 293 532 239.2890625 462 c 0
 204.505321531 416.667299043 145.621133392 337.102944666 132.4765625 259 c 0
 115.349609375 157.234375 151 80 243.4765625 92 c 0
 322.031770164 102.193528679 360.704101562 154.919921875 360.90234375 222 c 4
 361.109375 292.177734375 323 314 244 307 c 0
 185.095349338 301.780600574 123.670037793 270.148096313 131 178 c 0
 138 90 107.568330959 174.966662313 77.578125 181.299804688 c 0
 -15.7109375 201 97.751953125 385.997070312 269.2890625 401 c 0
 383.626953125 411 466.205078125 349.243164062 467.287109375 216 c 4
 468.340820312 86.2431640625 382.095703125 0 235.4765625 -10 c 0
 106.588867188 -18.791015625 21.55078125 59.33984375 25.4765625 212 c 0
 28.6392933439 334.987745385 110.884216959 479.383687749 196.540039062 569.357421875 c 0
EndSplineSet
Validated: 524325
Substitution2: "'dnom' Denominators lookup 0 subtable" six.dnom
Substitution2: "'numr' Numerators lookup 0 subtable" six.numr
Substitution2: "'ss03' Style Set 3 in Latin lookup 2-1" six.ss03
Substitution2: "'ss02' Style Set 2 in Latin lookup 1-1" six.ss02
EndChar

StartChar: six.ss02
Encoding: 65537 -1 36
Width: 492
Flags: HW
LayerCount: 2
Fore
SplineSet
313.360351562 647.919921875 m 0
 377.309522432 650.177890433 473.467773438 603.64453125 432 537 c 0
 404 492 357.671420185 538.564759802 298.595703125 537.717773438 c 0
 170.951171875 535.887695312 145.621133392 387.102944666 132.4765625 259 c 0
 121.94290697 156.342233337 151 80 243.4765625 92 c 0
 322.031770164 102.193528679 360.704101562 154.919921875 360.90234375 222 c 0
 361.109375 292.177734375 323 314 244 307 c 0
 185.095349338 301.780600574 123.670037793 270.148096313 131 178 c 0
 138 90 107.568330959 174.966662313 77.578125 181.299804688 c 0
 -15.7109375 201 97.751953125 385.997070312 269.2890625 401 c 0
 383.626953125 411 466.205078125 349.243164062 467.287109375 216 c 0
 468.340820312 86.2431640625 382.095703125 0 235.4765625 -10 c 0
 106.588867188 -18.791015625 22.6850242832 59.3148914298 25.4765625 212 c 0
 28.6392933439 384.987745385 73.6205616555 639.454997304 313.360351562 647.919921875 c 0
EndSplineSet
Validated: 524325
EndChar

StartChar: six.ss03
Encoding: 65538 -1 37
Width: 492
Flags: HW
LayerCount: 2
Fore
SplineSet
196.540039062 569.357421875 m 0
 220 594 301.457682356 670.666275963 337 627 c 0
 372 584 293 532 239.2890625 462 c 0
 204.505321531 416.667299043 145.621133392 337.102944666 132.4765625 259 c 0
 115.349609375 157.234375 151 80 243.4765625 92 c 0
 322.031770164 102.193528679 360.704101562 154.919921875 360.90234375 222 c 0
 361.109375 292.177734375 323 314 244 307 c 0
 185.095349338 301.780600574 152 292 108 253 c 0
 41.9375845396 194.444677206 32.2449868695 251.12793427 45 279 c 0
 72 338 172 399 269.2890625 401 c 0
 384.03917613 403.358951987 466.205078125 349.243164062 467.287109375 216 c 0
 468.340820312 86.2431640625 382.095703125 0 235.4765625 -10 c 0
 106.588867188 -18.791015625 21.55078125 59.33984375 25.4765625 212 c 0
 28.6392933439 334.987745385 110.884216959 479.383687749 196.540039062 569.357421875 c 0
EndSplineSet
Validated: 524325
EndChar

StartChar: seven
Encoding: 55 55 38
Width: 491
Flags: HMW
LayerCount: 2
Fore
SplineSet
36.4287109375 559 m 1
 36.4287109375 559 99.96484375 582 129.96484375 586 c 0
 159.96484375 590 164.999023438 530.870117188 156.96484375 468 c 0
 149.665039062 410.874023438 135.03515625 369.614257812 99.984375 366.767578125 c 0
 64.9345703125 363.920898438 46.1279296875 393.170898438 47.2763671875 433.1796875 c 0
 48.96484375 492 40.3212890625 515 36.4287109375 559 c 1
462.3828125 538.05859375 m 0
 439.3828125 492.05859375 369.8828125 366.290039062 332.87109375 287.943359375 c 0
 295.4375 208.703125 253.392578125 76.5068359375 230.436523438 35.8974609375 c 0
 207.482421875 -4.7099609375 180.04296875 -12.7734375 156.34375 -0.0341796875 c 0
 135.040039062 11.4189453125 129.575195312 29.2822265625 136.379882812 75.474609375 c 0
 143.185546875 121.666015625 198.62109375 269.982421875 252.368164062 381.80078125 c 0
 307.5 496.500976562 399.96484375 648 441.96484375 635 c 0
 471.018554688 626.006835938 490.389648438 594.073242188 462.3828125 538.05859375 c 0
36.4287109375 559 m 0
 37.4287109375 615 121.423828125 634.071289062 260.428710938 644 c 0
 414.428710938 655 476.428710938 643 473.428710938 586 c 0
 470.012695312 521.08984375 376.428710938 543 252.428710938 532 c 0
 168.543945312 524.55859375 134.428710938 520 102.428710938 520 c 0
 64.767578125 520 35.857421875 526.989257812 36.4287109375 559 c 0
EndSplineSet
Validated: 37
Substitution2: "'dnom' Denominators lookup 0 subtable" seven.dnom
Substitution2: "'numr' Numerators lookup 0 subtable" seven.numr
EndChar

StartChar: eight
Encoding: 56 56 39
Width: 502
Flags: HMW
LayerCount: 2
Fore
SplineSet
258.984375 278.501953125 m 0
 192.092773438 266.609375 136.336914062 231.731445312 134.46875 166.0625 c 0
 132.840820312 108.745117188 179.973632812 81.7509765625 262.19921875 92.3447265625 c 0
 336.286132812 101.890625 370.731445312 138.7421875 369.075195312 213.267578125 c 0
 367.978515625 262.606445312 317.163085938 288.846679688 258.984375 278.501953125 c 0
255.306640625 345.87109375 m 0
 354.28125 357.74609375 477.926757812 331.149414062 477.926757812 203.349609375 c 0
 477.926757812 80.3173828125 398.02734375 0 251.819335938 -10 c 0
 96.0947265625 -20.6513671875 21.6689453125 59.697265625 25.46875 148.399414062 c 0
 31.5322265625 289.950195312 150.155273438 333.254882812 255.306640625 345.87109375 c 0
249.7890625 534.845703125 m 0
 187.041015625 522.96875 161.421875 491.40234375 159.666992188 434.139648438 c 0
 158.13671875 384.16015625 203.47265625 361.541992188 263.827148438 372.5234375 c 0
 316.887695312 382.177734375 348.58203125 415.640625 347.024414062 480.625 c 0
 345.994140625 523.649414062 304.473632812 545.197265625 249.7890625 534.845703125 c 0
244.540039062 638.000976562 m 0
 327.997070312 648.000976562 450.422851562 621.80078125 450.422851562 494.600585938 c 0
 450.422851562 394.87890625 401.326171875 317.046875 263.12109375 305.171875 c 0
 114.534179688 292.404296875 50.3505859375 351.998046875 53.998046875 440.80078125 c 0
 59.365234375 571.4765625 156.024414062 627.39453125 244.540039062 638.000976562 c 0
EndSplineSet
Validated: 524325
Substitution2: "'dnom' Denominators lookup 0 subtable" eight.dnom
Substitution2: "'numr' Numerators lookup 0 subtable" eight.numr
EndChar

StartChar: nine
Encoding: 57 57 40
Width: 502
Flags: HMW
LayerCount: 2
Fore
SplineSet
424.028320312 141.5703125 m 0
 408.7890625 80.392578125 379.252929688 -6.1455078125 320.780273438 2.5546875 c 0
 283.516601562 8.099609375 292.978515625 77.955078125 328.998046875 222.556640625 c 0
 343.081054688 279.090820312 354.505859375 302.748046875 360.149414062 381.748046875 c 0
 370.276367188 523.513671875 325.71875 558.4921875 249.149414062 548.748046875 c 0
 170.569335938 538.748046875 127.920898438 485.828125 127.723632812 418.748046875 c 0
 127.516601562 348.5703125 164 317 236.336914062 326.748046875 c 0
 316.610788281 337.565670199 358.552439272 369.897858713 360.149414062 441.748046875 c 0
 363 570 385.057645604 465.781384563 415.047851562 459.448242188 c 0
 508.336914062 439.748046875 384.822265625 242.110351562 223.336914062 229.748046875 c 4
 96 220 26.4208984375 291.504882812 25.3388671875 414.748046875 c 0
 24.199654553 544.50416031 120.530273438 640.748046875 267.149414062 650.748046875 c 0
 396.037109375 659.5390625 471.075195312 581.408203125 467.149414062 398.748046875 c 0
 464.505859375 275.748046875 442.020507812 213.798828125 424.028320312 141.5703125 c 0
EndSplineSet
Validated: 524325
Substitution2: "'dnom' Denominators lookup 0 subtable" nine.dnom
Substitution2: "'numr' Numerators lookup 0 subtable" nine.numr
EndChar

StartChar: period
Encoding: 46 46 41
Width: 198
Flags: HMW
LayerCount: 2
Fore
SplineSet
30.1982421875 69.2998046875 m 4
 27.1123046875 112.071289062 60.4619140625 137.2734375 99.498046875 138.599609375 c 4
 143.170898438 140.083984375 166.48046875 108.671875 168.797851562 69.2998046875 c 4
 171.370117188 25.576171875 144.598632812 2.310546875 99.498046875 0 c 4
 55.2998046875 -2.2646484375 33.8662109375 18.4150390625 30.1982421875 69.2998046875 c 4
EndSplineSet
Validated: 33
Substitution2: "'ss13' Style Set 13 lookup 16-1" period.titl
Substitution2: "'titl' Titling lookup 11-1" period.titl
EndChar

StartChar: e
Encoding: 101 101 42
Width: 394
VWidth: 800
Flags: HMW
AnchorPoint: "Anchor-2" 194 0 basechar 0
AnchorPoint: "Anchor-3" 205 0 basechar 0
AnchorPoint: "Anchor-0" 222 518 basechar 0
LayerCount: 2
Fore
SplineSet
370.658203125 349 m 0
 370.658203125 271 359 230 305 214 c 0
 243.19140625 195.686523438 97.4365776741 192.770841544 74.849609375 196.44140625 c 0
 17.39453125 205.778320312 21.431640625 254.2109375 51.462890625 270.084960938 c 0
 96.0634765625 293.66015625 141.518599456 288.027775656 207.66015625 296 c 0
 233.407371412 299.103382887 251.383411542 302.037543995 261.479562635 303.751744764 c 1
 264 314 265 322 264.66015625 348 c 0
 263.978845301 400.124203199 236 411 211.658203125 408 c 0
 187.416015625 405.012695312 157.107214048 374.240706357 145.658203125 330 c 0
 141 312 132 297 131.658203125 213 c 0
 131.473433461 167.591007336 138.512695312 93.599609375 199.8125 93.599609375 c 0
 238.658203125 93.599609375 264.895507812 106.571289062 294.658203125 128 c 0
 349.134765625 167.22265625 390.305664062 123.598632812 348.458984375 64 c 0
 313.8828125 14.755859375 260.612304688 -12.7998046875 185.412109375 -8 c 0
 110.211914062 -3.2001953125 22.2709145875 47.4716919347 25.412109375 193.599609375 c 0
 27.52734375 292 46.3960189232 348.209196346 63 384 c 0
 108 481 170.148455626 502.802599031 219.412109375 509.400390625 c 0
 286.612304688 518.400390625 370.658203125 473.05078125 370.658203125 349 c 0
EndSplineSet
Validated: 37
EndChar

StartChar: comma
Encoding: 44 44 43
Width: 258
Flags: HMW
LayerCount: 2
Fore
SplineSet
96.16015625 89.1796875 m 0
 116 126 148.904296875 150.126953125 183.916015625 132.8125 c 0
 226 112 213.796875 70.994140625 197.548828125 35.0556640625 c 0
 160 -48 79 -110 40.296875 -76.544921875 c 0
 4.51953125 -45.619140625 65.685546875 32.6220703125 96.16015625 89.1796875 c 0
EndSplineSet
Validated: 33
Substitution2: "'ss13' Style Set 13 lookup 16-1" comma.titl
Substitution2: "'titl' Titling lookup 11-1" comma.titl
EndChar

StartChar: o
Encoding: 111 111 44
Width: 423
VWidth: 800
Flags: HMW
AnchorPoint: "Anchor-2" 203 -17 basechar 0
AnchorPoint: "Anchor-3" 204 0 basechar 0
AnchorPoint: "Anchor-0" 231 518 basechar 0
LayerCount: 2
Fore
SplineSet
220.334960938 405.108398438 m 0
 168.095703125 396.198242188 137.193359375 330.9375 135.91796875 223.961914062 c 4
 134.803710938 130.59375 159.051757812 93.3994140625 209.489257812 101.857421875 c 0
 254.454101562 109.400390625 288.116210938 175.421875 286.984375 296.82421875 c 0
 286.233398438 377.196289062 264.649414062 412.666015625 220.334960938 405.108398438 c 0
219.04296875 510.400390625 m 0
 295.106445312 517.518554688 398.243164062 480.799804688 398.243164062 311.200195312 c 0
 398.243164062 98.2373046875 310.997070312 0.529296875 200.642578125 -8 c 0
 82.6005859375 -17.1240234375 22.365234375 70.3974609375 25.4423828125 228.799804688 c 0
 28.8291015625 403.099609375 136.209960938 502.647460938 219.04296875 510.400390625 c 0
EndSplineSet
Validated: 524321
EndChar

StartChar: w
Encoding: 119 119 45
Width: 437
VWidth: 800
Flags: HMW
AnchorPoint: "Anchor-2" 213.67 0 basechar 0
AnchorPoint: "Anchor-0" 216.67 509 basechar 0
LayerCount: 2
Fore
SplineSet
214.202148438 230.9296875 m 1
 194.849609375 118.400390625 166.05078125 0.03125 113.37890625 0.255859375 c 0
 59.4423828125 0.4853515625 31.2275390625 74.044921875 11.232421875 372.887695312 c 0
 4.2822265625 476.765625 27.94140625 502.145507812 51.828125 504.470703125 c 0
 75.7158203125 506.795898438 109.482421875 476.51953125 117.247070312 389.298828125 c 0
 128.790039062 259.65234375 124.59765625 177.168945312 124.3125 177.323242188 c 1
 124.3125 177.323242188 137.25 256 139.650390625 291.200195312 c 0
 144.177734375 357.58203125 167.56640625 414.870117188 213.828125 414.870117188 c 0
 258.326171875 414.870117188 280.969726562 350.641601562 288.450195312 284.799804688 c 0
 292.450195312 249.599609375 308.041015625 177.864257812 308.041015625 177.864257812 c 1
 307.520507812 177.864257812 304.182617188 256.202148438 320.883789062 390.854492188 c 0
 331.661132812 477.755859375 365.61328125 507.447265625 389.427734375 504.470703125 c 0
 413.243164062 501.494140625 433.780273438 475.951171875 426.41796875 372.100585938 c 0
 405.307617188 74.318359375 358.102539062 1.48828125 306.05078125 0 c 0
 252.67578125 -1.5263671875 225.25 126.400390625 214.202148438 230.9296875 c 1
EndSplineSet
Validated: 524325
EndChar

StartChar: exclam
Encoding: 33 33 46
Width: 218
Flags: HMW
LayerCount: 2
Fore
SplineSet
39.71484375 69.2998046875 m 0
 36.62890625 112.071289062 69.978515625 137.2734375 109.014648438 138.599609375 c 0
 152.6875 140.083984375 175.997070312 108.671875 178.314453125 69.2998046875 c 0
 180.88671875 25.576171875 154.115234375 2.310546875 109.014648438 0 c 0
 64.81640625 -2.2646484375 43.3828125 18.4150390625 39.71484375 69.2998046875 c 0
156.272460938 601 m 4
 164.272460938 579 165.272460938 554 165.272460938 492 c 4
 165.272460938 430 164.272460938 390 164.272460938 362 c 4
 164.272460938 283.92578125 161.272460938 225 151.272460938 212 c 4
 141.272460938 199 131.272460938 190 106.272460938 190 c 4
 81.2724609375 190 57.2724609375 196 55.2724609375 244 c 4
 53.2724609375 292 50.2724609375 593 56.2724609375 611 c 4
 62.2724609375 629 75.2724609375 641 97.2724609375 641 c 4
 119.272460938 641 146.180664062 628.751953125 156.272460938 601 c 4
EndSplineSet
Validated: 33
Substitution2: "'ss13' Style Set 13 lookup 16-1" exclam.titl
Substitution2: "'titl' Titling lookup 11-1" exclam.titl
EndChar

StartChar: question
Encoding: 63 63 47
Width: 444
Flags: HMW
LayerCount: 2
Fore
SplineSet
408.8125 495.509765625 m 0
 408.8125 430.709287773 368.422540083 369.821599311 302 328 c 0
 248 294 243.540939363 284.967788275 246 253 c 0
 247 240 249.488544775 223.961815917 245 209 c 0
 242 199 234.999969556 193.000111624 224 190 c 0
 183.28515625 178.895507812 144.408218225 200.743715504 134 249 c 0
 123 300 145.595524762 350.383583481 191 377 c 0
 249 411 292.004882812 442.470703125 292.004882812 483 c 0
 292.004882812 515.305664062 274.657226562 541.495117188 210.8125 535.509765625 c 0
 146.8125 529.509765625 128.8125 475.509765625 100.8125 453.509765625 c 0
 72.8125 431.509765625 11.2626953125 443.159179688 31.8125 518.509765625 c 0
 46.8125 573.509765625 134.8125 643.509765625 228.8125 647.509765625 c 0
 322.918945312 651.514648438 408.8125 608.215820312 408.8125 495.509765625 c 0
126.71875 69.2998046875 m 0
 123.6328125 112.071289062 156.982421875 137.2734375 196.018554688 138.599609375 c 0
 239.69140625 140.083984375 263.000976562 108.671875 265.318359375 69.2998046875 c 0
 267.890625 25.576171875 241.119140625 2.310546875 196.018554688 0 c 0
 151.8203125 -2.2646484375 130.38671875 18.4150390625 126.71875 69.2998046875 c 0
EndSplineSet
Validated: 524321
Substitution2: "'ss13' Style Set 13 lookup 16-1" question.titl
Substitution2: "'titl' Titling lookup 11-1" question.titl
EndChar

StartChar: hyphen
Encoding: 45 45 48
Width: 386
Flags: HMW
LayerCount: 2
Fore
SplineSet
217.0078125 294 m 4
 262.551757812 300.461914062 291.0078125 306 326.0078125 293 c 4
 363.994140625 278.890625 364.526367188 226.362304688 337.0078125 210 c 4
 300.0078125 188 276.0234375 188.817382812 205.8671875 178.86328125 c 4
 160.323242188 172.401367188 123.60546875 158.528320312 74.908203125 166.44140625 c 4
 17.453125 175.778320312 21.490234375 234.2109375 51.521484375 250.084960938 c 4
 96.1220703125 273.66015625 146.8515625 284.045898438 217.0078125 294 c 4
EndSplineSet
Validated: 524321
EndChar

StartChar: plus
Encoding: 43 43 49
Width: 386
Flags: HMW
LayerCount: 2
Fore
SplineSet
217.0078125 364 m 0
 262.551757812 370.461914062 291.0078125 376 326.0078125 363 c 0
 363.994140625 348.890625 364.526367188 296.362304688 337.0078125 280 c 0
 300.0078125 258 276.0234375 258.817382812 205.8671875 248.86328125 c 0
 160.323242188 242.401367188 123.60546875 228.528320312 74.908203125 236.44140625 c 0
 17.453125 245.778320312 21.490234375 304.2109375 51.521484375 320.084960938 c 0
 96.1220703125 343.66015625 146.8515625 354.045898438 217.0078125 364 c 0
240.404296875 444.342773438 m 4
 248.404296875 425.971679688 249.404296875 392.521484375 249.404296875 355.409179688 c 4
 249.404296875 318.297851562 248.404296875 294.354492188 248.404296875 277.594726562 c 4
 248.404296875 230.861328125 245.404296875 176.9296875 235.404296875 162.592773438 c 4
 225.404296875 148.255859375 215.404296875 138.328125 190.404296875 138.328125 c 4
 165.404296875 138.328125 141.404296875 144.946289062 139.404296875 197.883789062 c 4
 137.404296875 250.822265625 134.404296875 437.663085938 140.404296875 452.692382812 c 4
 146.404296875 467.72265625 159.404296875 477.744140625 181.404296875 477.744140625 c 4
 203.404296875 477.744140625 230.3125 467.516601562 240.404296875 444.342773438 c 4
EndSplineSet
Validated: 524325
EndChar

StartChar: quotedbl
Encoding: 34 34 50
Width: 322
Flags: HMW
LayerCount: 2
Fore
SplineSet
283.544921875 464.430664062 m 0
 273.454101562 449.197265625 257 442 235 442 c 0
 213 442 193 451 183 465 c 0
 176.282226562 474.404296875 180.600585938 580.536132812 182.544921875 620.834960938 c 0
 184 651 205 665 230 665 c 0
 255 665 271.155273438 651.551757812 279 639 c 0
 289 623 291.544921875 602.154296875 291.544921875 572.88671875 c 0
 291.544921875 555.22265625 292.544921875 534.137695312 292.544921875 522.890625 c 0
 292.544921875 498.49609375 291.544921875 476.5078125 283.544921875 464.430664062 c 0
128 646 m 0
 136 633.922851562 142.544921875 608.50390625 142.544921875 584.109375 c 0
 142.544921875 572.862304688 141.544921875 551.77734375 141.544921875 534.11328125 c 0
 141.544921875 504.845703125 138.545408312 470.215374555 128.544921875 459.302734375 c 0
 118.544921875 448.390625 102 438 77 438 c 0
 52 438 34.5448735245 445.870114788 32.544921875 486.165039062 c 0
 30.544921875 526.4609375 29 632.122070312 35 642 c 0
 41 651.881835938 52.544921875 664.525390625 74.544921875 664.525390625 c 0
 96.544921875 664.525390625 117.908203125 661.232421875 128 646 c 0
EndSplineSet
Validated: 33
EndChar

StartChar: quotesingle
Encoding: 39 39 51
Width: 172
Flags: HMW
LayerCount: 2
Fore
SplineSet
133.544921875 642.569335938 m 0
 141.544921875 630.4921875 142.544921875 608.50390625 142.544921875 584.109375 c 0
 142.544921875 572.862304688 141.544921875 551.77734375 141.544921875 534.11328125 c 0
 141.544921875 504.845703125 138.544921875 470.215820312 128.544921875 459.302734375 c 0
 118.544921875 448.390625 108.544921875 440.833984375 83.544921875 440.833984375 c 0
 58.544921875 440.833984375 34.544921875 445.870117188 32.544921875 486.165039062 c 0
 30.544921875 526.4609375 27.544921875 638.178710938 33.544921875 648.056640625 c 0
 39.544921875 657.938476562 52.544921875 664.525390625 74.544921875 664.525390625 c 0
 96.544921875 664.525390625 123.453125 657.801757812 133.544921875 642.569335938 c 0
EndSplineSet
Validated: 33
EndChar

StartChar: colon
Encoding: 58 58 52
Width: 198
Flags: HMW
LayerCount: 2
Fore
SplineSet
30.1982421875 359.299804688 m 4
 29 402 60.4758711517 426.91194868 99.498046875 428.599609375 c 4
 155 431 171.010007118 398.422557721 168.797851562 359.299804688 c 4
 166.423281276 317.30468974 148.8828125 292.822265625 106 290 c 4
 54.1865234375 286.590820312 31.6280979543 308.345898084 30.1982421875 359.299804688 c 4
30.1982421875 69.2998046875 m 0
 27.1123046875 112.071289062 60.4619140625 137.2734375 99.498046875 138.599609375 c 0
 143.170898438 140.083984375 166.48046875 108.671875 168.797851562 69.2998046875 c 0
 171.370117188 25.576171875 144.598632812 2.310546875 99.498046875 0 c 0
 55.2998046875 -2.2646484375 33.8662109375 18.4150390625 30.1982421875 69.2998046875 c 0
EndSplineSet
Validated: 33
EndChar

StartChar: semicolon
Encoding: 59 59 53
Width: 198
Flags: MW
LayerCount: 2
Fore
SplineSet
30.1982421875 359.299804688 m 0
 33.769662175 406.230174161 61 424 96 426 c 0
 151.462890625 429.168945312 166 402 168.797851562 359.299804688 c 0
 171.548002076 317.327612278 146 292 106 290 c 0
 54.139272835 287.406963642 26.3302869907 308.472803908 30.1982421875 359.299804688 c 0
36.16015625 89.1796875 m 0
 60.6125769211 123.112473061 94.5458984375 162.16015625 128 142 c 0
 176.947265625 112.50390625 154.2907874 70.3691824372 137.548828125 35.0556640625 c 0
 98.5015196966 -47.3061324874 7 -106 -27 -64 c 0
 -56.7553042705 -27.2434476658 0 39 36.16015625 89.1796875 c 0
EndSplineSet
Validated: 33
EndChar

StartChar: dollar
Encoding: 36 36 54
Width: 477
Flags: HMW
LayerCount: 2
Fore
SplineSet
247 65 m 4
 255 46.62890625 258.009765625 22.04296875 259 15 c 4
 260 7.888671875 261 -9.9736328125 261 -26.7333984375 c 4
 261 -43.466796875 257.598632812 -67.1259765625 248 -81.7353515625 c 4
 236 -100 218 -110 193 -110 c 4
 168 -110 152 -98 152 -46.4443359375 c 4
 152 6.5322265625 147 53.3349609375 153 68.3642578125 c 4
 159 83.39453125 172 93.416015625 194 93.416015625 c 4
 216 93.416015625 236.908203125 88.173828125 247 65 c 4
291 721.93359375 m 4
 299 703.5625 300 680.112304688 300 673 c 4
 300 665.888671875 299 651.9453125 299 635.185546875 c 4
 299 618.452148438 296 594.520507812 286 580.18359375 c 4
 276 565.846679688 266 555.918945312 241 555.918945312 c 4
 216 555.918945312 192 562.537109375 190 615.474609375 c 4
 188 668.413085938 185 715.25390625 191 730.283203125 c 4
 197 745.313476562 210 755.334960938 232 755.334960938 c 4
 254 755.334960938 280.908203125 745.107421875 291 721.93359375 c 4
234.330078125 555 m 0
 167.330078125 555 130.330078125 501 130.330078125 450 c 0
 130.330078125 409.74609375 148.208984375 383 174.330078125 383 c 0
 201.330078125 383 266.330078125 405 304.330078125 405 c 0
 392.330078125 405 444.330078125 352.10546875 444.330078125 266 c 0
 444.330078125 164 432.625959811 0.570991189938 188.330078125 -10 c 0
 119 -13 73.3544921875 25.98046875 45.4140625 50.236328125 c 0
 26.671875 66.5068359375 17.6015625 102.177734375 37.9287109375 125.592773438 c 0
 55.62890625 145.981445312 85.751953125 151.616210938 109.717773438 133.459960938 c 0
 137.004882812 112.786132812 164.33203125 92.7275390625 202.330078125 94 c 0
 312.497950219 97.6892505098 340.330078125 162 340.330078125 240 c 0
 340.330078125 288 325.330078125 309 285.330078125 309 c 0
 241.29296875 309 190.330078125 280 142.330078125 280 c 0
 74.330078125 280 25.330078125 347 25.330078125 427 c 0
 25.330078125 597 172.330078125 655 238.330078125 655 c 0
 284.330078125 655 336 644 368.1328125 619.984375 c 0
 405.118164062 592.342773438 425.626953125 556.502929688 405 529 c 0
 387 505 359 504 336.6015625 515.836914062 c 0
 301.541015625 534.365234375 267.390625 555 234.330078125 555 c 0
EndSplineSet
Validated: 524325
EndChar

StartChar: S.ss04
Encoding: 65539 -1 55
Width: 507
Flags: HW
AnchorPoint: "Anchor-2" 240 -20 basechar 0
AnchorPoint: "Anchor-0" 241 660 basechar 0
LayerCount: 2
Fore
SplineSet
254.330078125 555 m 0
 187.330078125 555 130.330078125 501 130.330078125 450 c 0
 130.330078125 409.74609375 148.208984375 383 174.330078125 383 c 0
 241.330078125 383 256.330078125 405 334.330078125 405 c 0
 422.330078125 405 474.330078125 352.10546875 474.330078125 266 c 0
 474.330078125 164 452.716797515 -1.79268423853 208.330078125 -10 c 0
 119 -13 73.3544921875 25.98046875 45.4140625 50.236328125 c 0
 26.671875 66.5068359375 17.6015625 102.177734375 37.9287109375 125.592773438 c 0
 55.62890625 145.981445312 85.751953125 151.616210938 109.717773438 133.459960938 c 0
 137.004882812 112.786132812 164.33203125 92.7275390625 222.330078125 94 c 0
 332.533203125 96.4169921875 370.330078125 162 370.330078125 240 c 0
 370.330078125 288 345.330078125 309 305.330078125 309 c 0
 241.29296875 309 210.330078125 280 142.330078125 280 c 0
 74.330078125 280 25.330078125 347 25.330078125 427 c 0
 25.330078125 597 212.330078125 655 278.330078125 655 c 0
 344.330078125 655 399.830078125 617 401.830078125 534 c 0
 402.942382812 487.83984375 388.330078125 465 352.330078125 465 c 0
 336.330078125 465 301.830078125 476 300.830078125 502 c 0
 299.2109375 544.1015625 287.390625 555 254.330078125 555 c 0
EndSplineSet
Validated: 524321
EndChar

StartChar: a
Encoding: 97 97 56
Width: 445
VWidth: 800
Flags: HMW
AnchorPoint: "Anchor-2" 202 -15 basechar 0
AnchorPoint: "Anchor-3" 354 10 basechar 0
AnchorPoint: "Anchor-0" 237 516 basechar 0
LayerCount: 2
Fore
SplineSet
408.48828125 471.239257812 m 0
 414.814453125 448.381835938 415.60546875 422.407226562 415.60546875 357.98828125 c 0
 415.60546875 293.5703125 414.814453125 293.5703125 414.814453125 181.356445312 c 0
 414.814453125 69.068359375 413.186523438 38.6689453125 405.186523438 24.4208984375 c 0
 397.186523438 10.173828125 384.186523438 0 364.186523438 0 c 0
 344.186523438 0 309.987304688 6.884765625 308.38671875 59.4931640625 c 0
 306.787109375 112.100585938 305.009765625 462.928710938 309.754882812 481.630859375 c 0
 314.5 500.333007812 339.607421875 512.799804688 357.004882812 512.799804688 c 0
 374.401367188 512.799804688 400.5078125 500.07421875 408.48828125 471.239257812 c 0
227.909179688 395.049804688 m 4
 175.7578125 386.155273438 139.916992188 331.004882812 138.643554688 224.2109375 c 4
 137.530273438 131.000976562 166.729492188 93.8701171875 217.081054688 102.313476562 c 4
 261.969726562 109.84375 300.56640625 175.752929688 299.436523438 296.950195312 c 4
 298.6875 377.185546875 272.147460938 402.594726562 227.909179688 395.049804688 c 4
219.04296875 500.400390625 m 0
 295.106445312 507.518554688 378.243164062 480.799804688 378.243164062 311.200195312 c 0
 378.243164062 98.2373046875 310.997070312 0.529296875 200.642578125 -8 c 0
 82.6005859375 -17.1240234375 22.365234375 70.3974609375 25.4423828125 228.799804688 c 0
 28.8291015625 403.099609375 136.209960938 492.647460938 219.04296875 500.400390625 c 0
EndSplineSet
Validated: 524325
EndChar

StartChar: b
Encoding: 98 98 57
Width: 434
VWidth: 800
Flags: HMW
AnchorPoint: "Anchor-2" 212.03 -20 basechar 0
AnchorPoint: "Anchor-0" 92.0312 691 basechar 0
LayerCount: 2
Fore
SplineSet
229.752929688 395.049804688 m 0
 177.6015625 386.155273438 141.760742188 331.004882812 140.487304688 224.2109375 c 0
 139.374023438 131.000976562 168.573242188 93.8701171875 218.924804688 102.313476562 c 0
 263.813476562 109.84375 302.41015625 175.752929688 301.280273438 296.950195312 c 0
 300.53125 377.185546875 273.991210938 402.594726562 229.752929688 395.049804688 c 0
229.88671875 500.400390625 m 0
 305.950195312 507.518554688 409.086914062 480.799804688 409.086914062 311.200195312 c 0
 409.086914062 98.2373046875 321.840820312 0.529296875 211.486328125 -8 c 0
 93.4443359375 -17.1240234375 53.208984375 70.3974609375 56.2861328125 228.799804688 c 0
 59.6728515625 403.099609375 147.053710938 492.647460938 229.88671875 500.400390625 c 0
135.030273438 651 m 0
 140.938476562 628.348632812 140.03125 600 140.03125 538 c 0
 140.03125 476 139.03125 420 139.03125 312 c 0
 139.03125 203.92578125 138.482421875 105 124.482421875 55 c 0
 115.956054688 24.548828125 96.482421875 0 71.482421875 0 c 0
 46.482421875 0 30.482421875 18 30.03125 50 c 0
 29.353515625 98.037109375 40.03125 639 46.03125 657 c 0
 52.03125 675 70.03125 687 92.03125 687 c 0
 114.03125 687 129.030273438 674 135.030273438 651 c 0
EndSplineSet
Validated: 524325
EndChar

StartChar: c
Encoding: 99 99 58
Width: 391
VWidth: 800
Flags: HMW
AnchorPoint: "Anchor-0" 249 526 basechar 0
AnchorPoint: "Anchor-2" 185 -11 basechar 0
LayerCount: 2
Fore
SplineSet
269.658203125 342 m 0
 270.379882812 357.997070312 271.194335938 410.094726562 249.8125 415 c 0
 223.658203125 421 197.658203125 402 178.658203125 364 c 0
 161.853515625 330.390625 140.921875 286.376953125 136.01171875 207.200195312 c 0
 131.658203125 137 148.512695312 98.599609375 199.8125 98.599609375 c 0
 238.658203125 98.599609375 264.895507812 111.571289062 294.658203125 133 c 0
 349.134765625 172.22265625 390.305664062 123.598632812 348.458984375 64 c 0
 313.8828125 14.755859375 260.612304688 -12.7998046875 185.412109375 -8 c 0
 110.211914062 -3.2001953125 22.271484375 47.4716796875 25.412109375 193.599609375 c 0
 27.52734375 292 54.7265625 362.400390625 94.2119140625 420 c 0
 143.646484375 492.114257812 199.708984375 518.400390625 249.412109375 518.400390625 c 0
 316.612304688 518.400390625 356.612304688 470.400390625 358.211914062 395.200195312 c 0
 359.8125 320 323.099609375 303.783203125 308.612304688 304 c 0
 285.243164062 304.349609375 268.3046875 312 269.658203125 342 c 0
EndSplineSet
Validated: 33
Substitution2: "'ss01' Style Set 1 in Latin lookup 0-1" c.ss01
EndChar

StartChar: d
Encoding: 100 100 59
Width: 457
VWidth: 800
Flags: HMW
AnchorPoint: "Anchor-2" 207 -20 basechar 0
AnchorPoint: "Anchor-4" 380 577 basechar 0
AnchorPoint: "Anchor-0" 376 696 basechar 0
LayerCount: 2
Fore
SplineSet
227.909179688 395.049804688 m 0
 175.7578125 386.155273438 139.916992188 331.004882812 138.643554688 224.2109375 c 0
 137.530273438 131.000976562 166.729492188 93.8701171875 217.081054688 102.313476562 c 0
 261.969726562 109.84375 300.56640625 175.752929688 299.436523438 296.950195312 c 0
 298.6875 377.185546875 272.147460938 402.594726562 227.909179688 395.049804688 c 0
219.04296875 500.400390625 m 0
 295.106445312 507.518554688 378.243164062 480.799804688 378.243164062 311.200195312 c 0
 378.243164062 98.2373046875 310.997070312 0.529296875 200.642578125 -8 c 0
 82.6005859375 -17.1240234375 22.365234375 70.3974609375 25.4423828125 228.799804688 c 0
 28.8291015625 403.099609375 136.209960938 492.647460938 219.04296875 500.400390625 c 0
325.987304688 658 m 0
 339.987304688 690 384.821289062 702.166015625 411.987304688 675 c 0
 432.987304688 654 425.987304688 436 425.987304688 362 c 0
 425.987304688 288 416.987304688 147.602539062 416.987304688 134 c 0
 416.987304688 106 414.59765625 68.8310546875 402.987304688 34 c 0
 396.987304688 16 382.975585938 0.6982421875 362.987304688 0 c 0
 343.190429688 -0.69140625 322.987304688 21 321.987304688 54 c 0
 318.987304688 102 321.389648438 233.993164062 321.396484375 312 c 0
 321.396484375 390 317.022460938 637.508789062 325.987304688 658 c 0
EndSplineSet
Validated: 524325
EndChar

StartChar: f
Encoding: 102 102 60
Width: 380
Flags: HMW
AnchorPoint: "Anchor-0" 285 681 basechar 0
LayerCount: 2
Fore
SplineSet
217.998046875 455 m 0
 263.541992188 461.461914062 291.998046875 471 326.998046875 458 c 0
 364.984375 443.890625 365.516601562 391.362304688 337.998046875 375 c 0
 300.998046875 353 287.013671875 349.817382812 216.857421875 339.86328125 c 0
 171.313476562 333.401367188 124.595703125 323.528320312 75.8984375 331.44140625 c 0
 18.443359375 340.778320312 22.48046875 399.2109375 52.51171875 415.084960938 c 0
 97.1123046875 438.66015625 147.841796875 445.045898438 217.998046875 455 c 0
214.2890625 155 m 0
 217.01953125 84.4658203125 215.2890625 47 211.142578125 32.0478515625 c 0
 204.79296875 9.1533203125 188.142578125 0.0478515625 163.142578125 0.0478515625 c 0
 138.142578125 0.0478515625 115.109375 6.09765625 112.142578125 54.0478515625 c 0
 110.2890625 84 102.0078125 383.702148438 111.379882812 488.571289062 c 0
 119.998046875 585 156.607421875 646.607421875 241.317382812 662.455078125 c 0
 274.91015625 668.739257812 290.927734375 670.561523438 326.846679688 662.866210938 c 0
 369.223632812 653.78515625 366.24609375 606.959960938 344.095703125 591.522460938 c 4
 311.200195312 568.595703125 286.729492188 567.29296875 255.750976562 563.40234375 c 4
 224.928710938 559.532226562 213.198242188 516.583007812 211.998046875 430 c 0
 210.909179688 351.453125 210.998046875 240 214.2890625 155 c 0
EndSplineSet
Validated: 524325
EndChar

StartChar: g
Encoding: 103 103 61
Width: 459
VWidth: 800
Flags: HMW
AnchorPoint: "Anchor-0" 237 516 basechar 0
LayerCount: 2
Fore
SplineSet
321.215820312 400 m 0
 325.215820312 446 341.98046875 535.15234375 397.215820312 492 c 0
 429.215820312 467 426.091796875 351.609375 424.16796875 232 c 0
 423.34375 180.803710938 424.801121968 114.247963825 419.336914062 54 c 0
 408 -71 347.577148438 -156.499023438 234 -168 c 0
 155.000396722 -175.9996073 31.5947265625 -150.2890625 43 -88 c 0
 56 -17 136 -80 217 -67 c 0
 258.656951814 -60.3143163755 295 -45 305.634765625 47 c 0
 315.670898438 133.823242188 312.40234375 198.293945312 313.215820312 228 c 0
 315.215820312 301 317.215820312 354 321.215820312 400 c 0
230.938476562 395.049804688 m 0
 178.787109375 386.155273438 143.296875 331 141.672851562 244.2109375 c 0
 140.302734375 171.004882812 169.758789062 133.870117188 220.110351562 142.313476562 c 0
 264.999023438 149.84375 303.595703125 195.752929688 302.465820312 296.950195312 c 0
 301.569335938 377.18359375 275.176757812 402.594726562 230.938476562 395.049804688 c 0
219.072265625 500.400390625 m 0
 295.135742188 507.518554688 378.272460938 480.799804688 378.272460938 311.200195312 c 0
 378.272460938 118.237304688 311.026367188 40.529296875 200.671875 32 c 0
 82.6298828125 22.8759765625 21.99609375 110.407226562 25.4716796875 248.799804688 c 0
 29.3466796875 403.08984375 136.239257812 492.647460938 219.072265625 500.400390625 c 0
EndSplineSet
Validated: 524325
EndChar

StartChar: i
Encoding: 105 105 62
Width: 198
VWidth: 800
Flags: HMW
AnchorPoint: "Anchor-2" 101.01 -8 basechar 0
AnchorPoint: "Anchor-3" 101.01 20 basechar 0
LayerCount: 2
Fore
SplineSet
30.1982421875 608.299804688 m 0
 27.1123046875 651.071289062 60.4619140625 676.2734375 99.498046875 677.599609375 c 0
 143.170898438 679.083984375 166.48046875 647.671875 168.797851562 608.299804688 c 0
 171.370117188 564.576171875 144.598632812 541.310546875 99.498046875 539 c 0
 55.2998046875 536.735351562 33.8662109375 557.415039062 30.1982421875 608.299804688 c 0
154.301757812 471.239257812 m 4
 160.627929688 448.381835938 161.418945312 422.407226562 161.418945312 357.98828125 c 4
 161.418945312 293.5703125 160.627929688 293.5703125 160.627929688 181.356445312 c 4
 160.627929688 69.068359375 159 38.6689453125 151 24.4208984375 c 4
 143 10.173828125 120 0 100 0 c 4
 80 0 45.80078125 6.884765625 44.2001953125 59.4931640625 c 4
 42.6005859375 112.100585938 40.8232421875 462.928710938 45.568359375 481.630859375 c 4
 50.3134765625 500.333007812 75.4208984375 512.799804688 92.818359375 512.799804688 c 4
 110.21484375 512.799804688 146.321289062 500.07421875 154.301757812 471.239257812 c 4
EndSplineSet
Validated: 524321
EndChar

StartChar: j
Encoding: 106 106 63
Width: 202
VWidth: 800
Flags: HMW
LayerCount: 2
Fore
SplineSet
30.1923828125 608.299804688 m 4
 27.1064453125 651.071289062 60.4560546875 676.2734375 99.4921875 677.599609375 c 4
 143.165039062 679.083984375 166.474609375 647.671875 168.791992188 608.299804688 c 4
 171.364257812 564.576171875 144.592773438 541.310546875 99.4921875 539 c 4
 55.2939453125 536.735351562 33.8603515625 557.415039062 30.1923828125 608.299804688 c 4
160.815429688 362.618164062 m 4
 171.551757812 175.940429688 185.223632812 46.5576171875 150.994140625 -29 c 4
 114.515625 -109.521484375 58.724609375 -133.771484375 6.4052734375 -140 c 4
 -77.5947265625 -150 -114.005859375 -106 -120.005859375 -74 c 4
 -126.005859375 -42 -107.005859375 -16 -71.005859375 -16 c 4
 -37.9453125 -16 -33.005859375 -32 4.4052734375 -25 c 4
 30.7060546875 -20.0791015625 56.814453125 -6.2626953125 59.9443359375 73.267578125 c 4
 65.994140625 227 43.0185546875 468.197265625 46.6025390625 480.6328125 c 4
 51.806640625 498.685546875 64.2724609375 510.801757812 86.2646484375 511 c 4
 108.256835938 511.198242188 135.696289062 499.192382812 147.008789062 471.532226562 c 4
 155.9765625 449.60546875 157.251953125 424.573242188 160.815429688 362.618164062 c 4
EndSplineSet
Validated: 524321
EndChar

StartChar: k
Encoding: 107 107 64
Width: 409
Flags: HMW
AnchorPoint: "Anchor-2" 195.498 0 basechar 0
AnchorPoint: "Anchor-0" 74.498 678 basechar 0
LayerCount: 2
Fore
SplineSet
166.783203125 267.419921875 m 0
 199.145507812 295.662109375 233.989257812 272.440429688 247.640625 244.646484375 c 0
 273.498046875 192 339.045898438 126.219726562 371.498046875 92 c 0
 406.3203125 55.2802734375 386.498046875 15 358.498046875 0 c 0
 330.498046875 -15 299.505859375 5.0068359375 268.498046875 41 c 0
 243.435546875 70.091796875 203.077148438 126.677734375 185.033203125 159.603515625 c 0
 169.436523438 188.0625 135.022460938 239.702148438 166.783203125 267.419921875 c 0
65.111328125 133.305664062 m 0
 53.705078125 158.5625 64.435546875 188.764648438 86.498046875 201 c 0
 200.020507812 263.956054688 264.21484375 426.677734375 283.85546875 467.709960938 c 0
 304.373046875 510.573242188 349.133789062 508.932617188 371.501953125 489.201171875 c 0
 393.870117188 469.470703125 395.508789062 432.139648438 374.102539062 385.044921875 c 0
 358.767578125 351.307617188 237.025390625 174.04296875 153.10546875 137.37890625 c 0
 122.154296875 123.856445312 79.248046875 102.00390625 65.111328125 133.305664062 c 0
133.544921875 637 m 4
 141.544921875 615 142.544921875 590 142.544921875 528 c 4
 142.544921875 466 141.544921875 440 141.544921875 332 c 4
 141.544921875 223.92578125 138.544921875 35 128.544921875 22 c 4
 118.544921875 9 108.544921875 0 83.544921875 0 c 4
 58.544921875 0 34.544921875 6 32.544921875 54 c 4
 30.544921875 102 27.544921875 629 33.544921875 647 c 4
 39.544921875 665 52.544921875 677 74.544921875 677 c 4
 96.544921875 677 123.453125 664.751953125 133.544921875 637 c 4
EndSplineSet
Validated: 524325
Substitution2: "'ss07' Style Set 7 in Latin lookup 6-1" k.ss07
EndChar

StartChar: l
Encoding: 108 108 65
Width: 180
VWidth: 800
Flags: HMW
AnchorPoint: "Anchor-4" 190.03 327 basechar 0
AnchorPoint: "Anchor-1" 189.03 667 basechar 0
AnchorPoint: "Anchor-2" 71.0303 -2 basechar 0
AnchorPoint: "Anchor-0" 92.0303 697 basechar 0
LayerCount: 2
Fore
SplineSet
145.030273438 651 m 0
 150.938476562 628.348632812 150.03125 600 150.03125 538 c 0
 150.03125 476 149.03125 420 149.03125 312 c 0
 149.03125 203.92578125 151.05539132 104.20707961 134.482421875 55 c 0
 120 12 96.482421875 0 71.482421875 0 c 0
 46.482421875 0 30.482421875 18 30.03125 50 c 0
 29.353515625 98.037109375 40.03125 639 46.03125 657 c 0
 52.03125 675 70.03125 687 92.03125 687 c 0
 114.03125 687 139.030273438 674 145.030273438 651 c 0
EndSplineSet
Validated: 524321
EndChar

StartChar: m
Encoding: 109 109 66
Width: 704
Flags: HMW
AnchorPoint: "Anchor-2" 342.497 0 basechar 0
AnchorPoint: "Anchor-0" 368.497 516 basechar 0
LayerCount: 2
Fore
SplineSet
500.497070312 518 m 0
 565.018554688 528.54296875 615.497070312 505.470703125 646.905273438 441.87109375 c 0
 688.303710938 358.041992188 678.544921875 211.4296875 672.905273438 104.270507812 c 0
 668.104492188 13.0703125 622.504882812 0.2705078125 593.3046875 0.2705078125 c 0
 574.104492188 0.2705078125 553.887695312 5.28515625 559.104492188 62.6708984375 c 0
 560.705078125 80.2705078125 562.3046875 115.87109375 562.3046875 192.670898438 c 0
 562.3046875 327.0703125 562.6953125 419.977539062 505.3046875 407.0703125 c 0
 448.412109375 394.275390625 414.497070312 326.399414062 414.497070312 182 c 0
 414.497070312 105.200195312 410.192382812 87.7294921875 408.192382812 71.7294921875 c 0
 400.41796875 9.53515625 362.200195312 0 343 0 c 0
 323.799804688 0 312.19921875 12.7998046875 307.399414062 104 c 0
 301.759765625 211.159179688 313.098632812 303.170898438 354.497070312 387 c 0
 385.905273438 450.599609375 436.979492188 507.62109375 500.497070312 518 c 0
131.798828125 461.239257812 m 0
 138.125 438.381835938 138.916015625 412.407226562 138.916015625 347.98828125 c 0
 138.916015625 283.5703125 138.125 293.5703125 138.125 181.356445312 c 0
 138.125 69.068359375 136.497070312 38.6689453125 128.497070312 24.4208984375 c 0
 120.497070312 10.173828125 107.497070312 0 87.4970703125 0 c 0
 67.4970703125 0 33.2978515625 6.884765625 31.697265625 59.4931640625 c 0
 30.09765625 112.100585938 28.3203125 452.928710938 33.0654296875 471.630859375 c 0
 37.810546875 490.333007812 62.91796875 502.799804688 80.3154296875 502.799804688 c 0
 97.7119140625 502.799804688 123.818359375 490.07421875 131.798828125 461.239257812 c 0
242.497070312 509 m 0
 307.018554688 519.54296875 345.497070312 495.470703125 376.905273438 441.87109375 c 0
 424.173828125 361.206054688 416.240234375 211.159179688 410.600585938 104 c 0
 405.799804688 12.7998046875 362.200195312 0 343 0 c 0
 323.799804688 0 291.583007812 5.0146484375 296.799804688 62.400390625 c 0
 298.400390625 80 300.3046875 115.87109375 300.3046875 192.670898438 c 0
 300.3046875 317.0703125 292.6953125 411.977539062 235.3046875 399.0703125 c 0
 178.412109375 386.275390625 133.3046875 327.0703125 133.3046875 182.670898438 c 0
 133.3046875 105.87109375 136.225585938 80.3408203125 136.504882812 62.6708984375 c 0
 137.497070312 0 106.504882812 0.2705078125 87.3046875 0.2705078125 c 0
 68.1044921875 0.2705078125 42.50390625 3.0703125 37.7041015625 94.2705078125 c 0
 32.064453125 201.4296875 43.0986328125 293.170898438 84.4970703125 377 c 0
 115.905273438 440.599609375 178.979492188 498.62109375 242.497070312 509 c 0
EndSplineSet
Validated: 524325
EndChar

StartChar: n
Encoding: 110 110 67
Width: 434
Flags: HMW
AnchorPoint: "Anchor-2" 218.497 2 basechar 0
AnchorPoint: "Anchor-0" 223.497 523 basechar 0
LayerCount: 2
Fore
SplineSet
141.798828125 471.239257812 m 0
 148.125 448.381835938 138.916015625 422.407226562 138.916015625 357.98828125 c 0
 138.916015625 293.5703125 138.125 293.5703125 138.125 181.356445312 c 0
 138.125 69.068359375 136.497070312 38.6689453125 128.497070312 24.4208984375 c 0
 120.497070312 10.173828125 107.497070312 0 87.4970703125 0 c 0
 67.4970703125 0 33.2978515625 6.884765625 31.697265625 59.4931640625 c 0
 30.09765625 112.100585938 28.3203125 462.928710938 33.0654296875 481.630859375 c 0
 37.810546875 500.333007812 62.91796875 512.799804688 80.3154296875 512.799804688 c 0
 97.7119140625 512.799804688 133.818359375 500.07421875 141.798828125 471.239257812 c 0
242.497070312 519 m 0
 307.018554688 529.54296875 345.497070312 505.470703125 376.905273438 441.87109375 c 0
 418.303710938 358.041992188 408.544921875 211.4296875 402.905273438 104.270507812 c 0
 398.104492188 13.0703125 352.504882812 0.2705078125 333.3046875 0.2705078125 c 0
 314.104492188 0.2705078125 287.887695312 5.28515625 293.104492188 62.6708984375 c 0
 294.705078125 80.2705078125 296.3046875 115.87109375 296.3046875 192.670898438 c 0
 296.3046875 347.0703125 292.6953125 424.977539062 235.3046875 412.0703125 c 0
 178.412109375 399.275390625 133.3046875 327.0703125 133.3046875 182.670898438 c 0
 133.3046875 105.87109375 136.225585938 80.3408203125 136.504882812 62.6708984375 c 0
 137.497070312 0 106.504882812 0.2705078125 87.3046875 0.2705078125 c 0
 68.1044921875 0.2705078125 42.50390625 13.0703125 37.7041015625 104.270507812 c 0
 32.064453125 211.4296875 43.0986328125 303.170898438 84.4970703125 387 c 4
 115.905273438 450.599609375 178.979492188 508.62109375 242.497070312 519 c 0
EndSplineSet
Validated: 524325
EndChar

StartChar: p
Encoding: 112 112 68
Width: 434
VWidth: 800
Flags: HMW
AnchorPoint: "Anchor-2" 212.03 0 basechar 0
AnchorPoint: "Anchor-0" 242.03 516 basechar 0
LayerCount: 2
Fore
SplineSet
229.752929688 395.049804688 m 0
 177.6015625 386.155273438 141.760742188 331.004882812 140.487304688 224.2109375 c 0
 139.374023438 131.000976562 168.573242188 93.8701171875 218.924804688 102.313476562 c 0
 263.813476562 109.84375 302.41015625 175.752929688 301.280273438 296.950195312 c 0
 300.53125 377.185546875 273.991210938 402.594726562 229.752929688 395.049804688 c 0
229.88671875 500.400390625 m 0
 305.950195312 507.518554688 409.086914062 480.799804688 409.086914062 311.200195312 c 0
 409.086914062 98.2373046875 321.840820312 0.529296875 211.486328125 -8 c 0
 93.4443359375 -17.1240234375 53.208984375 70.3974609375 56.2861328125 228.799804688 c 0
 59.6728515625 403.099609375 147.053710938 492.647460938 229.88671875 500.400390625 c 0
125.030273438 451 m 0
 130.939453125 428.348632812 130.03125 400 130.03125 338 c 0
 130.03125 276 133.040039062 219.884765625 138.03125 112 c 0
 143.03125 3.92578125 136.030273438 -110 129.482421875 -135 c 0
 121.469726562 -165.590820312 96.482421875 -180 71.482421875 -180 c 0
 46.482421875 -180 30.482421875 -162 30.03125 -130 c 0
 29.353515625 -81.962890625 40.03125 439 46.03125 457 c 0
 52.03125 475 62.03125 487 84.03125 487 c 0
 106.03125 487 119.030273438 474 125.030273438 451 c 0
EndSplineSet
Validated: 524325
EndChar

StartChar: q
Encoding: 113 113 69
Width: 457
VWidth: 800
Flags: HMW
AnchorPoint: "Anchor-0" 237 516 basechar 0
LayerCount: 2
Fore
SplineSet
230.909179688 395.049804688 m 0
 178.7578125 386.155273438 142.916992188 331.004882812 141.643554688 224.2109375 c 0
 140.530273438 131.000976562 169.729492188 93.8701171875 220.081054688 102.313476562 c 0
 264.969726562 109.84375 303.56640625 175.752929688 302.436523438 296.950195312 c 0
 301.6875 377.185546875 275.147460938 402.594726562 230.909179688 395.049804688 c 0
219.04296875 500.400390625 m 0
 295.106445312 507.518554688 378.243164062 480.799804688 378.243164062 311.200195312 c 0
 378.243164062 98.2373046875 310.997070312 0.529296875 200.642578125 -8 c 0
 82.6005859375 -17.1240234375 22.365234375 70.3974609375 25.4423828125 228.799804688 c 0
 28.8291015625 403.099609375 136.209960938 492.647460938 219.04296875 500.400390625 c 0
325.987304688 468 m 0
 339.987304688 500 384.821289062 512.166015625 411.987304688 485 c 0
 432.987304688 464 425.987304688 246 425.987304688 172 c 0
 425.987304688 98 416.987304688 -42.3974609375 416.987304688 -56 c 0
 416.987304688 -84 414.59765625 -121.168945312 402.987304688 -156 c 0
 396.987304688 -174 382.975585938 -189.301757812 362.987304688 -190 c 0
 343.190429688 -190.69140625 312.987304688 -169 311.987304688 -136 c 0
 308.987304688 -88 311.389648438 43.9931640625 311.396484375 122 c 0
 311.396484375 200 317.022460938 447.508789062 325.987304688 468 c 0
EndSplineSet
Validated: 524325
EndChar

StartChar: r
Encoding: 114 114 70
Width: 367
Flags: HMW
AnchorPoint: "Anchor-2" 211.497 -1 basechar 0
AnchorPoint: "Anchor-0" 194.497 532 basechar 0
LayerCount: 2
Fore
SplineSet
141.798828125 471.239257812 m 0
 148.125 448.381835938 138.916015625 422.407226562 138.916015625 357.98828125 c 0
 138.916015625 293.5703125 138.125 293.5703125 138.125 181.356445312 c 0
 138.125 69.068359375 136.497070312 38.6689453125 128.497070312 24.4208984375 c 0
 120.497070312 10.173828125 107.497070312 0 87.4970703125 0 c 0
 67.4970703125 0 33.2978515625 6.884765625 31.697265625 59.4931640625 c 0
 30.09765625 112.100585938 28.3203125 462.928710938 33.0654296875 481.630859375 c 0
 37.810546875 500.333007812 62.91796875 512.799804688 80.3154296875 512.799804688 c 0
 97.7119140625 512.799804688 133.818359375 500.07421875 141.798828125 471.239257812 c 0
245.227539062 524 m 0
 298.02734375 524 352.427734375 503.599609375 354.02734375 347.200195312 c 0
 354.405132909 310.262425363 335.827148438 288 297.02734375 288 c 0
 264.2265625 288 249.549838695 300.787359588 249.227539062 321.599609375 c 0
 247.931640625 405.28125 238.475585938 414 222.02734375 414 c 0
 176.234375 414 133.3046875 357.0703125 133.3046875 182.670898438 c 0
 133.3046875 105.87109375 136.225585938 80.3408203125 136.504882812 62.6708984375 c 0
 137.497070312 0 106.504882812 0.2705078125 87.3046875 0.2705078125 c 0
 68.1044921875 0.2705078125 42.50390625 13.0703125 37.7041015625 104.270507812 c 0
 32.064453125 211.4296875 43.0986328125 303.170898438 84.4970703125 387 c 4
 115.905273438 450.599609375 177.497070312 524 245.227539062 524 c 0
EndSplineSet
Validated: 524325
EndChar

StartChar: s
Encoding: 115 115 71
Width: 410
VWidth: 800
Flags: HMW
AnchorPoint: "Anchor-2" 190 -20 basechar 0
AnchorPoint: "Anchor-0" 197 524 basechar 0
LayerCount: 2
Fore
SplineSet
208.530273438 424 m 4
 164.930664062 424 129.330078125 400.799804688 129.330078125 360 c 0
 129.330078125 335.796875 143.633789062 320.400390625 164.530273438 320.400390625 c 0
 198.129882812 320.400390625 230.129882812 335 272.530273438 335 c 0
 342.930664062 335 384.530273438 281.684570312 384.530273438 212.799804688 c 0
 384.530273438 131.200195312 367.182617188 0.087890625 171.73046875 -8 c 0
 55.73046875 -12.7998046875 42.1298828125 79.2001953125 42.1298828125 108.799804688 c 0
 42.1298828125 148.655273438 70.724609375 158 95.5302734375 158 c 0
 117.130859375 158 142.9296875 152 144.530273438 128 c 0
 146.352539062 100.673828125 166.575978023 93.6249929598 182.930664062 95.2001953125 c 0
 253.530273438 102 276.330078125 139.599609375 276.330078125 182 c 0
 276.330078125 220.400390625 261.530273438 242 224.530273438 242 c 0
 173.30078125 242 163.330078125 228 108.930664062 228 c 0
 64.5302734375 228 25.330078125 265.599609375 25.330078125 341.599609375 c 0
 25.330078125 477.599609375 174.930664062 524 227.73046875 524 c 4
 280.530273438 524 324.930664062 493.599609375 326.530273438 427.200195312 c 4
 327.419921875 390.271484375 308.330078125 368 269.530273438 368 c 4
 236.729492188 368 227.693359375 380.876953125 225.73046875 401.599609375 c 4
 224.434570312 415.28125 224.978515625 424 208.530273438 424 c 4
EndSplineSet
Validated: 524321
EndChar

StartChar: t
Encoding: 116 116 72
Width: 357
Flags: HMW
AnchorPoint: "Anchor-4" 136.011 285 basechar 0
AnchorPoint: "Anchor-2" 206.011 -1 basechar 0
AnchorPoint: "Anchor-1" 261.011 566 basechar 0
AnchorPoint: "Anchor-0" 166.887 635.937 basechar 0
LayerCount: 2
Fore
SplineSet
207.805664062 -4.0791015625 m 0
 131.191746375 -12.4813473204 51 16.1669921875 51 172 c 0
 51 287.849538477 75 376 96 468 c 1
 103 510 109 551 114.88671875 576.936523438 c 0
 125.520507812 623.787109375 140.88671875 637.936523438 165.88671875 637.936523438 c 0
 190.88671875 637.936523438 214.783552941 624.669931589 215.88671875 584.936523438 c 0
 216.551757812 560.983398438 209.966796875 523.015625 198 476 c 0
 186.87109375 432.274414062 154.755859375 336.5546875 154.7421875 208 c 4
 154.733398438 126.055664062 154.484693863 89.829439246 206.1875 97.2822265625 c 0
 223.60546875 99.79296875 243.629882812 110.416992188 265 129 c 0
 296.960771196 156.791974953 320 158 336 147 c 0
 353.274880077 135.123519947 360.6953125 111.182617188 336 70 c 0
 309.794921875 26.2998046875 245 3.09214459593e-16 207.805664062 -4.0791015625 c 0
155.255859375 372.984375 m 0
 109.711914062 366.522460938 81.255859375 356.984375 46.255859375 369.984375 c 0
 8.26953125 384.09375 7.7373046875 436.622070312 35.255859375 452.984375 c 0
 72.255859375 474.984375 96.240234375 478.166992188 166.396484375 488.12109375 c 0
 211.940429688 494.583007812 231.592773438 497.47265625 280.010742188 488 c 0
 326.010742188 479 327.869140625 433.34375 300.7421875 412.899414062 c 0
 273.010742188 392 225.412109375 382.938476562 155.255859375 372.984375 c 0
EndSplineSet
Validated: 524325
EndChar

StartChar: u
Encoding: 117 117 73
Width: 428
Flags: HMW
AnchorPoint: "Anchor-2" 218.67 -17 basechar 0
AnchorPoint: "Anchor-3" 327.67 0 basechar 0
AnchorPoint: "Anchor-0" 219.67 531 basechar 0
LayerCount: 2
Fore
SplineSet
388.376953125 479 m 0
 394.703125 456.142578125 398.795898438 422.407226562 398.795898438 357.98828125 c 0
 398.795898438 293.5703125 398.004882812 293.5703125 398.004882812 181.356445312 c 0
 398.004882812 69.068359375 396.376953125 38.6689453125 388.376953125 24.4208984375 c 0
 380.376953125 10.173828125 367.376953125 0 347.376953125 0 c 0
 327.376953125 0 293.177734375 6.884765625 291.577148438 59.4931640625 c 0
 289.977539062 112.100585938 288.200195312 462.928710938 292.9453125 481.630859375 c 0
 297.690429688 500.333007812 320.791015625 515.200195312 338.188476562 515.200195312 c 0
 355.584960938 515.200195312 380.396484375 507.834960938 388.376953125 479 c 0
180.98828125 -8 m 0
 135.956111814 -16.0829154274 91 3 68.587890625 43.599609375 c 0
 24.408203125 123.631835938 26.9482421875 294.041015625 32.587890625 401.200195312 c 0
 37.388671875 492.400390625 72.98828125 505.200195312 92.1884765625 505.200195312 c 0
 111.388671875 505.200195312 155.60546875 500.185546875 150.388671875 442.799804688 c 0
 148.788085938 425.200195312 147.188476562 399.599609375 147.188476562 322.799804688 c 0
 147.188476562 158.400390625 152.48046875 86.72265625 200.188476562 98.400390625 c 0
 246.453125 109.724609375 287.188476562 178.400390625 287.188476562 332.799804688 c 0
 287.188476562 409.599609375 285.588867188 435.200195312 283.98828125 452.799804688 c 0
 278.771484375 510.185546875 318.98828125 515.200195312 338.188476562 515.200195312 c 0
 357.388671875 515.200195312 382.989257812 502.400390625 387.7890625 411.200195312 c 0
 393.428710938 304.041015625 374.775390625 222.829101562 333.376953125 139 c 0
 301.96875 75.400390625 263.616210938 6.8310546875 180.98828125 -8 c 0
EndSplineSet
Validated: 524325
EndChar

StartChar: v
Encoding: 118 118 74
Width: 372
VWidth: 800
Flags: HMW
AnchorPoint: "Anchor-2" 182.17 0 basechar 0
AnchorPoint: "Anchor-0" 189.17 509 basechar 0
LayerCount: 2
Fore
SplineSet
229.921875 23.2470703125 m 0
 217.122070312 0.8466796875 193.921875 -10.2333984375 161.921875 -2.353515625 c 0
 129.893554688 5.5341796875 118.721679688 53.646484375 83.521484375 146.447265625 c 0
 48.322265625 239.247070312 5.12109375 408.046875 -1.2783203125 444.846679688 c 0
 -7.677734375 481.646484375 12.2890625 502.813476562 30.25390625 510 c 0
 50.25390625 518 80.0537109375 513 99.25390625 481 c 0
 118.454101562 449 136.665039062 323.200195312 153.921875 255.247070312 c 0
 170.240234375 190.98828125 183.865234375 140 183.865234375 140 c 1
 192.208007812 185.552734375 226.665039062 326.400390625 241.521484375 368.046875 c 0
 257.176757812 411.930664062 265.065429688 437.599609375 277.865234375 469.599609375 c 0
 290.665039062 501.599609375 321.654296875 512.19921875 339.25390625 509 c 0
 356.853515625 505.799804688 380.6640625 484.799804688 374.264648438 441.599609375 c 0
 361.380859375 354.629882812 248.504882812 55.767578125 229.921875 23.2470703125 c 0
EndSplineSet
Validated: 524321
EndChar

StartChar: x
Encoding: 120 120 75
Width: 354
VWidth: 800
Flags: HMW
AnchorPoint: "Anchor-0" 189.17 509 basechar 0
LayerCount: 2
Fore
SplineSet
346.037109375 430.447265625 m 4
 327.63671875 393.646484375 257.01953125 274.552734375 224.500976562 216.77734375 c 4
 190.112304688 155.680664062 119.611328125 53.3671875 89.271484375 19.9248046875 c 4
 58.931640625 -13.5185546875 31.3056640625 -15.2763671875 11.646484375 1.8095703125 c 4
 -6.025390625 17.1689453125 -7.3720703125 35.2021484375 8.9111328125 77.3642578125 c 4
 25.1943359375 119.525390625 94.4248046875 219.322265625 146.767578125 303.650390625 c 4
 198.770507812 387.430664062 279.63671875 532.046875 331.63671875 513.646484375 c 4
 354.57421875 505.530273438 368.442382812 475.258789062 346.037109375 430.447265625 c 4
346.037109375 83.2001953125 m 0
 368.442382812 38.388671875 354.57421875 8.1162109375 331.63671875 0 c 0
 279.63671875 -18.400390625 190.770507812 113.416015625 138.767578125 197.197265625 c 0
 86.4248046875 281.525390625 26.2802734375 391.293945312 15.7646484375 434.576171875 c 0
 5.248046875 477.860351562 8.8720703125 495.310546875 28.10546875 508.057617188 c 0
 49.501953125 522.239257812 76.2744140625 516.986328125 101.643554688 480.423828125 c 0
 127.012695312 443.860351562 182.112304688 345.166015625 216.500976562 284.069335938 c 0
 249.01953125 226.293945312 327.63671875 120 346.037109375 83.2001953125 c 0
EndSplineSet
Validated: 524325
EndChar

StartChar: y
Encoding: 121 121 76
Width: 354
Flags: HMW
AnchorPoint: "Anchor-2" 274.17 -17 basechar 0
AnchorPoint: "Anchor-0" 195.17 528 basechar 0
LayerCount: 2
Fore
SplineSet
209.16015625 185.592773438 m 0
 220.705078125 157.655273438 211.07421875 121.551757812 189.874023438 109.909179688 c 0
 166.2890625 96.9580078125 131.293945312 117.192382812 115.4609375 145.174804688 c 0
 50.646484375 259.72265625 13.7509765625 361.16015625 1.7001953125 418.375 c 0
 -10.056640625 474.193359375 3.2685546875 507.921875 36.6787109375 516.68359375 c 0
 67.5244140625 524.772460938 101.125 513.743164062 114.040039062 460.227539062 c 0
 125.641601562 412.161132812 162.31640625 298.947265625 209.16015625 185.592773438 c 0
353.854492188 423.189453125 m 0
 342.11328125 372.641601562 303.337312988 251.201637981 255.899414062 132.227539062 c 0
 196 -18 158 -84 118.559570312 -138.014648438 c 0
 90.74609375 -176.10546875 52.8125 -181.768554688 33 -164 c 0
 15.1923828125 -148.02734375 9.166015625 -121.645507812 27.2099609375 -78.1953125 c 0
 45.2529296875 -34.74609375 125.02734375 110.7421875 172.831054688 226.579101562 c 0
 220.32421875 341.6640625 244.43359375 526.076171875 312.627929688 519.951171875 c 0
 342.709960938 517.248046875 368.151367188 484.7421875 353.854492188 423.189453125 c 0
EndSplineSet
Validated: 524325
EndChar

StartChar: z
Encoding: 122 122 77
Width: 390
VWidth: 800
Flags: HMW
AnchorPoint: "Anchor-2" 196 0 basechar 0
AnchorPoint: "Anchor-0" 207 519 basechar 0
LayerCount: 2
Fore
SplineSet
20.7275390625 31.2001953125 m 0
 21.52734375 76 88.7236328125 119.256835938 199.927734375 127.200195312 c 0
 323.127929688 136 373.556640625 127 370.328125 60.7998046875 c 0
 367.794921875 8.8623046875 292.727539062 18.400390625 193.52734375 9.599609375 c 0
 126.419921875 3.646484375 99.1279296875 0 73.52734375 0 c 0
 43.3984375 0 20.2705078125 5.591796875 20.7275390625 31.2001953125 c 0
20.7275390625 437.200195312 m 0
 21.302734375 482.00390625 88.7236328125 507.256835938 199.927734375 515.200195312 c 0
 323.127929688 524 372.727539062 514.400390625 370.328125 468.799804688 c 0
 367.594726562 416.872070312 292.727539062 406.400390625 193.52734375 397.599609375 c 0
 126.419921875 391.646484375 99.1279296875 388 73.52734375 388 c 0
 43.3984375 388 20.2705078125 401.591796875 20.7275390625 437.200195312 c 0
363.5703125 430.447265625 m 0
 344.354492188 393.646484375 269.096679688 274.552734375 235.296875 216.77734375 c 0
 199.5546875 155.680664062 116.65625 55.4091796875 90.96875 27.7705078125 c 0
 65.2822265625 0.1318359375 42.4169921875 -1.3212890625 26.4833984375 12.7998046875 c 0
 12.1611328125 25.494140625 11.37890625 40.396484375 25.6083984375 75.2412109375 c 0
 39.8369140625 110.084960938 115.278320312 239.322265625 169.490234375 323.650390625 c 0
 223.350585938 407.430664062 296.3359375 525.599609375 347.927734375 507.200195312 c 0
 370.685546875 499.083984375 386.970703125 475.258789062 363.5703125 430.447265625 c 0
EndSplineSet
Validated: 37
EndChar

StartChar: parenleft
Encoding: 40 40 78
Width: 307
Flags: HMW
LayerCount: 2
Fore
SplineSet
26.4111328125 206.3125 m 0
 26.3408203125 397.33203125 73.1923828125 544.564453125 168.572265625 652.446289062 c 0
 213.624023438 703.40234375 246.328125 696.014648438 263.668945312 680.904296875 c 0
 292.892578125 655.060546875 267.181640625 619.482421875 244.234375 593.147460938 c 0
 219.880859375 565.19921875 131.340820312 426.33203125 131.411132812 205.822265625 c 0
 131.46875 26.3125 196.338867188 -86.70703125 237.798828125 -135.91796875 c 0
 260.3046875 -162.630859375 297.0703125 -187.760742188 273.131835938 -218.564453125 c 0
 258.885742188 -236.622070312 228.11328125 -249.932617188 174.412109375 -208.189453125 c 0
 60.7216796875 -119.814453125 26.466796875 55.3125 26.4111328125 206.3125 c 0
EndSplineSet
Validated: 33
EndChar

StartChar: parenright
Encoding: 41 41 79
Width: 307
Flags: HMW
LayerCount: 2
Fore
SplineSet
280.927734375 249.98046875 m 0
 280.998046875 58.9609375 234.146484375 -88.271484375 138.766601562 -196.153320312 c 0
 93.71484375 -247.109375 61.0107421875 -239.721679688 43.669921875 -224.611328125 c 0
 14.4462890625 -198.767578125 40.1572265625 -163.189453125 63.1044921875 -136.854492188 c 0
 87.4580078125 -108.90625 175.998046875 29.9609380702 175.927734375 250.470703125 c 0
 175.870495274 429.980473866 111 543 69.5400390625 592.2109375 c 0
 47.0345568316 618.923839645 10.2685546875 644.053710938 34.20703125 674.857421875 c 0
 48.453125 692.915039062 79.2255859375 706.225585938 132.926757812 664.482421875 c 0
 246.6171875 576.107421875 280.872070312 400.98046875 280.927734375 249.98046875 c 0
EndSplineSet
Validated: 33
EndChar

StartChar: grave
Encoding: 96 96 80
Width: 208
Flags: HMW
LayerCount: 2
Fore
SplineSet
192.01953125 509.186523438 m 0
 177.044921875 475 120.044921875 473 57.0400390625 525.228515625 c 0
 28.0517578125 549.258789062 -18.955078125 605 33.044921875 640 c 0
 65.66796875 661.958007812 107.955078125 627.15234375 135.424804688 599.682617188 c 0
 173.756835938 561.350585938 205.99609375 541.09375 192.01953125 509.186523438 c 0
EndSplineSet
Validated: 33
EndChar

StartChar: asterisk
Encoding: 42 42 81
Width: 427
Flags: HMW
LayerCount: 2
Fore
SplineSet
260.772460938 634.342773438 m 0
 268.772460938 615.971679688 269.772460938 582.521484375 269.772460938 545.409179688 c 0
 269.772460938 508.297851562 268.772460938 484.354492188 268.772460938 467.594726562 c 0
 268.772460938 420.861328125 265.772460938 366.9296875 255.772460938 352.592773438 c 0
 245.772460938 338.255859375 235.772460938 328.328125 210.772460938 328.328125 c 0
 185.772460938 328.328125 161.772460938 334.946289062 159.772460938 387.883789062 c 0
 157.772460938 440.822265625 154.772460938 627.663085938 160.772460938 642.692382812 c 0
 166.772460938 657.72265625 179.772460938 667.744140625 201.772460938 667.744140625 c 0
 223.772460938 667.744140625 250.680664062 657.516601562 260.772460938 634.342773438 c 0
211.552734375 540.372070312 m 0
 240.965820312 558.926757812 280.37890625 602.762695312 317.407226562 607.549804688 c 0
 357.59375 612.745117188 382.517578125 566.50390625 365.779296875 539.211914062 c 0
 343.274414062 502.516601562 291.350585938 495.142578125 246.041992188 466.55859375 c 0
 216.627929688 448.00390625 170.870117188 394.31640625 124.087890625 378.651367188 c 0
 68.890625 360.16796875 45.2626953125 413.762695312 64.4521484375 441.791992188 c 0
 92.9521484375 483.418945312 166.243164062 511.788085938 211.552734375 540.372070312 c 0
117.296875 608.103515625 m 0
 136.488143599 602.340718615 176.818359375 562.168945312 201.962890625 549.079101562 c 0
 227.10546875 535.991210938 242.923828125 526.953125 254.278320312 521.041015625 c 0
 285.940429688 504.55859375 334 487 366.807617188 459.634765625 c 0
 380.230655273 448.438445541 387.791992188 423.478515625 375 402 c 0
 362.208007812 380.520507812 332.048733038 366.761569411 287.36328125 395.213867188 c 0
 261 412 78.6945754383 508.813884363 67 520 c 0
 44 542 46.7428725279 569.098806441 58 588 c 0
 69.2578125 606.90234375 91 616 117.296875 608.103515625 c 0
EndSplineSet
Validated: 37
EndChar

StartChar: slash
Encoding: 47 47 82
Width: 352
Flags: HMW
LayerCount: 2
Fore
SplineSet
331.900390625 571.188476562 m 4
 318.430664062 521.5546875 258.821289062 357.702148438 233.224609375 278.880859375 c 4
 206.155273438 195.529296875 135.53515625 37.138671875 111.626953125 -2.9150390625 c 4
 87.7177734375 -42.96875 60.0966796875 -50.3818359375 36.7041015625 -37.0859375 c 4
 15.6767578125 -25.1328125 10.63671875 -7.14453125 18.53125 38.8740234375 c 4
 26.4267578125 84.8916015625 97.70703125 254.845703125 141.046875 371.094726562 c 4
 184.106445312 486.588867188 225.470703125 679.3125 293.731445312 669.591796875 c 4
 323.841796875 665.303710938 348.302734375 631.62890625 331.900390625 571.188476562 c 4
EndSplineSet
Validated: 33
EndChar

StartChar: backslash
Encoding: 92 92 83
Width: 352
Flags: HMW
LayerCount: 2
Fore
SplineSet
20.267578125 571.188476562 m 0
 3.865234375 631.62890625 28.326171875 665.303710938 58.4365234375 669.591796875 c 0
 126.697265625 679.3125 168.061523438 486.588867188 211.12109375 371.094726562 c 0
 254.4609375 254.845703125 325.741210938 84.8916015625 333.63671875 38.8740234375 c 0
 341.53125 -7.14453125 336.491210938 -25.1328125 315.463867188 -37.0859375 c 0
 292.071289062 -50.3818359375 264.450195312 -42.96875 240.541015625 -2.9150390625 c 0
 216.6328125 37.138671875 146.012695312 195.529296875 118.943359375 278.880859375 c 0
 93.3466796875 357.702148438 33.7373046875 521.5546875 20.267578125 571.188476562 c 0
EndSplineSet
Validated: 33
EndChar

StartChar: percent
Encoding: 37 37 84
Width: 776
Flags: HMW
LayerCount: 2
Fore
SplineSet
592.377929688 198.44140625 m 0
 551.961914062 193.240234375 523.673828125 171.442382812 522.5546875 131.109375 c 0
 521.578125 95.9072265625 543.983398438 79.517578125 582.854492188 84.1103515625 c 0
 616.709960938 88.1103515625 643.09375 110.879882812 642.098632812 156.651367188 c 0
 641.44140625 186.955078125 627.26953125 202.931640625 592.377929688 198.44140625 c 0
588.92578125 295.473632812 m 0
 653.1875 299.473632812 732.055664062 274.704101562 732.055664062 166.583984375 c 0
 732.055664062 56.3212890625 682.819335938 -6 580 -10 c 0
 469.231445312 -14.3095703125 424 59.3720703125 426.80859375 134.854492188 c 0
 430.94140625 245.927734375 520.4140625 291.208984375 588.92578125 295.473632812 c 0
591.41796875 538.05859375 m 0
 568.41796875 492.05859375 477.646484375 343.19140625 436.998046875 270.971679688 c 0
 394.012695312 194.600585938 293.524414062 53.26171875 262.181640625 18.712890625 c 0
 230.838867188 -15.8349609375 202.297851562 -17.6513671875 181.989257812 0 c 0
 163.734375 15.8671875 162.342773438 34.49609375 179.1640625 78.0517578125 c 0
 195.985351562 121.606445312 299.40234375 274.15234375 364.831054688 379.5625 c 0
 429.834960938 484.288085938 508.41796875 665.05859375 573.41796875 642.05859375 c 0
 602.08984375 631.913085938 619.424804688 594.073242188 591.41796875 538.05859375 c 0
212.03515625 540.96875 m 4
 171.61930341 535.767594318 143.331054688 513.969726562 142.211914062 473.63671875 c 4
 141.235351562 438.434570312 163.640483719 422.045086028 202.51171875 426.637695312 c 4
 236.3671875 430.637695312 262.750976562 453.407226562 261.755859375 499.178710938 c 4
 261.098632812 529.482421875 246.926757812 545.458984375 212.03515625 540.96875 c 4
208.583007812 638.000976562 m 4
 272.844726562 642.000976562 351.712890625 617.231445312 351.712890625 509.111328125 c 4
 351.712890625 398.848632812 302.4765625 336.52734375 199.657226562 332.52734375 c 4
 88.8884777371 328.218086243 43.6572265625 401.899414062 46.4658203125 477.381835938 c 4
 50.5986328125 588.455078125 140.071072888 633.736419918 208.583007812 638.000976562 c 4
EndSplineSet
Validated: 524321
EndChar

StartChar: less
Encoding: 60 60 85
Width: 420
Flags: HMW
LayerCount: 2
Fore
SplineSet
391.139648438 412.517578125 m 4
 391.139648438 382.336914062 366.5 368.220703125 352.583007812 362.653320312 c 4
 307.146484375 344.479492188 154.861328125 295.995117188 153.45703125 295.565429688 c 5
 236.12890625 273.772460938 345.495117188 278.061523438 361.552734375 268.426757812 c 4
 386.857421875 253.245117188 393.291992188 234.766601562 393.291992188 221.15234375 c 4
 393.291992188 204.75390625 382.291992188 174.592773438 344.987304688 174.592773438 c 4
 289.69140625 174.592773438 111.150390625 219.352539062 108.84765625 220.19140625 c 4
 57.734375 238.815429688 27.7802734375 249.729492188 27.7802734375 292.81640625 c 4
 27.7802734375 323.586914062 47.0400390625 338.765625 57.4833984375 344.734375 c 4
 76.6435546875 355.681640625 284.239257812 457.448242188 338.822265625 457.448242188 c 4
 375.803710938 457.448242188 391.139648438 433.85546875 391.139648438 412.517578125 c 4
EndSplineSet
Validated: 1
EndChar

StartChar: greater
Encoding: 62 62 86
Width: 421
Flags: HMW
LayerCount: 2
Fore
SplineSet
29.8623046875 412.517578125 m 0
 29.8623046875 433.85546875 45.1982421875 457.448242188 82.1796875 457.448242188 c 0
 136.762695312 457.448242188 341.421875 396.397460938 361.086914062 386.384765625 c 0
 371.8046875 380.924804688 391.772460938 366.689453125 393.250976562 335.954101562 c 0
 395.322265625 292.916992188 365.927734375 280.576171875 315.768554688 259.516601562 c 0
 313.508789062 258.567382812 131.310546875 174.592773438 76.0146484375 174.592773438 c 0
 38.7099609375 174.592773438 27.7099609375 204.75390625 27.7099609375 221.15234375 c 0
 27.7099609375 234.766601562 34.14453125 253.245117188 59.44921875 268.426757812 c 0
 75.5068359375 278.061523438 186.05859375 306.916992188 267.587890625 332.658203125 c 1
 266.1640625 333.020507812 113.85546875 344.479492188 68.4189453125 362.653320312 c 0
 54.501953125 368.220703125 29.8623046875 382.336914062 29.8623046875 412.517578125 c 0
EndSplineSet
Validated: 33
EndChar

StartChar: equal
Encoding: 61 61 87
Width: 386
Flags: HMW
LayerCount: 2
Fore
SplineSet
217.0078125 444 m 4
 262.551757812 450.461914062 291.0078125 456 326.0078125 443 c 4
 363.994140625 428.890625 364.526367188 376.362304688 337.0078125 360 c 4
 300.0078125 338 276.0234375 338.817382812 205.8671875 328.86328125 c 4
 160.323242188 322.401367188 123.60546875 308.528320312 74.908203125 316.44140625 c 4
 17.453125 325.778320312 21.490234375 384.2109375 51.521484375 400.084960938 c 4
 96.1220703125 423.66015625 146.8515625 434.045898438 217.0078125 444 c 4
217.0078125 284 m 4
 262.551757812 290.461914062 291.0078125 296 326.0078125 283 c 4
 363.994140625 268.890625 364.526367188 216.362304688 337.0078125 200 c 4
 300.0078125 178 276.0234375 178.817382812 205.8671875 168.86328125 c 4
 160.323242188 162.401367188 123.60546875 148.528320312 74.908203125 156.44140625 c 4
 17.453125 165.778320312 21.490234375 224.2109375 51.521484375 240.084960938 c 4
 96.1220703125 263.66015625 146.8515625 274.045898438 217.0078125 284 c 4
EndSplineSet
Validated: 524321
EndChar

StartChar: numbersign
Encoding: 35 35 88
Width: 638
Flags: HMW
LayerCount: 2
Fore
SplineSet
32.0087890625 177 m 0
 33.0087890625 233 96.8515625 254.49609375 306.008789062 262 c 0
 510.173828125 269.32421875 582.008789062 261 579.008789062 204 c 0
 575.592773438 139.08984375 472.252929688 146.009765625 298.008789062 140 c 0
 143.961914062 134.686523438 130.008789062 128 98.0087890625 128 c 0
 60.34765625 128 31.4375 144.989257812 32.0087890625 177 c 0
52.0087890625 387 m 0
 53.0087890625 443 116.8515625 464.49609375 326.008789062 472 c 0
 530.173828125 479.32421875 602.008789062 471 599.008789062 414 c 0
 595.592773438 349.08984375 492.252929688 356.009765625 318.008789062 350 c 0
 163.961914062 344.686523438 150.008789062 338 118.008789062 338 c 0
 80.34765625 338 51.4375 354.989257812 52.0087890625 387 c 0
198.55078125 488.568359375 m 0
 218.327148438 596.225585938 241.962890625 634.309570312 271.731445312 630.587890625 c 0
 301.5 626.8671875 324.010742188 593.936523438 305.46875 465.125976562 c 0
 251.885742188 92.8974609375 252.686523438 -8.1396484375 185.009765625 0 c 0
 118.741210938 7.970703125 129.008789062 110 198.55078125 488.568359375 c 0
388.55078125 488.568359375 m 0
 408.327148438 596.225585938 431.962890625 634.309570312 461.731445312 630.587890625 c 0
 491.5 626.8671875 514.010742188 593.936523438 495.46875 465.125976562 c 0
 441.885742188 92.8974609375 442.686523438 -8.1396484375 375.009765625 0 c 0
 308.741210938 7.970703125 319.008789062 110 388.55078125 488.568359375 c 0
EndSplineSet
Validated: 37
EndChar

StartChar: bracketleft
Encoding: 91 91 89
Width: 301
Flags: HMW
LayerCount: 2
Fore
SplineSet
39.11328125 618 m 0
 40.2666015625 667.73046875 53.6005859375 696.852539062 187.529296875 695.798828125 c 0
 255.543945312 695.263671875 271.439453125 665.744140625 271.424804688 642.743164062 c 0
 271.11328125 603.732421875 227.396484375 599.793945312 192.466796875 599.794921875 c 0
 166.991210938 599.794921875 147.940429688 600.1953125 133.943359375 600.873046875 c 1
 133.943359375 38.67578125 l 1
 146.428710938 39.5615234375 165.15625 40.1650390625 192.466796875 40.166015625 c 0
 227.396484375 40.1669921875 271.11328125 36.228515625 271.424804688 -2.7822265625 c 0
 271.439453125 -25.783203125 255.543945312 -55.3037109375 187.529296875 -55.837890625 c 0
 51.669921875 -56.9052734375 39.0703125 -28.380859375 39.0703125 36 c 0
 39.0703125 88 39.11328125 555 39.11328125 618 c 0
EndSplineSet
Validated: 33
EndChar

StartChar: bracketright
Encoding: 93 93 90
Width: 300
Flags: HMW
LayerCount: 2
Fore
SplineSet
262.911132812 618 m 0
 262.911132812 555 262.954101562 88 262.954101562 36 c 0
 262.954101562 -28.380859375 250.354492188 -56.9052734375 114.495117188 -55.837890625 c 0
 46.48046875 -55.3037109375 30.5849609375 -25.783203125 30.599609375 -2.7822265625 c 0
 30.9111328125 36.228515625 74.6279296875 40.1669921875 109.557617188 40.166015625 c 0
 136.8671875 40.1650390625 155.595703125 39.5615234375 168.081054688 38.67578125 c 1
 168.081054688 600.873046875 l 1
 154.083984375 600.1953125 135.032226562 599.794921875 109.557617188 599.794921875 c 0
 74.6279296875 599.793945312 30.9111328125 603.732421875 30.599609375 642.743164062 c 0
 30.5849609375 665.744140625 46.48046875 695.263671875 114.495117188 695.798828125 c 0
 248.423828125 696.852539062 261.7578125 667.73046875 262.911132812 618 c 0
EndSplineSet
Validated: 33
EndChar

StartChar: braceleft
Encoding: 123 123 91
Width: 427
Flags: HMW
LayerCount: 2
Fore
SplineSet
247.153320312 106.491210938 m 4
 290.75390625 121.155273438 317.721679688 131.79296875 354.506835938 125.397460938 c 4
 394.428710938 118.456054688 404.538085938 66.9072265625 380.466796875 45.7978515625 c 4
 348.102539062 17.4150390625 324.372070312 13.8427734375 257.208984375 -8.7451171875 c 4
 213.608398438 -23.4091796875 180.0390625 -43.7490234375 130.715820312 -44.85546875 c 4
 72.5205078125 -46.1591796875 65.828125 12.029296875 92.458984375 33.1162109375 c 4
 132.008789062 64.43359375 179.991210938 83.90234375 247.153320312 106.491210938 c 4
290.733398438 629.489257812 m 4
 333.515625 612.5859375 360.987304688 603.329101562 384.981445312 574.72265625 c 4
 411.021484375 543.67578125 385.510742188 497.754882812 353.500976562 497.140625 c 4
 310.461914062 496.313476562 290.01953125 508.883789062 224.118164062 534.922851562 c 4
 181.3359375 551.826171875 142.561523438 557.923828125 104.147460938 588.880859375 c 4
 58.82421875 625.407226562 91.2265625 674.200195312 125.178710938 673.147460938 c 4
 175.602539062 671.584960938 224.83203125 655.528320312 290.733398438 629.489257812 c 4
229.936523438 371.255859375 m 4
 275.934570312 370.866210938 304.8984375 372.106445312 337.573242188 354.041015625 c 4
 373.036132812 334.434570312 365.7421875 282.412109375 336.094726562 270.329101562 c 4
 296.232421875 254.08203125 272.63671875 258.459960938 201.780273438 259.060546875 c 4
 155.782226562 259.450195312 117.408203125 251.197265625 70.431640625 266.271484375 c 4
 15.0068359375 284.057617188 27.697265625 341.23828125 59.7568359375 352.46484375 c 4
 107.369140625 369.137695312 159.080078125 371.856445312 229.936523438 371.255859375 c 4
EndSplineSet
Validated: 33
EndChar

StartChar: braceright
Encoding: 125 125 92
Width: 427
Flags: HMW
LayerCount: 2
Fore
SplineSet
180.858398438 106.491210938 m 4
 248.020507812 83.90234375 296.002929688 64.43359375 335.552734375 33.1162109375 c 4
 362.18359375 12.029296875 355.491210938 -46.1591796875 297.295898438 -44.85546875 c 4
 247.97265625 -43.7490234375 214.403320312 -23.4091796875 170.802734375 -8.7451171875 c 4
 103.639648438 13.8427734375 79.9091796875 17.4150390625 47.544921875 45.7978515625 c 4
 23.4736328125 66.9072265625 33.5830078125 118.456054688 73.5048828125 125.397460938 c 4
 110.290039062 131.79296875 137.2578125 121.155273438 180.858398438 106.491210938 c 4
137.278320312 629.489257812 m 4
 203.1796875 655.528320312 252.409179688 671.584960938 302.833007812 673.147460938 c 4
 336.78515625 674.200195312 369.1875 625.407226562 323.864257812 588.880859375 c 4
 285.450195312 557.923828125 246.67578125 551.826171875 203.893554688 534.922851562 c 4
 137.9921875 508.883789062 117.549804688 496.313476562 74.5107421875 497.140625 c 4
 42.5009765625 497.754882812 16.990234375 543.67578125 43.0302734375 574.72265625 c 4
 67.0244140625 603.329101562 94.49609375 612.5859375 137.278320312 629.489257812 c 4
198.075195312 371.255859375 m 4
 268.931640625 371.856445312 320.642578125 369.137695312 368.254882812 352.46484375 c 4
 400.314453125 341.23828125 413.004882812 284.057617188 357.580078125 266.271484375 c 4
 310.603515625 251.197265625 272.229492188 259.450195312 226.231445312 259.060546875 c 4
 155.375 258.459960938 131.779296875 254.08203125 91.9169921875 270.329101562 c 4
 62.26953125 282.412109375 54.9755859375 334.434570312 90.4384765625 354.041015625 c 4
 123.11328125 372.106445312 152.077148438 370.866210938 198.075195312 371.255859375 c 4
EndSplineSet
Validated: 33
EndChar

StartChar: ampersand
Encoding: 38 38 93
Width: 592
Flags: HMW
LayerCount: 2
Fore
SplineSet
206.334960938 376 m 0
 252.546622399 404.197836464 292 453 292 493 c 0
 292 531.0390625 270 542 245.147460938 535.509765625 c 0
 209.921940036 526.310629631 203.955078125 495.305664062 203.955078125 473 c 0
 203.955078125 388.490234375 328.4375 208.041015625 506.327148438 110.469726562 c 4
 564.790936687 78.4027275375 569.231445312 44.521484375 554.216796875 20.0087890625 c 4
 539.905273438 -3.35546875 504.868164062 -10.2080078125 473.092773438 4.7001953125 c 4
 261.325335546 104.056077876 93.1474609375 355 93.1474609375 465.509765625 c 0
 93.1474609375 568.215820312 162.509509564 635.659820742 247.147460938 647.509765625 c 0
 319.796812258 657.681217024 403 612 403 514 c 0
 403 454.514648438 376.079065902 380.918048429 254.334960938 296 c 0
 196.243767672 255.480660157 137.334960938 253 137.334960938 166 c 0
 137.334960938 121.818359375 175.334960938 80 222.334960938 90 c 0
 298.244899817 106.151050825 348.299804688 208.3125 372.334960938 254 c 0
 416 337 442 418 494.334960938 396 c 0
 552.093678074 371.720020532 513 277 497.334960938 245 c 0
 449.143554688 146.555664062 378.167191218 -5.96479124337 220.334960938 -20 c 0
 103.290039062 -30.408203125 24.8841268207 53.9962533724 25.3349609375 162 c 0
 25.9570946744 311.041015263 165.572866976 351.127428378 206.334960938 376 c 0
EndSplineSet
Validated: 524325
Substitution2: "'swsh' Swash lookup 14-1" ampersand.swsh
Substitution2: "'ss11' Style Set 11 lookup 13-1" ampersand.ss11
EndChar

StartChar: underscore
Encoding: 95 95 94
Width: 498
Flags: MW
LayerCount: 2
Fore
SplineSet
26.4638671875 -131 m 4
 27.4638671875 -75 111.458984375 -45.9287109375 250.463867188 -36 c 4
 404.463867188 -25 466.463867188 -37 463.463867188 -94 c 4
 460.047851562 -158.91015625 366.463867188 -147 242.463867188 -158 c 4
 158.579101562 -165.44140625 124.463867188 -170 92.4638671875 -170 c 4
 54.802734375 -170 25.892578125 -163.010742188 26.4638671875 -131 c 4
EndSplineSet
Validated: 33
EndChar

StartChar: at
Encoding: 64 64 95
Width: 690
Flags: HMW
LayerCount: 2
Fore
SplineSet
403 242 m 0
 379.641601562 275.684570312 377.838867188 356.961914062 381 386 c 1
 319.296875 364.349609375 296.173828125 335.40234375 296.173828125 304.765625 c 0
 296.173828125 269.271484375 317.1640625 256.733398438 333.778320312 256.733398438 c 0
 366.54296875 256.733398438 380.405273438 277.211914062 386.302734375 281.9375 c 0
 424.748046875 312.74609375 465.114257812 250.298828125 430.094726562 220.235351562 c 0
 412.545898438 205.169921875 383.458984375 181.234375 320.756835938 181.234375 c 0
 257.083007812 181.234375 215 226 215 296 c 0
 215 409.011219447 332.669984078 462.714230801 422.821289062 471.86328125 c 0
 450.168945312 474.638671875 468.915039062 449.625 463.083984375 407.5078125 c 0
 445.25 278.690429688 476.193359375 264.706054688 507.209960938 274 c 0
 540.9453125 284.108398438 550.991210938 349.172851562 550.991210938 407.3515625 c 0
 550.991210938 499.700195312 502.402762767 554.450701459 380.52734375 546.422851562 c 0
 240.987304688 537.231445312 144.350585938 437.796875 140.473632812 274.977539062 c 0
 137.088867188 132.869140625 226.66796875 76.3955078125 362.189453125 96.3740234375 c 0
 470.257795396 112.305409332 505.319335938 138.1015625 550.168945312 147.220703125 c 0
 604.026367188 158.171875 632.610351562 83.1767578125 569.984375 54.267578125 c 0
 482.677734375 13.96484375 415.72940636 7.0934480768 359.037109375 0.7939453125 c 0
 153.217773438 -22.076171875 37.32421875 87.9970703125 43.0751953125 286 c 0
 49.404296875 503.874023438 230.981445312 629.12109375 369.915039062 638 c 0
 502.716200082 646.486997469 644 588 644 406 c 0
 644 307.661132812 598.754046195 204.998597727 498.559570312 195 c 0
 467.1171875 191.862304688 425.139515832 210.073150232 403 242 c 0
EndSplineSet
Validated: 524325
EndChar

StartChar: asciicircum
Encoding: 94 94 96
Width: 369
Flags: HMW
LayerCount: 2
Fore
SplineSet
185 628 m 0
 231.96484375 631.03125 152 438 122.456054688 389.458007812 c 0
 99.0361328125 350.977539062 73 323 51 327 c 0
 29 331 12 358 26.7099609375 393.203125 c 0
 67.994140625 492.001953125 112.375976562 630.454101562 182.583007812 638.000976562 c 0
 257 646 297.171875 512.001953125 338.456054688 413.203125 c 0
 353.166015625 378 336.166015625 351 314.166015625 347 c 0
 292.166015625 343 266.129882812 370.977539062 242.709960938 409.458007812 c 0
 213.166015625 458 136.46875 624.8671875 185 628 c 0
EndSplineSet
Validated: 37
EndChar

StartChar: bar
Encoding: 124 124 97
Width: 218
Flags: MW
LayerCount: 2
Fore
SplineSet
156.272460938 641 m 0
 164.272460938 619 165.272460938 594 165.272460938 532 c 0
 165.272460938 470 164.272460938 430 164.272460938 322 c 0
 164.272460938 213.92578125 161.272460938 -5 151.272460938 -18 c 0
 141.272460938 -31 131.272460938 -40 106.272460938 -40 c 0
 81.2724609375 -40 57.2724609375 -34 55.2724609375 14 c 0
 53.2724609375 62 50.2724609375 633 56.2724609375 651 c 0
 62.2724609375 669 75.2724609375 681 97.2724609375 681 c 0
 119.272460938 681 146.180664062 668.751953125 156.272460938 641 c 0
EndSplineSet
Validated: 33
EndChar

StartChar: asciitilde
Encoding: 126 126 98
Width: 427
Flags: HMW
LayerCount: 2
Fore
SplineSet
246.32421875 334.475585938 m 4
 270.385742188 314.365234375 291.973632812 312.33203125 322.283203125 325.818359375 c 4
 403.598632812 362 423.448242188 272.8046875 364.802734375 245.596679688 c 4
 291.922851562 211.78515625 223.814453125 238.584960938 184.514648438 264.083007812 c 4
 161.3671875 279.100585938 136.392578125 287.44140625 108.556640625 272.739257812 c 4
 28.736328125 230.580078125 -2.337890625 315.176757812 66.0361328125 352.9609375 c 4
 137.228515625 392.302734375 209.405273438 365.333007812 246.32421875 334.475585938 c 4
EndSplineSet
Validated: 33
EndChar

StartChar: sterling
Encoding: 163 163 99
Width: 541
Flags: HMW
LayerCount: 2
Fore
SplineSet
182.08203125 545 m 0
 234.873046875 641.342773438 310.634765625 654 372.763671875 654 c 0
 456.763671875 654 491.763671875 616 497.763671875 584 c 0
 503.763671875 552 484.763671875 526 448.763671875 526 c 0
 415.703125 526 409.689453125 546.504882812 374.763671875 549 c 0
 332.763671875 552 280.697265625 537.01953125 253.08203125 462 c 0
 217.0078125 364 264.438476562 284.252929688 194.546875 50.4765625 c 0
 183.342773438 13.0009765625 159.354492188 -7.8876953125 123.904296875 2.7099609375 c 0
 95.0185546875 11.3466796875 78.8544921875 37.0537109375 92.8896484375 84 c 0
 168.810546875 337.94140625 99.8896484375 395 182.08203125 545 c 0
217.0078125 364 m 0
 262.551757812 370.461914062 291.0078125 376 326.0078125 363 c 0
 363.994140625 348.890625 364.526367188 296.362304688 337.0078125 280 c 0
 300.0078125 258 276.0234375 258.817382812 205.8671875 248.86328125 c 0
 160.323242188 242.401367188 123.60546875 228.528320312 74.908203125 236.44140625 c 0
 17.453125 245.778320312 21.490234375 304.2109375 51.521484375 320.084960938 c 0
 96.1220703125 343.66015625 146.8515625 354.045898438 217.0078125 364 c 0
54.8896484375 27 m 0
 55.8896484375 83 159.884765625 132.071289062 298.889648438 142 c 0
 452.889648438 153 514.889648438 141 511.889648438 84 c 0
 508.473632812 19.08984375 414.889648438 41 290.889648438 30 c 0
 207.004882812 22.55859375 153.17578125 -4.541015625 120.889648438 -12 c 0
 84.1953125 -20.4775390625 54.318359375 -5.0107421875 54.8896484375 27 c 0
EndSplineSet
Validated: 524325
EndChar

StartChar: yen
Encoding: 165 165 100
Width: 453
Flags: HMW
AnchorPoint: "Anchor-2" 36.1699 -37 basechar 0
AnchorPoint: "Anchor-0" 240.17 639 basechar 0
LayerCount: 2
Fore
SplineSet
194.140625 202.13671875 m 0
 239.684570312 208.598632812 308.140625 214.13671875 343.140625 201.13671875 c 0
 381.126953125 187.02734375 381.659179688 134.499023438 354.140625 118.13671875 c 0
 317.140625 96.13671875 253.15625 96.9541015625 183 87 c 0
 137.456054688 80.5380859375 60.73828125 66.6650390625 12.041015625 74.578125 c 0
 -45.4140625 83.9150390625 -41.376953125 142.34765625 -11.345703125 158.221679688 c 0
 33.2548828125 181.796875 123.984375 192.182617188 194.140625 202.13671875 c 0
228.140625 358.13671875 m 0
 273.684570312 364.598632812 342.140625 370.13671875 377.140625 357.13671875 c 0
 415.126953125 343.02734375 415.659179688 290.499023438 388.140625 274.13671875 c 0
 351.140625 252.13671875 287.15625 252.954101562 217 243 c 0
 171.456054688 236.538085938 94.73828125 222.665039062 46.041015625 230.578125 c 0
 -11.4140625 239.915039062 -7.376953125 298.34765625 22.654296875 314.221679688 c 0
 67.2548828125 337.796875 157.984375 348.182617188 228.140625 358.13671875 c 0
243.078125 324.936523438 m 0
 258.131835938 298.72265625 253.241210938 261.677734375 233.720703125 247.396484375 c 0
 212.00390625 231.509765625 174.690429688 247.059570312 155.37890625 272.764648438 c 0
 76.32421875 377.990234375 26.646484375 473.818359375 7.3125 529 c 0
 -11.548828125 582.833984375 -2.6875 618 29.3125 631 c 0
 58.8564453125 643.001953125 93.5986328125 636.401367188 113.3125 585 c 0
 131.01953125 538.83203125 181.998046875 431.297851562 243.078125 324.936523438 c 0
408 461 m 0
 383.580078125 417.581054688 362.311864551 383.000391751 295.096679688 273.971679688 c 0
 226.848632812 163.267578125 127.368164062 42.4931640625 89.427734375 14.4736328125 c 0
 51.48828125 -13.5458984375 23.0625 -10.0498046875 6.75 10.978515625 c 0
 -7.9111328125 29.880859375 -5.42928601201 48.3682503936 20.099609375 87.8876953125 c 0
 45.6279296875 127.40625 205.232421875 327.5390625 263 436 c 0
 293.653320312 493.552734375 383 683 444 640 c 0
 488.983358183 608.290419641 440.223632812 518.293945312 408 461 c 0
EndSplineSet
Validated: 524325
EndChar

StartChar: cent
Encoding: 162 162 101
Width: 391
VWidth: 800
Flags: HMW
LayerCount: 2
Fore
SplineSet
267 105 m 4
 275 86.62890625 278.009765625 62.04296875 279 55 c 4
 280 47.888671875 281 30.0263671875 281 13.2666015625 c 4
 281 -3.466796875 277.59819046 -27.1263870296 268 -41.7353515625 c 4
 256 -60 238 -70 213 -70 c 4
 188 -70 172 -58 172 -6.4443359375 c 4
 172 46.5319068583 167 93.3349609375 173 108.364257812 c 4
 179 123.39453125 192 133.416015625 214 133.416015625 c 4
 236 133.416015625 256.908203125 128.173828125 267 105 c 4
291 651.93359375 m 0
 299 633.5625 300 610.112304688 300 603 c 0
 300 595.888671875 299 581.9453125 299 565.185546875 c 0
 299 548.452148438 296 524.520507812 286 510.18359375 c 0
 276 495.846679688 266 485.918945312 241 485.918945312 c 0
 216 485.918945312 192 492.537109375 190 545.474609375 c 0
 188 598.413085938 185 645.25390625 191 660.283203125 c 0
 197 675.313476562 210 685.334960938 232 685.334960938 c 0
 254 685.334960938 280.908203125 675.107421875 291 651.93359375 c 0
269.658203125 392 m 0
 270.379882812 407.997070312 271.194335938 460.094726562 249.8125 465 c 0
 223.658203125 471 197.658203125 452 178.658203125 414 c 0
 161.853515625 380.390625 140.921875 336.376953125 136.01171875 257.200195312 c 0
 131.658203125 187 148.512695312 148.599609375 199.8125 148.599609375 c 0
 238.658203125 148.599609375 264.895507812 161.571289062 294.658203125 183 c 0
 349.134765625 222.22265625 390.305664062 173.598632812 348.458984375 114 c 0
 313.8828125 64.755859375 260.612304688 37.2001953125 185.412109375 42 c 0
 110.211914062 46.7998046875 22.271484375 97.4716796875 25.412109375 243.599609375 c 0
 27.52734375 342 54.7265625 412.400390625 94.2119140625 470 c 0
 143.646484375 542.114257812 199.708984375 568.400390625 249.412109375 568.400390625 c 0
 316.612304688 568.400390625 356.612304688 520.400390625 358.211914062 445.200195312 c 0
 359.8125 370 323.099609375 353.783203125 308.612304688 354 c 0
 285.243164062 354.349609375 268.3046875 362 269.658203125 392 c 0
EndSplineSet
Validated: 524325
EndChar

StartChar: brokenbar
Encoding: 166 166 102
Width: 218
Flags: MW
LayerCount: 2
Fore
SplineSet
164.078125 240 m 4
 163.276367188 125.75 159.848412372 -6.85126313501 151.272460938 -18 c 0
 141.272460938 -31 131.272460938 -40 106.272460938 -40 c 0
 81.2724609375 -40 57.2724609375 -34 55.2724609375 14 c 0
 54.4358973002 34.0775272943 53.4248046875 115.659179688 52.9697265625 240 c 4
 52.9697265625 274 77.7197265625 293.16796875 106 294 c 4
 140 295 164.078125 274.379882812 164.078125 240 c 4
156.272460938 641 m 0
 164.272460938 619 165.272460938 594 165.272460938 532 c 0
 165.272460938 493.978519014 164.896484375 434.23046875 164.60546875 392 c 4
 164.60546875 361.759765625 138 336 99 342 c 4
 71.5146484375 346.228515625 52.740234375 360 52.740234375 392 c 4
 52.8544921875 512.076171875 53.7977382496 643.575831936 56.2724609375 651 c 0
 62.2724609375 669 75.2724609375 681 97.2724609375 681 c 0
 119.272460938 681 146.180664062 668.751953125 156.272460938 641 c 0
EndSplineSet
Validated: 33
EndChar

StartChar: paragraph
Encoding: 182 182 103
Width: 641
Flags: HMW
LayerCount: 2
Fore
SplineSet
536.272460938 601 m 0
 544.272460938 579 545.272460938 554 545.272460938 492 c 0
 545.272460938 430 544.272460938 430 544.272460938 322 c 0
 544.272460938 213.92578125 541.272460938 25 531.272460938 12 c 0
 521.272460938 -1 511.272460938 -10 486.272460938 -10 c 0
 461.272460938 -10 437.272460938 -4 435.272460938 44 c 0
 433.272460938 92 430.272460938 593 436.272460938 611 c 0
 442.272460938 629 455.272460938 641 477.272460938 641 c 0
 499.272460938 641 526.180664062 628.751953125 536.272460938 601 c 0
376.272460938 601 m 0
 384.272460938 579 385.272460938 554 385.272460938 492 c 0
 385.272460938 430 384.272460938 430 384.272460938 322 c 0
 384.272460938 213.92578125 381.272460938 5 371.272460938 -8 c 0
 361.272460938 -21 351.272460938 -30 326.272460938 -30 c 0
 301.272460938 -30 277.272460938 -24 275.272460938 24 c 0
 273.272460938 72 270.272460938 593 276.272460938 611 c 0
 282.272460938 629 295.272460938 641 317.272460938 641 c 0
 339.272460938 641 366.180664062 628.751953125 376.272460938 601 c 0
528.859375 548.748046875 m 0
 271 552 144.185159409 536.477248551 145.43359375 418.748046875 c 0
 145.965687599 368.57081131 174.545898438 346.748046875 230.046875 346.748046875 c 0
 271.046875 346.748046875 276 350 298 359 c 0
 327.108398438 370.908203125 352.188412709 354.413077935 356 324 c 0
 361.84375 277.372070312 319.239257812 239.748046875 247.046875 239.748046875 c 0
 122.708984375 239.748046875 49.7887355897 301.502284418 49.048828125 414.748046875 c 0
 47.8090341682 604.5034131 198.240234375 670.748046875 546.859375 650.748046875 c 0
 573.00390625 649.248046875 612.052734375 632.994140625 607 591 c 0
 601.944335938 548.977539062 556.026367188 548.405273438 528.859375 548.748046875 c 0
EndSplineSet
Validated: 37
EndChar

StartChar: mu
Encoding: 181 181 104
Width: 428
Flags: HMW
AnchorPoint: "Anchor-2" 218.67 -17 basechar 0
AnchorPoint: "Anchor-3" 327.67 0 basechar 0
AnchorPoint: "Anchor-0" 219.67 531 basechar 0
LayerCount: 2
Fore
SplineSet
125 451 m 0
 130.909179688 428.348632812 130.000976562 400 130.000976562 338 c 0
 130.000976562 276 129.000976562 220 129.000976562 112 c 0
 129.000976562 3.92578125 128.452148438 -75 114.452148438 -125 c 0
 105.92578125 -155.451171875 86.4521484375 -180 61.4521484375 -180 c 0
 36.4521484375 -180 20.4521484375 -162 20.0009765625 -130 c 0
 19.3232421875 -81.962890625 37 438 43 456 c 0
 49 474 60.0009765625 487 82.0009765625 487 c 0
 104.000976562 487 119 474 125 451 c 0
388.376953125 479 m 0
 394.703125 456.142578125 398.795898438 422.407226562 398.795898438 357.98828125 c 0
 398.795898438 293.5703125 398.004882812 293.5703125 398.004882812 181.356445312 c 0
 398.004882812 69.068359375 396.376953125 38.6689453125 388.376953125 24.4208984375 c 0
 380.376953125 10.173828125 367.376953125 0 347.376953125 0 c 0
 327.376953125 0 293.177734375 6.884765625 291.577148438 59.4931640625 c 0
 289.977539062 112.100585938 288.200195312 462.928710938 292.9453125 481.630859375 c 0
 297.690429688 500.333007812 320.791015625 515.200195312 338.188476562 515.200195312 c 0
 355.584960938 515.200195312 380.396484375 507.834960938 388.376953125 479 c 0
200.98828125 -8 m 0
 155.956054688 -16.0830078125 110.999875882 2.99993148386 88.587890625 43.599609375 c 0
 44.408203125 123.631835938 43.9626234583 286.8073333 39 394 c 0
 34 502 72.98828125 505.200195312 92.1884765625 505.200195312 c 0
 111.388671875 505.200195312 155.60546875 500.185546875 150.388671875 442.799804688 c 0
 148.788085938 425.200195312 147.188476562 399.599609375 147.188476562 322.799804688 c 0
 147.188476562 158.400390625 152.48046875 86.72265625 200.188476562 98.400390625 c 0
 246.453125 109.724609375 287.188476562 178.400390625 287.188476562 332.799804688 c 0
 287.188476562 409.599609375 285.588867188 435.200195312 283.98828125 452.799804688 c 0
 278.771484375 510.185546875 318.98828125 515.200195312 338.188476562 515.200195312 c 0
 357.388671875 515.200195312 382.989257812 502.400390625 387.7890625 411.200195312 c 0
 393.428710938 304.041015625 374.775390625 222.829101562 333.376953125 139 c 0
 301.96875 75.400390625 283.616210938 6.8310546875 200.98828125 -8 c 0
EndSplineSet
Validated: 524325
EndChar

StartChar: U.ss05
Encoding: 65540 -1 105
Width: 503
Flags: HW
AnchorPoint: "Anchor-2" 225.671 -17 basechar 0
AnchorPoint: "Anchor-3" 233.671 0 basechar 0
AnchorPoint: "Anchor-0" 262.671 658 basechar 0
LayerCount: 2
Fore
SplineSet
450.670898438 598 m 0
 458.670898438 576 473.206054688 550 473.206054688 488 c 0
 473.206054688 426 472.206054688 430 472.206054688 322 c 0
 472.206054688 213.92578125 472.135742188 65 459.670898438 34 c 0
 453.551757812 18.783203125 439.206054688 0 414.206054688 0 c 0
 379.206054688 0 362.670898438 19 360.670898438 67 c 0
 358.670898438 115 377.670898438 513 383.670898438 531 c 0
 389.670898438 549 383.206054688 637 405.206054688 637 c 0
 427.206054688 637 440.579101562 625.751953125 450.670898438 598 c 0
56.443359375 591 m 0
 58.44921875 624.674804688 89.443359375 636 106.443359375 636 c 0
 117.844726562 636 163.581054688 631.811523438 158.443359375 562 c 0
 146.971679688 406.122070312 137.258789062 315.229492188 127.93359375 230 c 0
 116.942382812 129.541992188 163.5703125 90.4462890625 225.443359375 98 c 0
 331.93359375 111 365.443359375 173 365.443359375 416 c 0
 365.443359375 512 363.443359375 544 361.443359375 566 c 0
 354.922851562 637.732421875 386.443359375 644 410.443359375 644 c 0
 434.443359375 644 466.443359375 628 472.443359375 514 c 0
 479.493164062 380.05078125 446.670898438 242 399.670898438 135 c 0
 364.775390625 55.556640625 319.932617188 0 226.443359375 -10 c 0
 81.271484375 -25.5283203125 10.6005859375 110.731445312 27.443359375 236 c 0
 43.15234375 352.830078125 47.6455078125 443.249023438 56.443359375 591 c 0
EndSplineSet
Validated: 524325
EndChar

StartChar: acute
Encoding: 180 180 106
Width: 208
Flags: HW
LayerCount: 2
Fore
SplineSet
13.025390625 509.186523438 m 4
 -0.951171875 541.09375 31.2880859375 561.350585938 69.6201171875 599.682617188 c 4
 97.08984375 627.15234375 139.376953125 661.958007812 172 640 c 4
 224 605 176.993164062 549.258789062 148.004882812 525.228515625 c 4
 85 473 28 475 13.025390625 509.186523438 c 4
EndSplineSet
Validated: 33
EndChar

StartChar: uni00AD
Encoding: 173 173 107
Width: 427
Flags: HW
LayerCount: 2
Fore
SplineSet
218.118164062 364 m 4
 263.662109375 370.461914062 292.118164062 376 327.118164062 363 c 4
 365.104492188 348.890625 365.63671875 296.362304688 338.118164062 280 c 4
 301.118164062 258 277.133789062 258.817382812 206.977539062 248.86328125 c 4
 161.43359375 242.401367188 124.715820312 228.528320312 76.0185546875 236.44140625 c 4
 18.5634765625 245.778320312 22.6005859375 304.2109375 52.6318359375 320.084960938 c 4
 97.232421875 343.66015625 147.961914062 354.045898438 218.118164062 364 c 4
EndSplineSet
Validated: 33
EndChar

StartChar: guillemotleft
Encoding: 171 171 108
Width: 720
Flags: HW
LayerCount: 2
Fore
SplineSet
668.446289062 516.51953125 m 4
 676.494140625 487.431640625 656.51171875 467.254882812 644.58203125 458.178710938 c 4
 605.63671875 428.547851562 429.8046875 322.537109375 428.56640625 321.749023438 c 5
 520.427734375 265.116210938 621.004882812 214.712890625 634.044921875 201.272460938 c 4
 654.59375 180.092773438 656.05859375 160.581054688 652.556640625 147.424804688 c 4
 648.338867188 131.578125 629.952148438 105.260742188 593.90234375 114.856445312 c 4
 540.466796875 129.078125 384.588867188 237.581054688 382.579101562 238.984375 c 4
 337.975585938 270.127929688 321 290.983398438 321 322 c 4
 321 352.770507812 351.138671875 372.95703125 359.61328125 381.494140625 c 4
 375.16015625 397.154296875 553.434570312 531.317382812 606.041992188 545.872070312 c 4
 641.684570312 555.733398438 662.756835938 537.084960938 668.446289062 516.51953125 c 4
368.446289062 516.51953125 m 0
 376.494140625 487.431640625 356.51171875 467.254882812 344.58203125 458.178710938 c 0
 305.63671875 428.547851562 129.8046875 322.537109375 128.56640625 321.749023438 c 1
 220.427734375 265.116210938 321.004882812 214.712890625 334.044921875 201.272460938 c 0
 354.59375 180.092773438 356.05859375 160.581054688 352.556640625 147.424804688 c 0
 348.338867188 131.578125 329.952148438 105.260742188 293.90234375 114.856445312 c 0
 240.466796875 129.078125 84.5888671875 237.581054688 82.5791015625 238.984375 c 0
 37.9755859375 270.127929688 21 290.983398438 21 322 c 0
 21 352.770507812 51.138671875 372.95703125 59.61328125 381.494140625 c 0
 75.16015625 397.154296875 253.434570312 531.317382812 306.041992188 545.872070312 c 0
 341.684570312 555.733398438 362.756835938 537.084960938 368.446289062 516.51953125 c 0
EndSplineSet
Validated: 33
EndChar

StartChar: guilsinglleft
Encoding: 8249 8249 109
Width: 420
Flags: HW
LayerCount: 2
Fore
SplineSet
368.446289062 516.51953125 m 0
 376.494140625 487.431640625 356.51171875 467.254882812 344.58203125 458.178710938 c 0
 305.63671875 428.547851562 129.8046875 322.537109375 128.56640625 321.749023438 c 1
 220.427734375 265.116210938 331.004882812 204.712890625 344.044921875 191.272460938 c 4
 364.59375 170.092773438 366.05859375 150.581054688 362.556640625 137.424804688 c 4
 358.338867188 121.578125 339.952148438 95.2607421875 303.90234375 104.856445312 c 4
 250.466796875 119.078125 84.5888671875 237.581054688 82.5791015625 238.984375 c 0
 37.9755859375 270.127929688 21 290.983398438 21 322 c 0
 21 352.770507812 51.138671875 372.95703125 59.61328125 381.494140625 c 0
 75.16015625 397.154296875 253.434570312 531.317382812 306.041992188 545.872070312 c 0
 341.684570312 555.733398438 362.756835938 537.084960938 368.446289062 516.51953125 c 0
EndSplineSet
Validated: 33
EndChar

StartChar: guilsinglright
Encoding: 8250 8250 110
Width: 420
Flags: HW
LayerCount: 2
Fore
SplineSet
22.8583984375 516.51953125 m 0
 28.5478515625 537.084960938 49.6201171875 555.733398438 85.2626953125 545.872070312 c 0
 137.870117188 531.317382812 316.14453125 397.154296875 331.69140625 381.494140625 c 0
 340.166015625 372.95703125 370.3046875 352.770507812 370.3046875 322 c 0
 370.3046875 290.983398438 353.329101562 270.127929688 308.725585938 238.984375 c 0
 306.715820312 237.581054688 140.837890625 119.078125 87.40234375 104.856445312 c 4
 51.3525390625 95.2607421875 32.9658203125 121.578125 28.748046875 137.424804688 c 4
 25.24609375 150.581054688 26.7109375 170.092773438 47.259765625 191.272460938 c 4
 60.2998046875 204.712890625 170.876953125 265.116210938 262.73828125 321.749023438 c 1
 261.5 322.537109375 85.66796875 428.547851562 46.72265625 458.178710938 c 0
 34.79296875 467.254882812 14.810546875 487.431640625 22.8583984375 516.51953125 c 0
EndSplineSet
Validated: 33
EndChar

StartChar: guillemotright
Encoding: 187 187 111
Width: 720
Flags: HW
LayerCount: 2
Fore
SplineSet
22.8583984375 144.874023438 m 4
 14.810546875 173.961914062 34.79296875 194.138671875 46.72265625 203.21484375 c 4
 85.66796875 232.845703125 261.5 338.856445312 262.73828125 339.64453125 c 5
 170.876953125 396.27734375 70.2998046875 446.680664062 57.259765625 460.12109375 c 4
 36.7109375 481.30078125 35.24609375 500.8125 38.748046875 513.96875 c 4
 42.9658203125 529.815429688 61.3525390625 556.1328125 97.40234375 546.537109375 c 4
 150.837890625 532.315429688 306.715820312 423.8125 308.725585938 422.409179688 c 4
 353.329101562 391.265625 370.3046875 370.41015625 370.3046875 339.393554688 c 4
 370.3046875 308.623046875 340.166015625 288.436523438 331.69140625 279.899414062 c 4
 316.14453125 264.239257812 137.870117188 130.076171875 85.2626953125 115.521484375 c 4
 49.6201171875 105.66015625 28.5478515625 124.30859375 22.8583984375 144.874023438 c 4
322.858398438 144.874023438 m 0
 314.810546875 173.961914062 334.79296875 194.138671875 346.72265625 203.21484375 c 0
 385.66796875 232.845703125 561.5 338.856445312 562.73828125 339.64453125 c 1
 470.876953125 396.27734375 370.299804688 446.680664062 357.259765625 460.12109375 c 0
 336.7109375 481.30078125 335.24609375 500.8125 338.748046875 513.96875 c 0
 342.965820312 529.815429688 361.352539062 556.1328125 397.40234375 546.537109375 c 0
 450.837890625 532.315429688 606.715820312 423.8125 608.725585938 422.409179688 c 0
 653.329101562 391.265625 670.3046875 370.41015625 670.3046875 339.393554688 c 0
 670.3046875 308.623046875 640.166015625 288.436523438 631.69140625 279.899414062 c 0
 616.14453125 264.239257812 437.870117188 130.076171875 385.262695312 115.521484375 c 0
 349.620117188 105.66015625 328.547851562 124.30859375 322.858398438 144.874023438 c 0
EndSplineSet
Validated: 33
EndChar

StartChar: K.ss06
Encoding: 65541 -1 112
Width: 471
Flags: HW
AnchorPoint: "Anchor-2" 230.01 0 basechar 0
AnchorPoint: "Anchor-0" 234.01 644 basechar 0
LayerCount: 2
Fore
SplineSet
229.009765625 358 m 0
 268.009765625 376 297.275390625 353.428710938 303.009765625 323 c 0
 308.400390625 294.396484375 407.969726562 129.427734375 436.009765625 92 c 0
 466.3515625 51.4990234375 451.009765625 15 423.009765625 0 c 0
 395.009765625 -15 364.017578125 5.0068359375 333.009765625 41 c 0
 307.947265625 70.091796875 227.063476562 222.328125 219.009765625 259 c 0
 212.047851562 290.696289062 190.735351562 340.334960938 229.009765625 358 c 0
133.544921875 597 m 0
 141.544921875 575 142.544921875 550 142.544921875 488 c 0
 142.544921875 426 141.544921875 430 141.544921875 322 c 0
 141.544921875 213.92578125 138.544921875 35 128.544921875 22 c 0
 118.544921875 9 108.544921875 0 83.544921875 0 c 0
 58.544921875 0 34.544921875 6 32.544921875 54 c 0
 30.544921875 102 27.544921875 589 33.544921875 607 c 0
 39.544921875 625 52.544921875 637 74.544921875 637 c 0
 96.544921875 637 123.453125 624.751953125 133.544921875 597 c 0
425.743164062 520.490234375 m 0
 419.91015625 447.23046875 380.0390625 373.959960938 308.217773438 316.240234375 c 0
 244.619140625 265.127929688 149.340820312 207.459960938 112.341796875 235.209960938 c 0
 75.34375 262.959960938 92.7548828125 309.580078125 116.6953125 320.6796875 c 0
 140.635742188 331.780273438 149.340820312 327.33984375 205.926757812 363.969726562 c 0
 262.513671875 400.599609375 284.767578125 431.690429688 304.354492188 513.830078125 c 0
 318.858398438 574.65234375 329.817382812 647.322265625 382.911132812 629.26953125 c 0
 402.499023438 622.610351562 431.770507812 596.19140625 425.743164062 520.490234375 c 0
EndSplineSet
Validated: 524325
EndChar

StartChar: K.ss07
Encoding: 65542 -1 113
Width: 459
Flags: HW
AnchorPoint: "Anchor-2" 230.01 0 basechar 0
AnchorPoint: "Anchor-0" 234.01 644 basechar 0
LayerCount: 2
Fore
SplineSet
133.544921875 597 m 0
 141.544921875 575 142.544921875 550 142.544921875 488 c 0
 142.544921875 426 141.544921875 430 141.544921875 322 c 0
 141.544921875 213.92578125 138.544921875 35 128.544921875 22 c 0
 118.544921875 9 108.544921875 0 83.544921875 0 c 0
 58.544921875 0 34.544921875 6 32.544921875 54 c 0
 30.544921875 102 27.544921875 589 33.544921875 607 c 0
 39.544921875 625 52.544921875 637 74.544921875 637 c 0
 96.544921875 637 123.453125 624.751953125 133.544921875 597 c 0
425.743164062 520.490234375 m 4
 419.91015625 447.23046875 380.0390625 373.959960938 308.217773438 316.240234375 c 4
 244.619140625 265.127929688 149.340820312 207.459960938 112.341796875 235.209960938 c 4
 75.34375 262.959960938 92.7548828125 309.580078125 116.6953125 320.6796875 c 4
 140.635742188 331.780273438 149.340820312 327.33984375 205.926757812 363.969726562 c 4
 262.513671875 400.599609375 284.767578125 431.690429688 304.354492188 513.830078125 c 4
 318.858398438 574.65234375 329.817382812 647.322265625 382.911132812 629.26953125 c 4
 402.499023438 622.610351562 431.770507812 596.19140625 425.743164062 520.490234375 c 4
323.6328125 344 m 4
 382.6328125 317 426.037109375 270.333984375 433.682617188 160.485351562 c 4
 439.6328125 75 425.260742188 19.7236328125 392.646484375 -0.923828125 c 4
 365.754882812 -17.9482421875 316.213867188 -0.47265625 323.770507812 70.62109375 c 4
 332.6328125 154 324.6328125 248 261.6328125 267 c 4
 198.6328125 286 209.6328125 316 234.6328125 334 c 4
 270.123046875 359.552734375 295.094726562 357.059570312 323.6328125 344 c 4
EndSplineSet
Validated: 524325
EndChar

StartChar: quoteright
Encoding: 8217 8217 114
Width: 258
Flags: HW
LayerCount: 2
Fore
SplineSet
96.16015625 619.1796875 m 4
 116 656 148.904296875 680.126953125 183.916015625 662.8125 c 4
 226 642 213.796875 600.994140625 197.548828125 565.055664062 c 4
 160 482 79 420 40.296875 453.455078125 c 4
 4.51953125 484.380859375 65.685546875 562.622070312 96.16015625 619.1796875 c 4
EndSplineSet
Validated: 33
Substitution2: "'ss13' Style Set 13 lookup 16-1" quoteright.titl
Substitution2: "'titl' Titling lookup 11-1" quoteright.titl
EndChar

StartChar: quoteleft
Encoding: 8216 8216 115
Width: 258
Flags: HW
LayerCount: 2
Fore
SplineSet
161.685546875 622.700195312 m 0
 192.16015625 566.142578125 253.326171875 487.901367188 217.548828125 456.975585938 c 0
 178.845703125 423.520507812 97.845703125 485.520507812 60.296875 568.576171875 c 0
 44.048828125 604.514648438 31.845703125 645.520507812 73.9296875 666.333007812 c 0
 108.94140625 683.647460938 141.845703125 659.520507812 161.685546875 622.700195312 c 0
EndSplineSet
Validated: 33
Substitution2: "'ss13' Style Set 13 lookup 16-1" quoteleft.titl
Substitution2: "'titl' Titling lookup 11-1" quoteleft.titl
EndChar

StartChar: quotedblleft
Encoding: 8220 8220 116
Width: 438
Flags: HW
LayerCount: 2
Fore
SplineSet
331.685546875 622.700195312 m 0
 362.16015625 566.142578125 423.326171875 487.901367188 387.548828125 456.975585938 c 0
 348.845703125 423.520507812 267.845703125 485.520507812 230.296875 568.576171875 c 0
 214.048828125 604.514648438 201.845703125 645.520507812 243.9296875 666.333007812 c 0
 278.94140625 683.647460938 311.845703125 659.520507812 331.685546875 622.700195312 c 0
161.685546875 592.700195312 m 0
 192.16015625 536.142578125 253.326171875 457.901367188 217.548828125 426.975585938 c 0
 178.845703125 393.520507812 97.845703125 455.520507812 60.296875 538.576171875 c 0
 44.048828125 574.514648438 31.845703125 615.520507812 73.9296875 636.333007812 c 0
 108.94140625 653.647460938 141.845703125 629.520507812 161.685546875 592.700195312 c 0
EndSplineSet
Validated: 33
Substitution2: "'ss13' Style Set 13 lookup 16-1" quotedblleft.titl
Substitution2: "'titl' Titling lookup 11-1" quotedblleft.titl
EndChar

StartChar: quotedblright
Encoding: 8221 8221 117
Width: 428
Flags: HW
LayerCount: 2
Fore
SplineSet
266.16015625 589.1796875 m 4
 286 626 318.904296875 650.126953125 353.916015625 632.8125 c 4
 396 612 383.796875 570.994140625 367.548828125 535.055664062 c 4
 330 452 249 390 210.296875 423.455078125 c 4
 174.51953125 454.380859375 235.685546875 532.622070312 266.16015625 589.1796875 c 4
96.16015625 619.1796875 m 4
 116 656 148.904296875 680.126953125 183.916015625 662.8125 c 4
 226 642 213.796875 600.994140625 197.548828125 565.055664062 c 4
 160 482 79 420 40.296875 453.455078125 c 4
 4.51953125 484.380859375 65.685546875 562.622070312 96.16015625 619.1796875 c 4
EndSplineSet
Validated: 33
Substitution2: "'ss13' Style Set 13 lookup 16-1" quotedblright.titl
Substitution2: "'titl' Titling lookup 11-1" quotedblright.titl
EndChar

StartChar: three.ss08
Encoding: 65543 -1 118
Width: 495
Flags: HW
LayerCount: 2
Fore
SplineSet
38.3837890625 569 m 0
 39.3837890625 625 123.37890625 634.071289062 262.383789062 644 c 0
 416.383789062 655 468.383789062 643 465.383789062 586 c 0
 461.967773438 521.08984375 378.383789062 543 254.383789062 532 c 0
 170.499023438 524.55859375 136.383789062 520 104.383789062 520 c 0
 66.72265625 520 37.8125 536.989257812 38.3837890625 569 c 0
456.9375 538.05859375 m 0
 432.916992188 492.05859375 399.620117188 450.682617188 357.919921875 410 c 0
 316.919921875 370 286.865234375 351.3203125 249.919921875 322 c 0
 212.974609375 292.6796875 203.354492188 290.908203125 186.32421875 311.357421875 c 0
 171.014648438 329.740234375 165.04296875 354.150390625 196.994140625 388.684570312 c 0
 238.919921875 434 283.919921875 482 311.919921875 524 c 0
 380.98046875 627.58984375 372.893554688 657 437.383789062 634 c 0
 465.831054688 623.854492188 486.1875 594.073242188 456.9375 538.05859375 c 0
186.32421875 311.357421875 m 0
 178.5703125 325.07421875 223.662109375 353.283203125 235.919921875 360 c 0
 381.919921875 440 464.419921875 348.10546875 464.419921875 252 c 0
 464.419921875 137 415.919921875 0 198.419921875 -10 c 0
 53.44921875 -16.6650390625 36.419921875 89 36.419921875 126 c 0
 36.419921875 150.819335938 56.912109375 174 87.919921875 174 c 0
 114.919921875 174 129.419921875 162 131.419921875 132 c 0
 133.697265625 97.841796875 184.430664062 92.7294921875 202.419921875 94 c 0
 312.413085938 101.771484375 352.419921875 162 352.419921875 240 c 0
 352.419921875 282.42578125 326.236328125 303.047851562 284.919921875 302 c 0
 251.913085938 301.163085938 202.919921875 282 186.32421875 311.357421875 c 0
38.3837890625 569 m 1
 38.3837890625 569 101.919921875 592 131.919921875 596 c 0
 161.919921875 600 166.954101562 570.870117188 158.919921875 508 c 0
 151.620117188 450.874023438 136.990234375 409.614257812 101.939453125 406.767578125 c 0
 66.8896484375 403.920898438 48.4404296875 433.162109375 49.2314453125 473.1796875 c 0
 49.919921875 508 42.2763671875 525 38.3837890625 569 c 1
EndSplineSet
Validated: 524325
Substitution2: "'dnom' Denominators lookup 0 subtable" three.ss08.dnom
Substitution2: "'numr' Numerators lookup 0 subtable" three.ss08.numr
EndChar

StartChar: G.ss09
Encoding: 65544 -1 119
Width: 499
Flags: HW
AnchorPoint: "Anchor-2" 226 -19 basechar 0
AnchorPoint: "Anchor-0" 305 654 basechar 0
LayerCount: 2
Fore
SplineSet
314.11328125 549 m 0
 272.11328125 552 217.758789062 523.209960938 182.432617188 452 c 0
 157.0390625 400.8125 138.076171875 358 132.432617188 259 c 0
 124.34375 117.103515625 179.432617188 96 243.432617188 92 c 0
 282.274414062 89.572265625 333 103 360.11328125 143 c 0
 360.11328125 143 369.776367188 243.616210938 369.11328125 292 c 1
 369.11328125 292 346.17578125 286.298828125 318.11328125 287 c 0
 278.11328125 288 272.298828125 312.09375 275.11328125 333 c 0
 282.11328125 385 366.11328125 411 411.11328125 410 c 0
 456.11328125 409 465.11328125 391 468.11328125 300 c 0
 471.11328125 209 469.11328125 136 442.432617188 89 c 0
 404.081054688 21.44140625 319.432617188 -16 225.432617188 -10 c 0
 131.432617188 -4 21.5068359375 59.33984375 25.4326171875 242 c 0
 28.076171875 365 62.076171875 453 111.432617188 525 c 0
 173.225585938 615.142578125 239.984375 654 302.11328125 654 c 0
 386.11328125 654 421.11328125 616 427.11328125 584 c 0
 433.11328125 552 414.11328125 526 378.11328125 526 c 0
 345.052734375 526 349.0390625 546.504882812 314.11328125 549 c 0
EndSplineSet
Validated: 524321
EndChar

StartChar: onequarter
Encoding: 188 188 120
Width: 1018
Flags: HW
LayerCount: 2
Fore
SplineSet
582 144 m 0
 611.440429688 252.669921875 633.095703125 318.212890625 639.969726562 369.669921875 c 0
 646.146484375 415.905273438 678.356445312 428.279296875 704.286132812 421.094726562 c 0
 727.595703125 414.63671875 736.873046875 398.421875 740.44921875 351.869140625 c 0
 744.026367188 305.31640625 729.471679688 237.307617188 677.927734375 109.19921875 c 0
 665.926757812 79.3720703125 630.04296875 58.0576171875 605.732421875 69.58984375 c 0
 583.879882812 79.95703125 574.095703125 114.823242188 582 144 c 0
886.272460938 321 m 0
 894.272460938 299 895.272460938 274 895.272460938 212 c 0
 895.272460938 150 894.272460938 227 894.272460938 212 c 0
 894.272460938 103.92578125 891.272460938 35 881.272460938 22 c 0
 871.272460938 9 861.272460938 0 836.272460938 0 c 0
 811.272460938 0 787.272460938 6 785.272460938 54 c 0
 783.272460938 102 780.272460938 313 786.272460938 331 c 0
 792.272460938 349 805.272460938 361 827.272460938 361 c 0
 849.272460938 361 876.180664062 348.751953125 886.272460938 321 c 0
586.452148438 104 m 0
 587.452148438 160 691.447265625 209.071289062 770.452148438 219 c 0
 923.639648438 238.250976562 986.452148438 218 983.452148438 161 c 0
 980.036132812 96.08984375 881.3046875 144.029296875 762.452148438 107 c 0
 738.567382812 99.55859375 684.73828125 72.458984375 652.452148438 65 c 0
 615.7578125 56.5224609375 585.880859375 71.9892578125 586.452148438 104 c 0
118 513 m 0
 106.727539062 510 95.13671875 507.377929688 67 508 c 0
 26.9970703125 508.884765625 21.185546875 533.09375 24 554 c 0
 31 606 115 642 160 641 c 0
 205 640 224.739257812 622 227.739257812 531 c 0
 227.94140625 519.846679688 228 507.006835938 228 492 c 0
 228 430 227 400 227 382 c 0
 227 273.92578125 224 245 214 232 c 0
 204 219 194 210 169 210 c 0
 144 210 120 216 118 264 c 0
 116 312 113 593 119 611 c 1
 118.9921875 610.991210938 154.556640625 595.3125 155 586 c 0
 156 565 148.727539062 526 118 513 c 0
631.41796875 538.05859375 m 0
 608.41796875 492.05859375 517.646484375 343.19140625 476.998046875 270.971679688 c 0
 434.012695312 194.600585938 333.524414062 53.26171875 302.181640625 18.712890625 c 0
 270.838867188 -15.8349609375 242.297851562 -17.6513671875 221.989257812 0 c 0
 203.734375 15.8671875 202.342773438 34.49609375 219.1640625 78.0517578125 c 0
 235.985351562 121.606445312 339.40234375 274.15234375 404.831054688 379.5625 c 0
 469.834960938 484.288085938 548.41796875 665.05859375 613.41796875 642.05859375 c 0
 642.08984375 631.913085938 659.424804688 594.073242188 631.41796875 538.05859375 c 0
EndSplineSet
Validated: 37
EndChar

StartChar: onehalf
Encoding: 189 189 121
Width: 958
Flags: HW
LayerCount: 2
Fore
SplineSet
576.46875 27 m 4
 577.46875 83 641.524414062 111.256835938 780.46875 122 c 4
 871 129 926.46875 121 923.46875 64 c 4
 920.052734375 -0.91015625 863 11 772.46875 0 c 4
 688.869140625 -10.158203125 674.46875 -12 642.46875 -12 c 4
 604.807617188 -12 575.897460938 -5.0107421875 576.46875 27 c 4
655 28 m 4
 601.345818034 9.93819616997 550.927762101 36.3763698203 609.004882812 78 c 4
 729 164 782.004882812 198.490234375 782.004882812 243 c 4
 782.004882812 265.305664062 764.657226562 281.495117188 730.8125 275.509765625 c 4
 667.514549411 264.315688262 669.719726562 244.047851562 634.327148438 240.125 c 4
 598.935546875 236.203125 552.788085938 278.564453125 609.991210938 331.7421875 c 4
 651.744140625 370.557617188 684.910230694 381.643466494 748.8125 387.509765625 c 4
 812.77496622 393.381590899 894 368.706054688 894 266 c 4
 894 145.490234375 756 62 655 28 c 4
118 513 m 0
 106.727539062 510 95.13671875 507.377929688 67 508 c 0
 26.9970703125 508.884765625 21.185546875 533.09375 24 554 c 0
 31 606 115 642 160 641 c 0
 205 640 224.739257812 622 227.739257812 531 c 0
 227.94140625 519.846679688 228 507.006835938 228 492 c 0
 228 430 227 400 227 382 c 0
 227 273.92578125 224 245 214 232 c 0
 204 219 194 210 169 210 c 0
 144 210 120 216 118 264 c 0
 116 312 113 593 119 611 c 1
 118.9921875 610.991210938 154.556640625 595.3125 155 586 c 0
 156 565 148.727539062 526 118 513 c 0
631.41796875 538.05859375 m 0
 608.41796875 492.05859375 517.646484375 343.19140625 476.998046875 270.971679688 c 0
 434.012695312 194.600585938 333.524414062 53.26171875 302.181640625 18.712890625 c 0
 270.838867188 -15.8349609375 242.297851562 -17.6513671875 221.989257812 0 c 0
 203.734375 15.8671875 202.342773438 34.49609375 219.1640625 78.0517578125 c 0
 235.985351562 121.606445312 339.40234375 274.15234375 404.831054688 379.5625 c 0
 469.834960938 484.288085938 548.41796875 665.05859375 613.41796875 642.05859375 c 0
 642.08984375 631.913085938 659.424804688 594.073242188 631.41796875 538.05859375 c 0
EndSplineSet
Validated: 37
EndChar

StartChar: threequarters
Encoding: 190 190 122
Width: 1153
Flags: HW
LayerCount: 2
Fore
SplineSet
31.4462890625 548.94140625 m 0
 32.4462890625 604.94140625 96.44140625 619.012695312 175.446289062 623.94140625 c 0
 329.5390625 633.5546875 381.446289062 622.94140625 378.446289062 565.94140625 c 0
 375.030273438 501.03125 291.288085938 524.599609375 167.446289062 511.94140625 c 0
 143.561523438 509.5 119.446289062 506.94140625 87.4462890625 506.94140625 c 0
 49.78515625 506.94140625 30.875 516.930664062 31.4462890625 548.94140625 c 0
381 546 m 0
 371 517 342.604492188 492.803710938 315 470 c 0
 269 432 253 420 212 394 c 0
 172.16796875 368.740234375 155.434570312 360.908203125 138.404296875 381.357421875 c 0
 123.094726562 399.740234375 117.123046875 424.150390625 149.07421875 458.684570312 c 0
 191 504 213 522 232 546 c 0
 279.307617188 605.7578125 285.956054688 636.94140625 350.446289062 613.94140625 c 0
 378.893554688 603.795898438 389.96875 572.010742188 381 546 c 0
138.404296875 381.357421875 m 0
 125 400 180.41015625 409.877929688 191 419 c 0
 292 506 400 432.10546875 400 356 c 0
 400 291 368 210 200.5 200 c 0
 55.6337890625 191.3515625 38.5 299 38.5 336 c 0
 38.5 360.819335938 58.9921875 384 90 384 c 0
 117 384 131.5 372 133.5 342 c 0
 135.77734375 307.841796875 186.615234375 301.68359375 204.5 304 c 0
 264.493164062 311.771484375 289 324 289 352 c 0
 289 374.42578125 267.701171875 379.182617188 227 372 c 0
 193 366 158.091796875 353.9765625 138.404296875 381.357421875 c 0
717 144 m 4
 746.440429688 252.669921875 768.095703125 318.212890625 774.969726562 369.669921875 c 4
 781.146484375 415.905273438 813.356445312 428.279296875 839.286132812 421.094726562 c 4
 862.595703125 414.63671875 871.873046875 398.421875 875.44921875 351.869140625 c 4
 879.026367188 305.31640625 864.471679688 237.307617188 812.927734375 109.19921875 c 4
 800.926757812 79.3720703125 765.04296875 58.0576171875 740.732421875 69.58984375 c 4
 718.879882812 79.95703125 709.095703125 114.823242188 717 144 c 4
1021.27246094 321 m 4
 1029.27246094 299 1030.27246094 274 1030.27246094 212 c 4
 1030.27246094 150 1029.27246094 227 1029.27246094 212 c 4
 1029.27246094 103.92578125 1026.27246094 35 1016.27246094 22 c 4
 1006.27246094 9 996.272460938 0 971.272460938 0 c 4
 946.272460938 0 922.272460938 6 920.272460938 54 c 4
 918.272460938 102 915.272460938 313 921.272460938 331 c 4
 927.272460938 349 940.272460938 361 962.272460938 361 c 4
 984.272460938 361 1011.18066406 348.751953125 1021.27246094 321 c 4
721.452148438 104 m 4
 722.452148438 160 826.447265625 209.071289062 905.452148438 219 c 4
 1058.63964844 238.250976562 1121.45214844 218 1118.45214844 161 c 4
 1115.03613281 96.08984375 1016.3046875 144.029296875 897.452148438 107 c 4
 873.567382812 99.55859375 819.73828125 72.458984375 787.452148438 65 c 4
 750.7578125 56.5224609375 720.880859375 71.9892578125 721.452148438 104 c 4
766.41796875 538.05859375 m 0
 743.41796875 492.05859375 652.646484375 343.19140625 611.998046875 270.971679688 c 0
 569.012695312 194.600585938 468.524414062 53.26171875 437.181640625 18.712890625 c 0
 405.838867188 -15.8349609375 377.297851562 -17.6513671875 356.989257812 0 c 0
 338.734375 15.8671875 337.342773438 34.49609375 354.1640625 78.0517578125 c 0
 370.985351562 121.606445312 474.40234375 274.15234375 539.831054688 379.5625 c 0
 604.834960938 484.288085938 683.41796875 665.05859375 748.41796875 642.05859375 c 0
 777.08984375 631.913085938 794.424804688 594.073242188 766.41796875 538.05859375 c 0
EndSplineSet
Validated: 37
EndChar

StartChar: uni00B9
Encoding: 185 185 123
Width: 258
Flags: HW
LayerCount: 2
Fore
SplineSet
118 513 m 0
 106.727539062 510 95.13671875 507.377929688 67 508 c 0
 26.9970703125 508.884765625 21.185546875 533.09375 24 554 c 0
 31 606 115 642 160 641 c 0
 205 640 224.739257812 622 227.739257812 531 c 0
 227.94140625 519.846679688 228 507.006835938 228 492 c 0
 228 430 227 400 227 382 c 0
 227 273.92578125 224 245 214 232 c 0
 204 219 194 210 169 210 c 0
 144 210 120 216 118 264 c 0
 116 312 113 593 119 611 c 1
 118.9921875 610.991210938 154.556640625 595.3125 155 586 c 0
 156 565 148.727539062 526 118 513 c 0
EndSplineSet
Validated: 37
EndChar

StartChar: uni00B2
Encoding: 178 178 124
Width: 397
Flags: HW
LayerCount: 2
Fore
SplineSet
25.337890625 234 m 4
 26.337890625 290 90.3935546875 318.256835938 229.337890625 329 c 4
 319.869140625 336 375.337890625 328 372.337890625 271 c 4
 368.921875 206.08984375 311.869140625 218 221.337890625 207 c 4
 137.73828125 196.841796875 123.337890625 195 91.337890625 195 c 4
 53.6767578125 195 24.7666015625 201.989257812 25.337890625 234 c 4
103.869140625 235 m 4
 50.21484375 216.938476562 -0.203125 243.375976562 57.8740234375 285 c 4
 177.869140625 371 233.874023438 425.490234375 233.874023438 470 c 4
 233.874023438 502.305664062 213.526367188 518.495117188 179.681640625 512.509765625 c 4
 116.383789062 501.315429688 118.588867188 481.047851562 83.1962890625 477.125 c 4
 47.8046875 473.203125 1.6572265625 515.564453125 58.8603515625 568.7421875 c 4
 100.61328125 607.557617188 133.779296875 618.643554688 197.681640625 624.509765625 c 4
 261.64453125 630.381835938 345.869140625 605.706054688 345.869140625 493 c 4
 345.869140625 372.490234375 204.869140625 269 103.869140625 235 c 4
EndSplineSet
Validated: 37
EndChar

StartChar: uni00B3
Encoding: 179 179 125
Width: 418
Flags: HW
LayerCount: 2
Fore
SplineSet
25.3427734375 548.94140625 m 0
 26.3427734375 604.94140625 90.337890625 619.012695312 169.342773438 623.94140625 c 0
 323.435546875 633.5546875 375.342773438 622.94140625 372.342773438 565.94140625 c 0
 368.926757812 501.03125 285.184570312 524.599609375 161.342773438 511.94140625 c 0
 137.458007812 509.5 113.342773438 506.94140625 81.3427734375 506.94140625 c 0
 43.681640625 506.94140625 24.771484375 516.930664062 25.3427734375 548.94140625 c 0
374.896484375 546 m 0
 364.896484375 517 336.500976562 492.803710938 308.896484375 470 c 0
 262.896484375 432 246.896484375 420 205.896484375 394 c 0
 166.064453125 368.740234375 149.331054688 360.908203125 132.30078125 381.357421875 c 0
 116.991210938 399.740234375 111.01953125 424.150390625 142.970703125 458.684570312 c 0
 184.896484375 504 206.896484375 522 225.896484375 546 c 0
 273.204101562 605.7578125 279.852539062 636.94140625 344.342773438 613.94140625 c 0
 372.790039062 603.795898438 383.865234375 572.010742188 374.896484375 546 c 0
132.30078125 381.357421875 m 0
 118.896484375 400 174.306640625 409.877929688 184.896484375 419 c 0
 285.896484375 506 393.896484375 432.10546875 393.896484375 356 c 0
 393.896484375 291 361.896484375 210 194.396484375 200 c 0
 49.5302734375 191.3515625 32.396484375 299 32.396484375 336 c 0
 32.396484375 360.819335938 52.888671875 384 83.896484375 384 c 0
 110.896484375 384 125.396484375 372 127.396484375 342 c 0
 129.673828125 307.841796875 180.51171875 301.68359375 198.396484375 304 c 0
 258.389648438 311.771484375 282.896484375 324 282.896484375 352 c 0
 282.896484375 374.42578125 261.59765625 379.182617188 220.896484375 372 c 0
 186.896484375 366 151.98828125 353.9765625 132.30078125 381.357421875 c 0
EndSplineSet
Validated: 37
EndChar

StartChar: uni2074
Encoding: 8308 8308 126
Width: 474
Flags: HW
LayerCount: 2
Fore
SplineSet
42 355 m 0
 71.4404296875 463.669921875 93.095703125 529.212890625 99.9697265625 580.669921875 c 0
 106.146484375 626.905273438 138.356445312 639.279296875 164.286132812 632.094726562 c 0
 187.595703125 625.63671875 196.873046875 609.421875 200.44921875 562.869140625 c 0
 204.026367188 516.31640625 189.471679688 448.307617188 137.927734375 320.19921875 c 0
 125.926757812 290.372070312 90.04296875 269.057617188 65.732421875 280.58984375 c 0
 43.8798828125 290.95703125 34.095703125 325.823242188 42 355 c 0
346.272460938 532 m 0
 354.272460938 510 355.272460938 485 355.272460938 423 c 0
 355.272460938 361 354.272460938 438 354.272460938 423 c 0
 354.272460938 314.92578125 351.272460938 246 341.272460938 233 c 0
 331.272460938 220 321.272460938 211 296.272460938 211 c 0
 271.272460938 211 247.272460938 217 245.272460938 265 c 0
 243.272460938 313 240.272460938 524 246.272460938 542 c 0
 252.272460938 560 265.272460938 572 287.272460938 572 c 0
 309.272460938 572 336.180664062 559.751953125 346.272460938 532 c 0
46.4521484375 315 m 0
 47.4521484375 371 151.447265625 420.071289062 230.452148438 430 c 0
 383.639648438 449.250976562 446.452148438 429 443.452148438 372 c 0
 440.036132812 307.08984375 341.3046875 355.029296875 222.452148438 318 c 0
 198.567382812 310.55859375 144.73828125 283.458984375 112.452148438 276 c 0
 75.7578125 267.522460938 45.880859375 282.989257812 46.4521484375 315 c 0
EndSplineSet
Validated: 37
EndChar

StartChar: uni2075
Encoding: 8309 8309 127
Width: 435
Flags: HW
LayerCount: 2
Fore
SplineSet
58.25 456.41796875 m 0
 62 484 68.572265625 497.484375 75.4462890625 548.94140625 c 0
 81.623046875 595.176757812 113.833007812 607.549804688 139.762695312 600.366210938 c 0
 163.072265625 593.908203125 185.21875 585.880859375 182.4765625 539.271484375 c 0
 179.4765625 488.271484375 168 474 160.046875 449.309570312 c 0
 150.189453125 418.708007812 122.543945312 387.590820312 96 392 c 0
 72.140625 395.96484375 54.177734375 426.465820312 58.25 456.41796875 c 0
75.4462890625 548.94140625 m 0
 76.4462890625 604.94140625 106.44140625 619.012695312 185.446289062 623.94140625 c 0
 339.5390625 633.5546875 391.446289062 622.94140625 388.446289062 565.94140625 c 0
 385.030273438 501.03125 301.288085938 524.599609375 177.446289062 511.94140625 c 0
 153.561523438 509.5 163.446289062 506.94140625 131.446289062 506.94140625 c 0
 93.78515625 506.94140625 74.875 516.930664062 75.4462890625 548.94140625 c 0
78 405 m 0
 64.595703125 423.642578125 82.3369140625 461.055664062 96 464 c 0
 277 503 410 482.10546875 410 366 c 0
 410 301 378 210 210.5 200 c 0
 65.6337890625 191.3515625 48.5 289 48.5 326 c 0
 48.5 350.819335938 68.9921875 374 100 374 c 0
 127 374 141.5 362 143.5 332 c 0
 145.77734375 297.841796875 196.615234375 301.68359375 214.5 304 c 0
 274.493164062 311.771484375 299 334 299 362 c 0
 299 384.42578125 277 409 166.595703125 395.642578125 c 0
 132.3203125 391.49609375 97.6875 377.619140625 78 405 c 0
EndSplineSet
Validated: 37
EndChar

StartChar: uni2076
Encoding: 8310 8310 128
Width: 423
Flags: HW
LayerCount: 2
Fore
SplineSet
180 574 m 0
 101 522 38.2119140625 435.017578125 36.1806640625 352 c 0
 33 222 109.07421875 181.060546875 216.180664062 190 c 0
 336 200 400 251 398 351 c 0
 395.935546875 454.229492188 342 497 218 482 c 0
 47.0537109375 461.321289062 22 342 68 320 c 0
 95.65234375 306.775390625 109.129882812 318.83984375 128 344 c 0
 137 356 158 374 217.993164062 384 c 0
 273.620117188 393.272460938 302.1171875 392.17578125 301.606445312 352 c 0
 301.26171875 324.921875 280 302 224.180664062 292 c 0
 163.446289062 281.119140625 140.46875 290.018554688 142 326 c 0
 144 373 174.653320312 437.701171875 222 474 c 0
 342 566 360.228515625 599.627929688 337 630 c 0
 308.526367188 667.23046875 231.646484375 607.995117188 180 574 c 0
EndSplineSet
Validated: 37
EndChar

StartChar: uni2077
Encoding: 8311 8311 129
Width: 438
Flags: HW
LayerCount: 2
Fore
SplineSet
46 535 m 5
 46 535 109.536132812 558 139.536132812 562 c 4
 169.536132812 566 174.5703125 556.870117188 166.536132812 494 c 4
 159.236328125 436.874023438 144.606445312 395.614257812 109.555664062 392.767578125 c 4
 74.505859375 389.920898438 58.2138671875 419.177734375 56.84765625 459.1796875 c 4
 56 484 49.892578125 491 46 535 c 5
46 535 m 0
 47 591 100.995117188 610.071289062 240 620 c 0
 394 631 426 619 423 562 c 0
 419.583984375 497.08984375 356.10546875 517.732421875 232 508 c 0
 188.115234375 504.55859375 144 496 112 496 c 0
 74.3388671875 496 45.4287109375 502.989257812 46 535 c 0
410 521 m 0
 348.115234375 413.515625 290.559570312 318.986328125 265 276 c 0
 243 239 207.560546875 225.3359375 185 240 c 0
 165 253 166.286132812 290.375976562 181.420898438 334.544921875 c 0
 197.149414062 380.446289062 232.30078125 475.506835938 328.30078125 577.143554688 c 0
 350.377929688 600.516601562 385.126953125 618.124023438 406.765625 602.131835938 c 0
 426.216796875 587.755859375 429 554 410 521 c 0
EndSplineSet
Validated: 37
EndChar

StartChar: uni2079
Encoding: 8313 8313 130
Width: 417
Flags: HW
LayerCount: 2
Fore
SplineSet
243.375976562 256.69140625 m 0
 322.375976562 308.69140625 385.1640625 395.673828125 387.1953125 478.69140625 c 0
 390.375976562 608.69140625 314.301757812 649.630859375 207.1953125 640.69140625 c 0
 87.3759765625 630.69140625 23.3759765625 579.69140625 25.3759765625 479.69140625 c 0
 27.4404296875 376.461914062 81.3759765625 333.69140625 205.375976562 348.69140625 c 0
 376.322265625 369.370117188 401.375976562 488.69140625 355.375976562 510.69140625 c 0
 327.724609375 523.916015625 314.24609375 511.8515625 295.375976562 486.69140625 c 0
 286.375976562 474.69140625 265.375976562 456.69140625 205.3828125 446.69140625 c 0
 149.755859375 437.418945312 121.258789062 438.515625 121.76953125 478.69140625 c 0
 122.114257812 505.76953125 143.375976562 528.69140625 199.1953125 538.69140625 c 0
 259.9296875 549.572265625 282.907226562 540.672851562 281.375976562 504.69140625 c 0
 279.375976562 457.69140625 248.72265625 392.990234375 201.375976562 356.69140625 c 0
 81.3759765625 264.69140625 63.1474609375 231.063476562 86.3759765625 200.69140625 c 0
 114.849609375 163.4609375 191.729492188 222.696289062 243.375976562 256.69140625 c 0
EndSplineSet
Validated: 37
EndChar

StartChar: uni2070
Encoding: 8304 8304 131
Width: 393
Flags: HW
LayerCount: 2
Fore
SplineSet
209.21875 521.23828125 m 4
 167.709960938 518 148.247070312 480.6171875 147.189453125 419.93359375 c 4
 146.265625 366.970703125 163.453125 343.313476562 200.213867188 349.22265625 c 4
 232.376953125 354.392578125 253.1796875 389.499023438 252.239257812 458.36328125 c 4
 251.616210938 503.95703125 242.797851562 523.858398438 209.21875 521.23828125 c 4
207.89453125 648.000976562 m 4
 280.20703125 653.560546875 368.955078125 619.131835938 368.955078125 468.844726562 c 4
 368.955078125 315.580078125 313.55078125 228.954101562 197.850585938 223.39453125 c 4
 73.205078125 217.404296875 22.3076171875 319.821289062 25.4677734375 424.741210938 c 4
 30.1181640625 579.1328125 130.799804688 642.073242188 207.89453125 648.000976562 c 4
EndSplineSet
Validated: 33
EndChar

StartChar: uni2078
Encoding: 8312 8312 132
Width: 415
Flags: HW
LayerCount: 2
Fore
SplineSet
226.06640625 553.103515625 m 0
 192.33984375 552.471679688 177.163085938 536.208007812 176.748046875 513.424804688 c 0
 176.319335938 489.905273438 189.775390625 481.5703125 220.704101562 482.709960938 c 0
 249.875 483.784179688 264.473632812 504.505859375 264.065429688 524.68359375 c 0
 263.694335938 543.041015625 256.065429688 553.666015625 226.06640625 553.103515625 c 0
227.143554688 640.036132812 m 0
 289.693359375 642.741210938 376.4609375 620.995117188 376.4609375 542.901367188 c 0
 376.4609375 460.359375 318.536132812 416.228515625 218.455078125 413.524414062 c 0
 110.63671875 410.611328125 56.78125 462.4140625 59.3447265625 521.452148438 c 0
 62.8232421875 601.567382812 160.456054688 637.153320312 227.143554688 640.036132812 c 0
219.977539062 399.578125 m 0
 169.448242188 398.012695312 145.240234375 374.104492188 143.948242188 346.065429688 c 0
 142.6953125 318.873046875 165.134765625 308.899414062 210.97265625 311.732421875 c 0
 253.1796875 314.340820312 278.444335938 333.000976562 276.998046875 370.159179688 c 0
 276.275390625 388.7421875 263.56640625 400.928710938 219.977539062 399.578125 c 0
218.653320312 457.630859375 m 0
 290.965820312 461.614257812 390.46875 461.682617188 390.46875 364 c 0
 390.46875 260.18359375 324.309570312 217.37890625 208.609375 213.39453125 c 0
 83.9638671875 209.102539062 21.9951171875 261.837890625 25.46875 331 c 0
 30.521484375 431.606445312 141.55859375 453.383789062 218.653320312 457.630859375 c 0
EndSplineSet
Validated: 37
EndChar

StartChar: uni2080
Encoding: 8320 8320 133
Width: 393
Flags: HW
LayerCount: 2
Fore
SplineSet
209.21875 311.23828125 m 4
 167.709960938 308 148.247070312 270.6171875 147.189453125 209.93359375 c 4
 146.265625 156.970703125 163.453125 133.313476562 200.213867188 139.22265625 c 4
 232.376953125 144.392578125 253.1796875 179.499023438 252.239257812 248.36328125 c 4
 251.616210938 293.95703125 242.797851562 313.858398438 209.21875 311.23828125 c 4
207.89453125 438.000976562 m 4
 280.20703125 443.560546875 368.955078125 409.131835938 368.955078125 258.844726562 c 4
 368.955078125 105.580078125 313.55078125 18.9541015625 197.850585938 13.39453125 c 4
 73.205078125 7.404296875 22.3076171875 109.821289062 25.4677734375 214.741210938 c 4
 30.1181640625 369.1328125 130.799804688 432.073242188 207.89453125 438.000976562 c 4
EndSplineSet
Validated: 33
EndChar

StartChar: uni2084
Encoding: 8324 8324 134
Width: 474
Flags: HW
LayerCount: 2
Fore
SplineSet
42 145 m 0
 71.4404296875 253.669921875 93.095703125 319.212890625 99.9697265625 370.669921875 c 0
 106.146484375 416.905273438 138.356445312 429.279296875 164.286132812 422.094726562 c 0
 187.595703125 415.63671875 196.873046875 399.421875 200.44921875 352.869140625 c 0
 204.026367188 306.31640625 189.471679688 238.307617188 137.927734375 110.19921875 c 0
 125.926757812 80.3720703125 90.04296875 59.0576171875 65.732421875 70.58984375 c 0
 43.8798828125 80.95703125 34.095703125 115.823242188 42 145 c 0
346.272460938 322 m 0
 354.272460938 300 355.272460938 275 355.272460938 213 c 0
 355.272460938 151 354.272460938 228 354.272460938 213 c 0
 354.272460938 104.92578125 351.272460938 36 341.272460938 23 c 0
 331.272460938 10 321.272460938 1 296.272460938 1 c 0
 271.272460938 1 247.272460938 7 245.272460938 55 c 0
 243.272460938 103 240.272460938 314 246.272460938 332 c 0
 252.272460938 350 265.272460938 362 287.272460938 362 c 0
 309.272460938 362 336.180664062 349.751953125 346.272460938 322 c 0
46.4521484375 105 m 0
 47.4521484375 161 151.447265625 210.071289062 230.452148438 220 c 0
 383.639648438 239.250976562 446.452148438 219 443.452148438 162 c 0
 440.036132812 97.08984375 341.3046875 145.029296875 222.452148438 108 c 0
 198.567382812 100.55859375 144.73828125 73.458984375 112.452148438 66 c 0
 75.7578125 57.5224609375 45.880859375 72.9892578125 46.4521484375 105 c 0
EndSplineSet
Validated: 37
EndChar

StartChar: uni2085
Encoding: 8325 8325 135
Width: 435
Flags: HW
LayerCount: 2
Fore
SplineSet
58.25 246.41796875 m 0
 62 274 68.572265625 287.484375 75.4462890625 338.94140625 c 0
 81.623046875 385.176757812 113.833007812 397.549804688 139.762695312 390.366210938 c 0
 163.072265625 383.908203125 185.21875 375.880859375 182.4765625 329.271484375 c 0
 179.4765625 278.271484375 168 264 160.046875 239.309570312 c 0
 150.189453125 208.708007812 122.543945312 177.590820312 96 182 c 0
 72.140625 185.96484375 54.177734375 216.465820312 58.25 246.41796875 c 0
75.4462890625 338.94140625 m 0
 76.4462890625 394.94140625 106.44140625 409.012695312 185.446289062 413.94140625 c 0
 339.5390625 423.5546875 391.446289062 412.94140625 388.446289062 355.94140625 c 0
 385.030273438 291.03125 301.288085938 314.599609375 177.446289062 301.94140625 c 0
 153.561523438 299.5 163.446289062 296.94140625 131.446289062 296.94140625 c 0
 93.78515625 296.94140625 74.875 306.930664062 75.4462890625 338.94140625 c 0
78 195 m 0
 64.595703125 213.642578125 82.3369140625 251.055664062 96 254 c 0
 277 293 410 272.10546875 410 156 c 0
 410 91 378 0 210.5 -10 c 0
 65.6337890625 -18.6484375 48.5 79 48.5 116 c 0
 48.5 140.819335938 68.9921875 164 100 164 c 0
 127 164 141.5 152 143.5 122 c 0
 145.77734375 87.841796875 196.615234375 91.68359375 214.5 94 c 0
 274.493164062 101.771484375 299 124 299 152 c 0
 299 174.42578125 277 199 166.595703125 185.642578125 c 0
 132.3203125 181.49609375 97.6875 167.619140625 78 195 c 0
EndSplineSet
Validated: 37
EndChar

StartChar: uni2086
Encoding: 8326 8326 136
Width: 423
Flags: HW
LayerCount: 2
Fore
SplineSet
180 364 m 0
 101 312 38.2119140625 225.017578125 36.1806640625 142 c 0
 33 12 109.07421875 -28.939453125 216.180664062 -20 c 0
 336 -10 400 41 398 141 c 0
 395.935546875 244.229492188 342 287 218 272 c 0
 47.0537109375 251.321289062 22 132 68 110 c 0
 95.65234375 96.775390625 109.129882812 108.83984375 128 134 c 0
 137 146 158 164 217.993164062 174 c 0
 273.620117188 183.272460938 302.1171875 182.17578125 301.606445312 142 c 0
 301.26171875 114.921875 280 92 224.180664062 82 c 0
 163.446289062 71.119140625 140.46875 80.0185546875 142 116 c 0
 144 163 174.653320312 227.701171875 222 264 c 0
 342 356 360.228515625 389.627929688 337 420 c 0
 308.526367188 457.23046875 231.646484375 397.995117188 180 364 c 0
EndSplineSet
Validated: 37
EndChar

StartChar: uni2087
Encoding: 8327 8327 137
Width: 438
Flags: HW
LayerCount: 2
Fore
SplineSet
46 325 m 1
 46 325 109.536132812 348 139.536132812 352 c 0
 169.536132812 356 174.5703125 346.870117188 166.536132812 284 c 0
 159.236328125 226.874023438 144.606445312 185.614257812 109.555664062 182.767578125 c 0
 74.505859375 179.920898438 58.2138671875 209.177734375 56.84765625 249.1796875 c 0
 56 274 49.892578125 281 46 325 c 1
46 325 m 0
 47 381 100.995117188 400.071289062 240 410 c 0
 394 421 426 409 423 352 c 0
 419.583984375 287.08984375 356.10546875 307.732421875 232 298 c 0
 188.115234375 294.55859375 144 286 112 286 c 0
 74.3388671875 286 45.4287109375 292.989257812 46 325 c 0
410 311 m 0
 348.115234375 203.515625 290.559570312 108.986328125 265 66 c 0
 243 29 207.560546875 15.3359375 185 30 c 0
 165 43 166.286132812 80.3759765625 181.420898438 124.544921875 c 0
 197.149414062 170.446289062 232.30078125 265.506835938 328.30078125 367.143554688 c 0
 350.377929688 390.516601562 385.126953125 408.124023438 406.765625 392.131835938 c 0
 426.216796875 377.755859375 429 344 410 311 c 0
EndSplineSet
Validated: 37
EndChar

StartChar: uni2088
Encoding: 8328 8328 138
Width: 415
Flags: HW
LayerCount: 2
Fore
SplineSet
226.06640625 343.103515625 m 0
 192.33984375 342.471679688 177.163085938 326.208007812 176.748046875 303.424804688 c 0
 176.319335938 279.905273438 189.775390625 271.5703125 220.704101562 272.709960938 c 0
 249.875 273.784179688 264.473632812 294.505859375 264.065429688 314.68359375 c 0
 263.694335938 333.041015625 256.065429688 343.666015625 226.06640625 343.103515625 c 0
227.143554688 430.036132812 m 0
 289.693359375 432.741210938 376.4609375 410.995117188 376.4609375 332.901367188 c 0
 376.4609375 250.359375 318.536132812 206.228515625 218.455078125 203.524414062 c 0
 110.63671875 200.611328125 56.78125 252.4140625 59.3447265625 311.452148438 c 0
 62.8232421875 391.567382812 160.456054688 427.153320312 227.143554688 430.036132812 c 0
219.977539062 189.578125 m 0
 169.448242188 188.012695312 145.240234375 164.104492188 143.948242188 136.065429688 c 0
 142.6953125 108.873046875 165.134765625 98.8994140625 210.97265625 101.732421875 c 0
 253.1796875 104.340820312 278.444335938 123.000976562 276.998046875 160.159179688 c 0
 276.275390625 178.7421875 263.56640625 190.928710938 219.977539062 189.578125 c 0
218.653320312 247.630859375 m 0
 290.965820312 251.614257812 390.46875 251.682617188 390.46875 154 c 0
 390.46875 50.18359375 324.309570312 7.37890625 208.609375 3.39453125 c 0
 83.9638671875 -0.8974609375 21.9951171875 51.837890625 25.46875 121 c 0
 30.521484375 221.606445312 141.55859375 243.383789062 218.653320312 247.630859375 c 0
EndSplineSet
Validated: 37
EndChar

StartChar: uni2089
Encoding: 8329 8329 139
Width: 417
Flags: HW
LayerCount: 2
Fore
SplineSet
243.375976562 46.69140625 m 0
 322.375976562 98.69140625 385.1640625 185.673828125 387.1953125 268.69140625 c 0
 390.375976562 398.69140625 314.301757812 439.630859375 207.1953125 430.69140625 c 0
 87.3759765625 420.69140625 23.3759765625 369.69140625 25.3759765625 269.69140625 c 0
 27.4404296875 166.461914062 81.3759765625 123.69140625 205.375976562 138.69140625 c 0
 376.322265625 159.370117188 401.375976562 278.69140625 355.375976562 300.69140625 c 0
 327.724609375 313.916015625 314.24609375 301.8515625 295.375976562 276.69140625 c 0
 286.375976562 264.69140625 265.375976562 246.69140625 205.3828125 236.69140625 c 0
 149.755859375 227.418945312 121.258789062 228.515625 121.76953125 268.69140625 c 0
 122.114257812 295.76953125 143.375976562 318.69140625 199.1953125 328.69140625 c 0
 259.9296875 339.572265625 282.907226562 330.672851562 281.375976562 294.69140625 c 0
 279.375976562 247.69140625 248.72265625 182.990234375 201.375976562 146.69140625 c 0
 81.3759765625 54.69140625 63.1474609375 21.0634765625 86.3759765625 -9.30859375 c 0
 114.849609375 -46.5390625 191.729492188 12.6962890625 243.375976562 46.69140625 c 0
EndSplineSet
Validated: 37
EndChar

StartChar: uni2081
Encoding: 8321 8321 140
Width: 258
Flags: HW
LayerCount: 2
Fore
SplineSet
118 303 m 0
 106.727539062 300 95.13671875 297.377929688 67 298 c 0
 26.9970703125 298.884765625 21.185546875 323.09375 24 344 c 0
 31 396 115 432 160 431 c 0
 205 430 224.739257812 412 227.739257812 321 c 0
 227.94140625 309.846679688 228 297.006835938 228 282 c 0
 228 220 227 190 227 172 c 0
 227 63.92578125 224 35 214 22 c 0
 204 9 194 0 169 0 c 0
 144 0 120 6 118 54 c 0
 116 102 113 383 119 401 c 1
 118.9921875 400.991210938 154.556640625 385.3125 155 376 c 0
 156 355 148.727539062 316 118 303 c 0
EndSplineSet
Validated: 37
EndChar

StartChar: uni2082
Encoding: 8322 8322 141
Width: 419
Flags: HW
LayerCount: 2
Fore
SplineSet
47 24 m 4
 48 80 112.055664062 108.256835938 251 119 c 4
 341.53125 126 397 118 394 61 c 4
 390.583984375 -3.91015625 333.53125 8 243 -3 c 4
 159.400390625 -13.158203125 145 -15 113 -15 c 4
 75.3388671875 -15 46.4287109375 -8.0107421875 47 24 c 4
125.53125 25 m 4
 71.876953125 6.9384765625 21.458984375 33.3759765625 79.5361328125 75 c 4
 199.53125 161 255.536132812 215.490234375 255.536132812 260 c 4
 255.536132812 292.305664062 235.188476562 308.495117188 201.34375 302.509765625 c 4
 138.045898438 291.315429688 140.250976562 271.047851562 104.858398438 267.125 c 4
 69.466796875 263.203125 23.3193359375 305.564453125 80.5224609375 358.7421875 c 4
 122.275390625 397.557617188 155.44140625 408.643554688 219.34375 414.509765625 c 4
 283.306640625 420.381835938 367.53125 395.706054688 367.53125 283 c 4
 367.53125 162.490234375 226.53125 59 125.53125 25 c 4
EndSplineSet
Validated: 37
EndChar

StartChar: uni2083
Encoding: 8323 8323 142
Width: 435
Flags: HW
LayerCount: 2
Fore
SplineSet
41.4462890625 338.94140625 m 0
 42.4462890625 394.94140625 106.44140625 409.012695312 185.446289062 413.94140625 c 0
 339.5390625 423.5546875 391.446289062 412.94140625 388.446289062 355.94140625 c 0
 385.030273438 291.03125 301.288085938 314.599609375 177.446289062 301.94140625 c 0
 153.561523438 299.5 129.446289062 296.94140625 97.4462890625 296.94140625 c 0
 59.78515625 296.94140625 40.875 306.930664062 41.4462890625 338.94140625 c 0
391 336 m 0
 381 307 352.604492188 282.803710938 325 260 c 0
 279 222 263 210 222 184 c 0
 182.16796875 158.740234375 165.434570312 150.908203125 148.404296875 171.357421875 c 0
 133.094726562 189.740234375 127.123046875 214.150390625 159.07421875 248.684570312 c 0
 201 294 223 312 242 336 c 0
 289.307617188 395.7578125 295.956054688 426.94140625 360.446289062 403.94140625 c 0
 388.893554688 393.795898438 399.96875 362.010742188 391 336 c 0
148.404296875 171.357421875 m 0
 135 190 190.41015625 199.877929688 201 209 c 0
 302 296 410 222.10546875 410 146 c 0
 410 81 378 0 210.5 -10 c 0
 65.6337890625 -18.6484375 48.5 89 48.5 126 c 0
 48.5 150.819335938 68.9921875 174 100 174 c 0
 127 174 141.5 162 143.5 132 c 0
 145.77734375 97.841796875 196.615234375 91.68359375 214.5 94 c 0
 274.493164062 101.771484375 299 114 299 142 c 0
 299 164.42578125 277.701171875 169.182617188 237 162 c 0
 203 156 168.091796875 143.9765625 148.404296875 171.357421875 c 0
EndSplineSet
Validated: 37
EndChar

StartChar: zero.numr
Encoding: 65545 -1 143
Width: 393
Flags: HW
LayerCount: 2
Fore
SplineSet
209.21875 521.23828125 m 4
 167.709960938 518 148.247070312 480.6171875 147.189453125 419.93359375 c 4
 146.265625 366.970703125 163.453125 343.313476562 200.213867188 349.22265625 c 4
 232.376953125 354.392578125 253.1796875 389.499023438 252.239257812 458.36328125 c 4
 251.616210938 503.95703125 242.797851562 523.858398438 209.21875 521.23828125 c 4
207.89453125 648.000976562 m 4
 280.20703125 653.560546875 368.955078125 619.131835938 368.955078125 468.844726562 c 4
 368.955078125 315.580078125 313.55078125 228.954101562 197.850585938 223.39453125 c 4
 73.205078125 217.404296875 22.3076171875 319.821289062 25.4677734375 424.741210938 c 4
 30.1181640625 579.1328125 130.799804688 642.073242188 207.89453125 648.000976562 c 4
EndSplineSet
Validated: 33
EndChar

StartChar: one.numr
Encoding: 65546 -1 144
Width: 258
Flags: HW
LayerCount: 2
Fore
SplineSet
118 513 m 0
 106.727539062 510 95.13671875 507.377929688 67 508 c 0
 26.9970703125 508.884765625 21.185546875 533.09375 24 554 c 0
 31 606 115 642 160 641 c 0
 205 640 224.739257812 622 227.739257812 531 c 0
 227.94140625 519.846679688 228 507.006835938 228 492 c 0
 228 430 227 400 227 382 c 0
 227 273.92578125 224 245 214 232 c 0
 204 219 194 210 169 210 c 0
 144 210 120 216 118 264 c 0
 116 312 113 593 119 611 c 1
 118.9921875 610.991210938 154.556640625 595.3125 155 586 c 0
 156 565 148.727539062 526 118 513 c 0
EndSplineSet
Validated: 37
EndChar

StartChar: two.numr
Encoding: 65547 -1 145
Width: 419
Flags: HW
LayerCount: 2
Fore
SplineSet
47 234 m 4
 48 290 112.055664062 318.256835938 251 329 c 4
 341.53125 336 397 328 394 271 c 4
 390.583984375 206.08984375 333.53125 218 243 207 c 4
 159.400390625 196.841796875 145 195 113 195 c 4
 75.3388671875 195 46.4287109375 201.989257812 47 234 c 4
125.53125 235 m 4
 71.876953125 216.938476562 21.458984375 243.375976562 79.5361328125 285 c 4
 199.53125 371 255.536132812 425.490234375 255.536132812 470 c 4
 255.536132812 502.305664062 235.188476562 518.495117188 201.34375 512.509765625 c 4
 138.045898438 501.315429688 140.250976562 481.047851562 104.858398438 477.125 c 4
 69.466796875 473.203125 23.3193359375 515.564453125 80.5224609375 568.7421875 c 4
 122.275390625 607.557617188 155.44140625 618.643554688 219.34375 624.509765625 c 4
 283.306640625 630.381835938 367.53125 605.706054688 367.53125 493 c 4
 367.53125 372.490234375 226.53125 269 125.53125 235 c 4
EndSplineSet
Validated: 37
EndChar

StartChar: three.numr
Encoding: 65548 -1 146
Width: 435
Flags: HW
LayerCount: 2
Fore
SplineSet
41.4462890625 548.94140625 m 0
 42.4462890625 604.94140625 106.44140625 619.012695312 185.446289062 623.94140625 c 0
 339.5390625 633.5546875 391.446289062 622.94140625 388.446289062 565.94140625 c 0
 385.030273438 501.03125 301.288085938 524.599609375 177.446289062 511.94140625 c 0
 153.561523438 509.5 129.446289062 506.94140625 97.4462890625 506.94140625 c 0
 59.78515625 506.94140625 40.875 516.930664062 41.4462890625 548.94140625 c 0
391 546 m 0
 381 517 352.604492188 492.803710938 325 470 c 0
 279 432 263 420 222 394 c 0
 182.16796875 368.740234375 165.434570312 360.908203125 148.404296875 381.357421875 c 0
 133.094726562 399.740234375 127.123046875 424.150390625 159.07421875 458.684570312 c 0
 201 504 223 522 242 546 c 0
 289.307617188 605.7578125 295.956054688 636.94140625 360.446289062 613.94140625 c 0
 388.893554688 603.795898438 399.96875 572.010742188 391 546 c 0
148.404296875 381.357421875 m 0
 135 400 190.41015625 409.877929688 201 419 c 0
 302 506 410 432.10546875 410 356 c 0
 410 291 378 210 210.5 200 c 0
 65.6337890625 191.3515625 48.5 299 48.5 336 c 0
 48.5 360.819335938 68.9921875 384 100 384 c 0
 127 384 141.5 372 143.5 342 c 0
 145.77734375 307.841796875 196.615234375 301.68359375 214.5 304 c 0
 274.493164062 311.771484375 299 324 299 352 c 0
 299 374.42578125 277.701171875 379.182617188 237 372 c 0
 203 366 168.091796875 353.9765625 148.404296875 381.357421875 c 0
EndSplineSet
Validated: 37
Substitution2: "'ss08' Style Set 8 in Latin lookup 7-1" three.ss08.numr
EndChar

